Rosalind Serif-Regular.ufo
<glyph name="exclam" format="1">
  <advance width="639"/>
  <unicode hex="0021"/>
  <note>
	exclam
  </note>
  <outline>
    <contour>
      <point x="425" y="1570" type="line"/>
      <point x="372" y="448" type="line"/>
      <point x="250" y="448" type="line"/>
      <point x="194" y="1570" type="line"/>
    </contour>
    <contour>
      <point x="413" y="241"/>
      <point x="455" y="190"/>
      <point x="455" y="121" type="curve" smooth="yes"/>
      <point x="455" y="65"/>
      <point x="426" y="23"/>
      <point x="382" y="0" type="curve" smooth="yes"/>
      <point x="359" y="-12"/>
      <point x="335" y="-18"/>
      <point x="308" y="-18" type="curve" smooth="yes"/>
      <point x="264" y="-18"/>
      <point x="224" y="2"/>
      <point x="201" y="39" type="curve" smooth="yes"/>
      <point x="190" y="57"/>
      <point x="184" y="78"/>
      <point x="184" y="102" type="curve" smooth="yes"/>
      <point x="184" y="154"/>
      <point x="214" y="199"/>
      <point x="259" y="223" type="curve" smooth="yes"/>
      <point x="282" y="235"/>
      <point x="305" y="241"/>
      <point x="330" y="241" type="curve" smooth="yes"/>
    </contour>
  </outline>
</glyph>
<glyph name="quotedbl" format="1">
  <advance width="1094"/>
  <unicode hex="0022"/>
  <note>
	quotedbl
  </note>
  <outline>
    <contour>
      <point x="884" y="1489" type="line"/>
      <point x="842" y="825" type="line"/>
      <point x="718" y="825" type="line"/>
      <point x="677" y="1489" type="line"/>
    </contour>
    <contour>
      <point x="418" y="1489" type="line"/>
      <point x="376" y="825" type="line"/>
      <point x="252" y="825" type="line"/>
      <point x="211" y="1489" type="line"/>
    </contour>
  </outline>
</glyph>
<glyph name="numbersign" format="1">
  <advance width="1340"/>
  <unicode hex="0023"/>
  <note>
	numbersign
  </note>
  <outline>
    <contour>
      <point x="146" y="318" type="line"/>
      <point x="146" y="435" type="line"/>
      <point x="351" y="435" type="line"/>
      <point x="384" y="788" type="line"/>
      <point x="176" y="788" type="line"/>
      <point x="176" y="906" type="line"/>
      <point x="397" y="906" type="line"/>
      <point x="424" y="1208" type="line"/>
      <point x="580" y="1208" type="line"/>
      <point x="553" y="906" type="line"/>
      <point x="840" y="906" type="line"/>
      <point x="869" y="1208" type="line"/>
      <point x="1024" y="1208" type="line"/>
      <point x="997" y="906" type="line"/>
      <point x="1206" y="906" type="line"/>
      <point x="1206" y="788" type="line"/>
      <point x="984" y="788" type="line"/>
      <point x="952" y="435" type="line"/>
      <point x="1167" y="435" type="line"/>
      <point x="1167" y="318" type="line"/>
      <point x="940" y="318" type="line"/>
      <point x="911" y="0" type="line"/>
      <point x="755" y="0" type="line"/>
      <point x="783" y="318" type="line"/>
      <point x="494" y="318" type="line"/>
      <point x="464" y="0" type="line"/>
      <point x="305" y="0" type="line"/>
      <point x="337" y="318" type="line"/>
    </contour>
    <contour>
      <point x="828" y="788" type="line"/>
      <point x="539" y="788" type="line"/>
      <point x="506" y="435" type="line"/>
      <point x="792" y="435" type="line"/>
    </contour>
  </outline>
</glyph>
<glyph name="dollar" format="1">
  <advance width="1205"/>
  <unicode hex="0024"/>
  <note>
	dollar
  </note>
  <outline>
    <contour>
      <point x="655" y="-227" type="line"/>
      <point x="517" y="-227" type="line"/>
      <point x="519" y="-18" type="line"/>
      <point x="383" y="-7"/>
      <point x="240" y="32"/>
      <point x="179" y="60" type="curve"/>
      <point x="193" y="366" type="line"/>
      <point x="313" y="366" type="line"/>
      <point x="356" y="151" type="line"/>
      <point x="406" y="105"/>
      <point x="484" y="82"/>
      <point x="589" y="82" type="curve" smooth="yes"/>
      <point x="756" y="82"/>
      <point x="842" y="156"/>
      <point x="842" y="300" type="curve" smooth="yes"/>
      <point x="842" y="387"/>
      <point x="780" y="456"/>
      <point x="695" y="509" type="curve" smooth="yes"/>
      <point x="652" y="536"/>
      <point x="593" y="569"/>
      <point x="516" y="610" type="curve" smooth="yes"/>
      <point x="364" y="689"/>
      <point x="277" y="753"/>
      <point x="227" y="849" type="curve" smooth="yes"/>
      <point x="202" y="897"/>
      <point x="189" y="955"/>
      <point x="189" y="1023" type="curve" smooth="yes"/>
      <point x="189" y="1138"/>
      <point x="254" y="1232"/>
      <point x="361" y="1292" type="curve" smooth="yes"/>
      <point x="414" y="1321"/>
      <point x="474" y="1341"/>
      <point x="541" y="1350" type="curve"/>
      <point x="541" y="1551" type="line"/>
      <point x="680" y="1551" type="line"/>
      <point x="680" y="1353" type="line"/>
      <point x="781" y="1347"/>
      <point x="877" y="1325"/>
      <point x="967" y="1287" type="curve"/>
      <point x="957" y="999" type="line"/>
      <point x="840" y="999" type="line"/>
      <point x="794" y="1204" type="line"/>
      <point x="757" y="1238"/>
      <point x="701" y="1255"/>
      <point x="626" y="1255" type="curve" smooth="yes"/>
      <point x="486" y="1255"/>
      <point x="383" y="1192"/>
      <point x="383" y="1065" type="curve" smooth="yes"/>
      <point x="383" y="980"/>
      <point x="435" y="915"/>
      <point x="503" y="868" type="curve" smooth="yes"/>
      <point x="537" y="844"/>
      <point x="583" y="816"/>
      <point x="642" y="784" type="curve"/>
      <point x="664" y="771" type="line" smooth="yes"/>
      <point x="859" y="659"/>
      <point x="941" y="607"/>
      <point x="1001" y="514" type="curve" smooth="yes"/>
      <point x="1030" y="467"/>
      <point x="1045" y="411"/>
      <point x="1045" y="345" type="curve" smooth="yes"/>
      <point x="1045" y="214"/>
      <point x="985" y="108"/>
      <point x="869" y="44" type="curve" smooth="yes"/>
      <point x="810" y="11"/>
      <point x="739" y="-9"/>
      <point x="656" y="-17" type="curve"/>
    </contour>
  </outline>
</glyph>
<glyph name="percent" format="1">
  <advance width="1856"/>
  <unicode hex="0025"/>
  <note>
	percent
  </note>
  <outline>
    <contour>
      <point x="1290" y="1353" type="line"/>
      <point x="713" y="0" type="line"/>
      <point x="565" y="0" type="line"/>
      <point x="1142" y="1353" type="line"/>
    </contour>
    <contour>
      <point x="95" y="1102"/>
      <point x="164" y="1221"/>
      <point x="272" y="1282" type="curve" smooth="yes"/>
      <point x="325" y="1312"/>
      <point x="384" y="1327"/>
      <point x="448" y="1327" type="curve" smooth="yes"/>
      <point x="592" y="1327"/>
      <point x="690" y="1258"/>
      <point x="736" y="1147" type="curve" smooth="yes"/>
      <point x="759" y="1091"/>
      <point x="770" y="1027"/>
      <point x="770" y="956" type="curve" smooth="yes"/>
      <point x="770" y="800"/>
      <point x="699" y="682"/>
      <point x="592" y="622" type="curve" smooth="yes"/>
      <point x="538" y="592"/>
      <point x="480" y="577"/>
      <point x="417" y="577" type="curve" smooth="yes"/>
      <point x="286" y="577"/>
      <point x="186" y="649"/>
      <point x="134" y="761" type="curve" smooth="yes"/>
      <point x="108" y="817"/>
      <point x="95" y="878"/>
      <point x="95" y="945" type="curve" smooth="yes"/>
    </contour>
    <contour>
      <point x="590" y="1111"/>
      <point x="537" y="1224"/>
      <point x="436" y="1224" type="curve" smooth="yes"/>
      <point x="331" y="1224"/>
      <point x="275" y="1119"/>
      <point x="275" y="955" type="curve" smooth="yes"/>
      <point x="275" y="855"/>
      <point x="299" y="768"/>
      <point x="345" y="718" type="curve" smooth="yes"/>
      <point x="368" y="693"/>
      <point x="396" y="680"/>
      <point x="429" y="680" type="curve" smooth="yes"/>
      <point x="536" y="680"/>
      <point x="591" y="784"/>
      <point x="591" y="948" type="curve"/>
    </contour>
    <contour>
      <point x="1582" y="786"/>
      <point x="1679" y="716"/>
      <point x="1726" y="605" type="curve" smooth="yes"/>
      <point x="1749" y="549"/>
      <point x="1761" y="485"/>
      <point x="1761" y="414" type="curve" smooth="yes"/>
      <point x="1761" y="258"/>
      <point x="1690" y="141"/>
      <point x="1582" y="81" type="curve" smooth="yes"/>
      <point x="1528" y="51"/>
      <point x="1470" y="36"/>
      <point x="1407" y="36" type="curve" smooth="yes"/>
      <point x="1276" y="36"/>
      <point x="1176" y="108"/>
      <point x="1124" y="220" type="curve" smooth="yes"/>
      <point x="1098" y="276"/>
      <point x="1085" y="337"/>
      <point x="1085" y="404" type="curve" smooth="yes"/>
      <point x="1085" y="561"/>
      <point x="1154" y="680"/>
      <point x="1262" y="741" type="curve" smooth="yes"/>
      <point x="1316" y="771"/>
      <point x="1375" y="786"/>
      <point x="1438" y="786" type="curve" smooth="yes"/>
    </contour>
    <contour>
      <point x="1526" y="139"/>
      <point x="1581" y="242"/>
      <point x="1581" y="407" type="curve" smooth="yes"/>
      <point x="1581" y="570"/>
      <point x="1529" y="683"/>
      <point x="1426" y="683" type="curve" smooth="yes"/>
      <point x="1321" y="683"/>
      <point x="1265" y="578"/>
      <point x="1265" y="414" type="curve" smooth="yes"/>
      <point x="1265" y="314"/>
      <point x="1289" y="227"/>
      <point x="1335" y="177" type="curve" smooth="yes"/>
      <point x="1358" y="152"/>
      <point x="1386" y="139"/>
      <point x="1419" y="139" type="curve" smooth="yes"/>
    </contour>
  </outline>
</glyph>
<glyph name="ampersand" format="1">
  <advance width="1364"/>
  <unicode hex="0026"/>
  <note>
	ampersand
  </note>
  <outline>
    <contour>
      <point x="1333" y="741" type="line"/>
      <point x="1333" y="633" type="line"/>
      <point x="1192" y="611" type="line"/>
      <point x="1192" y="448"/>
      <point x="1133" y="298"/>
      <point x="1048" y="205" type="curve"/>
      <point x="1123" y="137"/>
      <point x="1184" y="101"/>
      <point x="1272" y="93" type="curve"/>
      <point x="1272" y="9" type="line"/>
      <point x="1249" y="-4"/>
      <point x="1179" y="-13"/>
      <point x="1139" y="-13" type="curve" smooth="yes"/>
      <point x="1052" y="-12"/>
      <point x="994" y="13"/>
      <point x="909" y="84" type="curve"/>
      <point x="818" y="13"/>
      <point x="694" y="-17"/>
      <point x="587" y="-17" type="curve" smooth="yes"/>
      <point x="392" y="-17"/>
      <point x="244" y="36"/>
      <point x="165" y="140" type="curve" smooth="yes"/>
      <point x="126" y="191"/>
      <point x="106" y="254"/>
      <point x="106" y="327" type="curve" smooth="yes"/>
      <point x="106" y="476"/>
      <point x="211" y="576"/>
      <point x="370" y="665" type="curve"/>
      <point x="281" y="781"/>
      <point x="216" y="917"/>
      <point x="216" y="1040" type="curve" smooth="yes"/>
      <point x="216" y="1155"/>
      <point x="284" y="1256"/>
      <point x="393" y="1313" type="curve" smooth="yes"/>
      <point x="448" y="1341"/>
      <point x="509" y="1355"/>
      <point x="576" y="1355" type="curve" smooth="yes"/>
      <point x="716" y="1355"/>
      <point x="814" y="1301"/>
      <point x="862" y="1225" type="curve" smooth="yes"/>
      <point x="886" y="1187"/>
      <point x="898" y="1147"/>
      <point x="898" y="1105" type="curve" smooth="yes"/>
      <point x="898" y="972"/>
      <point x="840" y="878"/>
      <point x="764" y="814" type="curve" smooth="yes"/>
      <point x="725" y="781"/>
      <point x="670" y="741"/>
      <point x="599" y="693" type="curve"/>
      <point x="692" y="577"/>
      <point x="844" y="404"/>
      <point x="928" y="323" type="curve" smooth="yes"/>
      <point x="967" y="284" type="line"/>
      <point x="1022" y="361"/>
      <point x="1047" y="462"/>
      <point x="1047" y="559" type="curve" smooth="yes"/>
      <point x="1047" y="577"/>
      <point x="1046" y="594"/>
      <point x="1045" y="611" type="curve"/>
      <point x="903" y="633" type="line"/>
      <point x="903" y="741" type="line"/>
    </contour>
    <contour>
      <point x="633" y="838"/>
      <point x="682" y="897"/>
      <point x="706" y="970" type="curve" smooth="yes"/>
      <point x="718" y="1006"/>
      <point x="724" y="1048"/>
      <point x="724" y="1097" type="curve" smooth="yes"/>
      <point x="724" y="1184"/>
      <point x="689" y="1267"/>
      <point x="573" y="1267" type="curve" smooth="yes"/>
      <point x="512" y="1267"/>
      <point x="458" y="1229"/>
      <point x="430" y="1168" type="curve" smooth="yes"/>
      <point x="415" y="1137"/>
      <point x="408" y="1103"/>
      <point x="408" y="1065" type="curve" smooth="yes"/>
      <point x="408" y="945"/>
      <point x="465" y="854"/>
      <point x="541" y="763" type="curve"/>
    </contour>
    <contour>
      <point x="733" y="242"/>
      <point x="602" y="387"/>
      <point x="431" y="591" type="curve"/>
      <point x="348" y="520"/>
      <point x="298" y="447"/>
      <point x="298" y="351" type="curve" smooth="yes"/>
      <point x="298" y="258"/>
      <point x="343" y="175"/>
      <point x="434" y="128" type="curve" smooth="yes"/>
      <point x="479" y="104"/>
      <point x="535" y="92"/>
      <point x="600" y="92" type="curve" smooth="yes"/>
      <point x="676" y="92"/>
      <point x="762" y="113"/>
      <point x="825" y="157" type="curve"/>
    </contour>
  </outline>
</glyph>
<glyph name="quotesingle" format="1">
  <advance width="628"/>
  <unicode hex="0027"/>
  <note>
	quotesingle
  </note>
  <outline>
    <contour>
      <point x="418" y="1489" type="line"/>
      <point x="376" y="825" type="line"/>
      <point x="252" y="825" type="line"/>
      <point x="211" y="1489" type="line"/>
    </contour>
  </outline>
</glyph>
<glyph name="parenleft" format="1">
  <advance width="774"/>
  <unicode hex="0028"/>
  <note>
	parenleft
  </note>
  <outline>
    <contour>
      <point x="648" y="1437" type="line"/>
      <point x="577" y="1393"/>
      <point x="462" y="1257"/>
      <point x="378" y="1030" type="curve" smooth="yes"/>
      <point x="335" y="916"/>
      <point x="312" y="785"/>
      <point x="309" y="637" type="curve" smooth="yes"/>
      <point x="308" y="599" type="line" smooth="yes"/>
      <point x="308" y="286"/>
      <point x="407" y="32"/>
      <point x="515" y="-117" type="curve" smooth="yes"/>
      <point x="568" y="-192"/>
      <point x="615" y="-243"/>
      <point x="654" y="-271" type="curve"/>
      <point x="565" y="-332" type="line"/>
      <point x="469" y="-275"/>
      <point x="319" y="-137"/>
      <point x="205" y="129" type="curve" smooth="yes"/>
      <point x="148" y="262"/>
      <point x="119" y="420"/>
      <point x="119" y="603" type="curve" smooth="yes"/>
      <point x="119" y="920"/>
      <point x="252" y="1182"/>
      <point x="392" y="1338" type="curve" smooth="yes"/>
      <point x="461" y="1416"/>
      <point x="519" y="1468"/>
      <point x="565" y="1493" type="curve"/>
    </contour>
  </outline>
</glyph>
<glyph name="parenright" format="1">
  <advance width="774"/>
  <unicode hex="0029"/>
  <note>
	parenright
  </note>
  <outline>
    <contour>
      <point x="126" y="-275" type="line"/>
      <point x="197" y="-231"/>
      <point x="312" y="-96"/>
      <point x="396" y="132" type="curve" smooth="yes"/>
      <point x="438" y="246"/>
      <point x="461" y="377"/>
      <point x="465" y="524" type="curve" smooth="yes"/>
      <point x="466" y="562" type="line" smooth="yes"/>
      <point x="466" y="875"/>
      <point x="367" y="1130"/>
      <point x="260" y="1279" type="curve" smooth="yes"/>
      <point x="206" y="1353"/>
      <point x="159" y="1404"/>
      <point x="120" y="1433" type="curve"/>
      <point x="209" y="1493" type="line"/>
      <point x="305" y="1436"/>
      <point x="454" y="1300"/>
      <point x="569" y="1033" type="curve" smooth="yes"/>
      <point x="626" y="900"/>
      <point x="655" y="742"/>
      <point x="655" y="559" type="curve" smooth="yes"/>
      <point x="655" y="240"/>
      <point x="522" y="-21"/>
      <point x="382" y="-176" type="curve" smooth="yes"/>
      <point x="312" y="-254"/>
      <point x="254" y="-306"/>
      <point x="209" y="-332" type="curve"/>
    </contour>
  </outline>
</glyph>
<glyph name="asterisk" format="1">
  <advance width="1156"/>
  <unicode hex="002A"/>
  <note>
	asterisk
  </note>
  <outline>
    <contour>
      <point x="378" y="973" type="line"/>
      <point x="527" y="1020" type="line"/>
      <point x="378" y="1063" type="line"/>
      <point x="130" y="1170" type="line"/>
      <point x="219" y="1326" type="line"/>
      <point x="436" y="1166" type="line"/>
      <point x="553" y="1061" type="line"/>
      <point x="515" y="1212" type="line"/>
      <point x="480" y="1482" type="line"/>
      <point x="664" y="1482" type="line"/>
      <point x="635" y="1214" type="line"/>
      <point x="602" y="1064" type="line"/>
      <point x="714" y="1170" type="line"/>
      <point x="931" y="1333" type="line"/>
      <point x="1022" y="1179" type="line"/>
      <point x="778" y="1067" type="line"/>
      <point x="627" y="1021" type="line"/>
      <point x="778" y="978" type="line"/>
      <point x="1026" y="873" type="line"/>
      <point x="934" y="712" type="line"/>
      <point x="720" y="872" type="line"/>
      <point x="602" y="977" type="line"/>
      <point x="641" y="826" type="line"/>
      <point x="676" y="558" type="line"/>
      <point x="492" y="557" type="line"/>
      <point x="519" y="826" type="line"/>
      <point x="553" y="979" type="line"/>
      <point x="441" y="869" type="line"/>
      <point x="225" y="706" type="line"/>
      <point x="134" y="862" type="line"/>
    </contour>
  </outline>
</glyph>
<glyph name="plus" format="1">
  <advance width="1190"/>
  <unicode hex="002B"/>
  <note>
	plus
  </note>
  <outline>
    <contour>
      <point x="374" y="612" type="line"/>
      <point x="527" y="601" type="line"/>
      <point x="521" y="748" type="line"/>
      <point x="521" y="949" type="line"/>
      <point x="670" y="949" type="line"/>
      <point x="670" y="748" type="line"/>
      <point x="662" y="601" type="line"/>
      <point x="791" y="612" type="line"/>
      <point x="1001" y="612" type="line"/>
      <point x="1001" y="465" type="line"/>
      <point x="791" y="465" type="line"/>
      <point x="662" y="471" type="line"/>
      <point x="670" y="326" type="line"/>
      <point x="670" y="115" type="line"/>
      <point x="521" y="115" type="line"/>
      <point x="521" y="326" type="line"/>
      <point x="527" y="471" type="line"/>
      <point x="374" y="465" type="line"/>
      <point x="189" y="465" type="line"/>
      <point x="189" y="612" type="line"/>
    </contour>
  </outline>
</glyph>
<glyph name="comma" format="1">
  <advance width="604"/>
  <unicode hex="002C"/>
  <note>
	comma
  </note>
  <outline>
    <contour>
      <point x="313" y="268" type="line" smooth="yes"/>
      <point x="401" y="268"/>
      <point x="458" y="183"/>
      <point x="458" y="44" type="curve" smooth="yes"/>
      <point x="458" y="-88"/>
      <point x="409" y="-216"/>
      <point x="341" y="-304" type="curve" smooth="yes"/>
      <point x="307" y="-348"/>
      <point x="273" y="-379"/>
      <point x="239" y="-397" type="curve"/>
      <point x="238" y="-397" type="line"/>
      <point x="179" y="-348" type="line"/>
      <point x="179" y="-327" type="line"/>
      <point x="239" y="-279"/>
      <point x="290" y="-202"/>
      <point x="290" y="-86" type="curve" smooth="yes"/>
      <point x="290" y="-29"/>
      <point x="273" y="-4"/>
      <point x="237" y="35" type="curve" smooth="yes"/>
      <point x="204" y="71"/>
      <point x="187" y="96"/>
      <point x="187" y="148" type="curve" smooth="yes"/>
      <point x="187" y="195"/>
      <point x="209" y="233"/>
      <point x="245" y="253" type="curve" smooth="yes"/>
      <point x="263" y="263"/>
      <point x="282" y="268"/>
      <point x="303" y="268" type="curve" smooth="yes"/>
    </contour>
  </outline>
</glyph>
<glyph name="hyphen" format="1">
  <advance width="1152"/>
  <unicode hex="002D"/>
  <note>
	hyphen
  </note>
  <outline>
    <contour>
      <point x="950" y="613" type="line"/>
      <point x="950" y="471" type="line"/>
      <point x="202" y="471" type="line"/>
      <point x="202" y="613" type="line"/>
    </contour>
  </outline>
</glyph>
<glyph name="period" format="1">
  <advance width="525"/>
  <unicode hex="002E"/>
  <note>
	period
  </note>
  <outline>
    <contour>
      <point x="128" y="154"/>
      <point x="158" y="199"/>
      <point x="203" y="224" type="curve" smooth="yes"/>
      <point x="225" y="236"/>
      <point x="248" y="242"/>
      <point x="273" y="242" type="curve" smooth="yes"/>
      <point x="354" y="242"/>
      <point x="398" y="190"/>
      <point x="398" y="122" type="curve" smooth="yes"/>
      <point x="398" y="67"/>
      <point x="369" y="23"/>
      <point x="324" y="0" type="curve" smooth="yes"/>
      <point x="301" y="-12"/>
      <point x="277" y="-18"/>
      <point x="251" y="-18" type="curve" smooth="yes"/>
      <point x="207" y="-18"/>
      <point x="168" y="3"/>
      <point x="145" y="40" type="curve" smooth="yes"/>
      <point x="134" y="58"/>
      <point x="128" y="79"/>
      <point x="128" y="102" type="curve" smooth="yes"/>
    </contour>
  </outline>
</glyph>
<glyph name="slash" format="1">
  <advance width="776"/>
  <unicode hex="002F"/>
  <note>
	slash
  </note>
  <outline>
    <contour>
      <point x="715" y="1407" type="line"/>
      <point x="231" y="-319" type="line"/>
      <point x="62" y="-319" type="line"/>
      <point x="546" y="1407" type="line"/>
    </contour>
  </outline>
</glyph>
<glyph name="zero" format="1">
  <advance width="1150"/>
  <unicode hex="0030"/>
  <note>
	zero
  </note>
  <outline>
    <contour>
      <point x="109" y="801"/>
      <point x="204" y="979"/>
      <point x="352" y="1069" type="curve" smooth="yes"/>
      <point x="426" y="1114"/>
      <point x="507" y="1136"/>
      <point x="595" y="1136" type="curve" smooth="yes"/>
      <point x="907" y="1136"/>
      <point x="1043" y="924"/>
      <point x="1043" y="577" type="curve" smooth="yes"/>
      <point x="1043" y="341"/>
      <point x="954" y="155"/>
      <point x="807" y="56" type="curve" smooth="yes"/>
      <point x="734" y="7"/>
      <point x="652" y="-18"/>
      <point x="561" y="-18" type="curve" smooth="yes"/>
      <point x="353" y="-18"/>
      <point x="217" y="92"/>
      <point x="154" y="269" type="curve" smooth="yes"/>
      <point x="122" y="357"/>
      <point x="107" y="457"/>
      <point x="108" y="568" type="curve" smooth="yes"/>
    </contour>
    <contour>
      <point x="825" y="866"/>
      <point x="755" y="1038"/>
      <point x="578" y="1038" type="curve" smooth="yes"/>
      <point x="399" y="1038"/>
      <point x="324" y="880"/>
      <point x="324" y="581" type="curve" smooth="yes"/>
      <point x="324" y="278"/>
      <point x="401" y="80"/>
      <point x="576" y="80" type="curve" smooth="yes"/>
      <point x="756" y="80"/>
      <point x="825" y="242"/>
      <point x="825" y="557" type="curve" smooth="yes"/>
    </contour>
  </outline>
</glyph>
<glyph name="one" format="1">
  <advance width="780"/>
  <unicode hex="0031"/>
  <note>
	one
  </note>
  <outline>
    <contour>
      <point x="327" y="118" type="line"/>
      <point x="327" y="913" type="line"/>
      <point x="279" y="894"/>
      <point x="152" y="866"/>
      <point x="92" y="862" type="curve"/>
      <point x="70" y="970" type="line"/>
      <point x="194" y="997"/>
      <point x="326" y="1062"/>
      <point x="415" y="1137" type="curve"/>
      <point x="416" y="1137" type="line"/>
      <point x="532" y="1118" type="line"/>
      <point x="532" y="118" type="line"/>
      <point x="736" y="96" type="line"/>
      <point x="736" y="0" type="line"/>
      <point x="104" y="0" type="line"/>
      <point x="104" y="96" type="line"/>
    </contour>
  </outline>
</glyph>
<glyph name="two" format="1">
  <advance width="1076"/>
  <unicode hex="0032"/>
  <note>
	two
  </note>
  <outline>
    <contour>
      <point x="77" y="81" type="line"/>
      <point x="297" y="205"/>
      <point x="488" y="371"/>
      <point x="596" y="542" type="curve" smooth="yes"/>
      <point x="650" y="627"/>
      <point x="677" y="707"/>
      <point x="677" y="782" type="curve" smooth="yes"/>
      <point x="677" y="913"/>
      <point x="593" y="993"/>
      <point x="456" y="993" type="curve" smooth="yes"/>
      <point x="320" y="993"/>
      <point x="227" y="932"/>
      <point x="146" y="856" type="curve"/>
      <point x="85" y="942" type="line"/>
      <point x="138" y="1002"/>
      <point x="227" y="1067"/>
      <point x="342" y="1108" type="curve" smooth="yes"/>
      <point x="399" y="1128"/>
      <point x="459" y="1138"/>
      <point x="520" y="1138" type="curve" smooth="yes"/>
      <point x="688" y="1138"/>
      <point x="804" y="1072"/>
      <point x="860" y="973" type="curve" smooth="yes"/>
      <point x="887" y="923"/>
      <point x="901" y="869"/>
      <point x="901" y="811" type="curve" smooth="yes"/>
      <point x="901" y="652"/>
      <point x="786" y="481"/>
      <point x="610" y="329" type="curve" smooth="yes"/>
      <point x="521" y="253"/>
      <point x="423" y="183"/>
      <point x="315" y="118" type="curve"/>
      <point x="854" y="159" type="line"/>
      <point x="916" y="297" type="line"/>
      <point x="1016" y="276" type="line"/>
      <point x="972" y="0" type="line"/>
      <point x="107" y="0" type="line"/>
    </contour>
  </outline>
</glyph>
<glyph name="three" format="1">
  <advance width="1004"/>
  <unicode hex="0033"/>
  <note>
	three
  </note>
  <outline>
    <contour>
      <point x="429" y="-176"/>
      <point x="566" y="-116"/>
      <point x="639" y="-17" type="curve" smooth="yes"/>
      <point x="675" y="32"/>
      <point x="693" y="87"/>
      <point x="693" y="148" type="curve" smooth="yes"/>
      <point x="693" y="308"/>
      <point x="605" y="398"/>
      <point x="402" y="407" type="curve"/>
      <point x="377" y="400"/>
      <point x="312" y="385"/>
      <point x="287" y="380" type="curve"/>
      <point x="253" y="484" type="line"/>
      <point x="297" y="491"/>
      <point x="345" y="504"/>
      <point x="397" y="524" type="curve"/>
      <point x="544" y="587"/>
      <point x="638" y="699"/>
      <point x="638" y="818" type="curve" smooth="yes"/>
      <point x="638" y="947"/>
      <point x="554" y="1001"/>
      <point x="433" y="1001" type="curve" smooth="yes"/>
      <point x="324" y="1001"/>
      <point x="219" y="962"/>
      <point x="146" y="907" type="curve"/>
      <point x="95" y="994" type="line"/>
      <point x="136" y="1033"/>
      <point x="223" y="1084"/>
      <point x="331" y="1116" type="curve" smooth="yes"/>
      <point x="384" y="1132"/>
      <point x="438" y="1140"/>
      <point x="491" y="1140" type="curve" smooth="yes"/>
      <point x="710" y="1140"/>
      <point x="855" y="1048"/>
      <point x="855" y="851" type="curve" smooth="yes"/>
      <point x="855" y="738"/>
      <point x="789" y="630"/>
      <point x="687" y="553" type="curve" smooth="yes"/>
      <point x="636" y="514"/>
      <point x="580" y="485"/>
      <point x="519" y="465" type="curve"/>
      <point x="530" y="466"/>
      <point x="547" y="466"/>
      <point x="568" y="466" type="curve" smooth="yes"/>
      <point x="712" y="466"/>
      <point x="821" y="410"/>
      <point x="878" y="319" type="curve" smooth="yes"/>
      <point x="906" y="274"/>
      <point x="920" y="223"/>
      <point x="920" y="168" type="curve" smooth="yes"/>
      <point x="920" y="-8"/>
      <point x="812" y="-152"/>
      <point x="620" y="-231" type="curve" smooth="yes"/>
      <point x="524" y="-270"/>
      <point x="412" y="-290"/>
      <point x="285" y="-290" type="curve" smooth="yes"/>
      <point x="232" y="-290"/>
      <point x="153" y="-279"/>
      <point x="104" y="-268" type="curve"/>
      <point x="104" y="-158" type="line"/>
      <point x="143" y="-169"/>
      <point x="203" y="-176"/>
      <point x="250" y="-176" type="curve" smooth="yes"/>
    </contour>
  </outline>
</glyph>
<glyph name="four" format="1">
  <advance width="1158"/>
  <unicode hex="0034"/>
  <note>
	four
  </note>
  <outline>
    <contour>
      <point x="58" y="88" type="line"/>
      <point x="205" y="359"/>
      <point x="427" y="833"/>
      <point x="600" y="1228" type="curve"/>
      <point x="648" y="1228" type="line"/>
      <point x="806" y="1140" type="line"/>
      <point x="317" y="224" type="line"/>
      <point x="243" y="112" type="line"/>
      <point x="705" y="138" type="line"/>
      <point x="711" y="472" type="line"/>
      <point x="883" y="488" type="line"/>
      <point x="883" y="148" type="line"/>
      <point x="1115" y="162" type="line"/>
      <point x="1115" y="0" type="line"/>
      <point x="883" y="0" type="line"/>
      <point x="883" y="-292" type="line"/>
      <point x="705" y="-292" type="line"/>
      <point x="705" y="0" type="line"/>
      <point x="109" y="0" type="line"/>
    </contour>
  </outline>
</glyph>
<glyph name="five" format="1">
  <advance width="1063"/>
  <unicode hex="0035"/>
  <note>
	five
  </note>
  <outline>
    <contour>
      <point x="427" y="-190"/>
      <point x="574" y="-119"/>
      <point x="655" y="4" type="curve" smooth="yes"/>
      <point x="696" y="65"/>
      <point x="716" y="135"/>
      <point x="716" y="213" type="curve" smooth="yes"/>
      <point x="716" y="400"/>
      <point x="627" y="494"/>
      <point x="449" y="494" type="curve" smooth="yes"/>
      <point x="377" y="494"/>
      <point x="281" y="468"/>
      <point x="214" y="433" type="curve"/>
      <point x="163" y="471" type="line"/>
      <point x="242" y="1118" type="line"/>
      <point x="747" y="1118" type="line"/>
      <point x="766" y="1153" type="line"/>
      <point x="886" y="1153" type="line"/>
      <point x="852" y="953" type="line"/>
      <point x="383" y="953" type="line"/>
      <point x="312" y="552" type="line"/>
      <point x="383" y="592"/>
      <point x="487" y="620"/>
      <point x="580" y="620" type="curve" smooth="yes"/>
      <point x="811" y="620"/>
      <point x="942" y="495"/>
      <point x="942" y="242" type="curve" smooth="yes"/>
      <point x="942" y="55"/>
      <point x="824" y="-119"/>
      <point x="624" y="-218" type="curve" smooth="yes"/>
      <point x="524" y="-267"/>
      <point x="411" y="-292"/>
      <point x="284" y="-292" type="curve" smooth="yes"/>
      <point x="238" y="-292"/>
      <point x="196" y="-288"/>
      <point x="158" y="-279" type="curve"/>
      <point x="159" y="-185" type="line"/>
      <point x="199" y="-188"/>
      <point x="234" y="-190"/>
      <point x="263" y="-190" type="curve" smooth="yes"/>
    </contour>
  </outline>
</glyph>
<glyph name="six" format="1">
  <advance width="1190"/>
  <unicode hex="0036"/>
  <note>
	six
  </note>
  <outline>
    <contour>
      <point x="136" y="828"/>
      <point x="297" y="1098"/>
      <point x="526" y="1263" type="curve" smooth="yes"/>
      <point x="641" y="1345"/>
      <point x="758" y="1396"/>
      <point x="879" y="1416" type="curve"/>
      <point x="922" y="1333" type="line"/>
      <point x="735" y="1273"/>
      <point x="588" y="1155"/>
      <point x="492" y="1008" type="curve" smooth="yes"/>
      <point x="444" y="934"/>
      <point x="408" y="855"/>
      <point x="385" y="772" type="curve"/>
      <point x="448" y="835"/>
      <point x="547" y="884"/>
      <point x="678" y="884" type="curve" smooth="yes"/>
      <point x="842" y="884"/>
      <point x="957" y="816"/>
      <point x="1016" y="694" type="curve" smooth="yes"/>
      <point x="1045" y="633"/>
      <point x="1060" y="560"/>
      <point x="1060" y="476" type="curve" smooth="yes"/>
      <point x="1060" y="301"/>
      <point x="986" y="140"/>
      <point x="847" y="49" type="curve" smooth="yes"/>
      <point x="778" y="3"/>
      <point x="695" y="-20"/>
      <point x="600" y="-20" type="curve" smooth="yes"/>
      <point x="404" y="-20"/>
      <point x="261" y="85"/>
      <point x="190" y="250" type="curve" smooth="yes"/>
      <point x="154" y="333"/>
      <point x="136" y="424"/>
      <point x="136" y="525" type="curve" smooth="yes"/>
    </contour>
    <contour>
      <point x="358" y="631"/>
      <point x="356" y="604"/>
      <point x="355" y="574" type="curve" smooth="yes"/>
      <point x="354" y="532" type="line" smooth="yes"/>
      <point x="354" y="261"/>
      <point x="427" y="77"/>
      <point x="612" y="77" type="curve" smooth="yes"/>
      <point x="716" y="77"/>
      <point x="787" y="153"/>
      <point x="822" y="260" type="curve" smooth="yes"/>
      <point x="839" y="313"/>
      <point x="848" y="369"/>
      <point x="848" y="426" type="curve" smooth="yes"/>
      <point x="848" y="661"/>
      <point x="760" y="765"/>
      <point x="620" y="765" type="curve" smooth="yes"/>
      <point x="540" y="765"/>
      <point x="468" y="738"/>
      <point x="418" y="705" type="curve" smooth="yes"/>
      <point x="393" y="688"/>
      <point x="374" y="672"/>
      <point x="361" y="655" type="curve"/>
    </contour>
  </outline>
</glyph>
<glyph name="seven" format="1">
  <advance width="1027"/>
  <unicode hex="0037"/>
  <note>
	seven
  </note>
  <outline>
    <contour>
      <point x="255" y="970" type="line"/>
      <point x="182" y="752" type="line"/>
      <point x="64" y="774" type="line"/>
      <point x="103" y="1118" type="line"/>
      <point x="920" y="1118" type="line"/>
      <point x="961" y="1069" type="line"/>
      <point x="477" y="-309" type="line"/>
      <point x="260" y="-250" type="line"/>
      <point x="392" y="30"/>
      <point x="511" y="319"/>
      <point x="683" y="743" type="curve" smooth="yes"/>
      <point x="778" y="976" type="line"/>
    </contour>
  </outline>
</glyph>
<glyph name="eight" format="1">
  <advance width="1144"/>
  <unicode hex="0038"/>
  <note>
	eight
  </note>
  <outline>
    <contour>
      <point x="256" y="767"/>
      <point x="172" y="872"/>
      <point x="172" y="1035" type="curve" smooth="yes"/>
      <point x="172" y="1171"/>
      <point x="255" y="1274"/>
      <point x="379" y="1325" type="curve" smooth="yes"/>
      <point x="441" y="1350"/>
      <point x="507" y="1363"/>
      <point x="577" y="1363" type="curve" smooth="yes"/>
      <point x="732" y="1363"/>
      <point x="853" y="1313"/>
      <point x="918" y="1224" type="curve" smooth="yes"/>
      <point x="950" y="1179"/>
      <point x="966" y="1127"/>
      <point x="966" y="1068" type="curve" smooth="yes"/>
      <point x="966" y="940"/>
      <point x="880" y="812"/>
      <point x="735" y="724" type="curve"/>
      <point x="856" y="653"/>
      <point x="942" y="591"/>
      <point x="996" y="499" type="curve" smooth="yes"/>
      <point x="1023" y="453"/>
      <point x="1036" y="401"/>
      <point x="1036" y="344" type="curve" smooth="yes"/>
      <point x="1036" y="201"/>
      <point x="945" y="85"/>
      <point x="805" y="26" type="curve" smooth="yes"/>
      <point x="735" y="-4"/>
      <point x="659" y="-19"/>
      <point x="577" y="-19" type="curve" smooth="yes"/>
      <point x="425" y="-19"/>
      <point x="278" y="27"/>
      <point x="190" y="130" type="curve" smooth="yes"/>
      <point x="146" y="181"/>
      <point x="124" y="245"/>
      <point x="124" y="322" type="curve" smooth="yes"/>
      <point x="124" y="465"/>
      <point x="215" y="593"/>
      <point x="399" y="678" type="curve"/>
    </contour>
    <contour>
      <point x="744" y="830"/>
      <point x="800" y="927"/>
      <point x="800" y="1020" type="curve" smooth="yes"/>
      <point x="800" y="1183"/>
      <point x="712" y="1273"/>
      <point x="571" y="1273" type="curve" smooth="yes"/>
      <point x="482" y="1273"/>
      <point x="411" y="1242"/>
      <point x="375" y="1184" type="curve" smooth="yes"/>
      <point x="356" y="1155"/>
      <point x="347" y="1120"/>
      <point x="347" y="1081" type="curve" smooth="yes"/>
      <point x="347" y="993"/>
      <point x="408" y="923"/>
      <point x="489" y="869" type="curve" smooth="yes"/>
      <point x="529" y="842"/>
      <point x="584" y="809"/>
      <point x="653" y="771" type="curve"/>
    </contour>
    <contour>
      <point x="476" y="632" type="line"/>
      <point x="376" y="572"/>
      <point x="309" y="474"/>
      <point x="309" y="362" type="curve" smooth="yes"/>
      <point x="309" y="249"/>
      <point x="351" y="161"/>
      <point x="435" y="113" type="curve" smooth="yes"/>
      <point x="476" y="89"/>
      <point x="527" y="77"/>
      <point x="586" y="77" type="curve" smooth="yes"/>
      <point x="675" y="77"/>
      <point x="755" y="117"/>
      <point x="800" y="185" type="curve" smooth="yes"/>
      <point x="822" y="219"/>
      <point x="833" y="257"/>
      <point x="833" y="300" type="curve" smooth="yes"/>
      <point x="833" y="388"/>
      <point x="778" y="455"/>
      <point x="703" y="504" type="curve" smooth="yes"/>
      <point x="666" y="528"/>
      <point x="614" y="557"/>
      <point x="549" y="592" type="curve" smooth="yes"/>
    </contour>
  </outline>
</glyph>
<glyph name="nine" format="1">
  <advance width="1192"/>
  <unicode hex="0039"/>
  <note>
	nine
  </note>
  <outline>
    <contour>
      <point x="1067" y="292"/>
      <point x="921" y="22"/>
      <point x="706" y="-141" type="curve" smooth="yes"/>
      <point x="598" y="-223"/>
      <point x="484" y="-275"/>
      <point x="363" y="-296" type="curve"/>
      <point x="319" y="-212" type="line"/>
      <point x="590" y="-121"/>
      <point x="754" y="84"/>
      <point x="818" y="341" type="curve"/>
      <point x="754" y="281"/>
      <point x="656" y="235"/>
      <point x="547" y="235" type="curve" smooth="yes"/>
      <point x="383" y="235"/>
      <point x="255" y="309"/>
      <point x="188" y="439" type="curve" smooth="yes"/>
      <point x="155" y="504"/>
      <point x="138" y="579"/>
      <point x="138" y="664" type="curve" smooth="yes"/>
      <point x="138" y="832"/>
      <point x="215" y="986"/>
      <point x="356" y="1073" type="curve" smooth="yes"/>
      <point x="426" y="1116"/>
      <point x="509" y="1138"/>
      <point x="605" y="1138" type="curve" smooth="yes"/>
      <point x="809" y="1138"/>
      <point x="948" y="1038"/>
      <point x="1016" y="878" type="curve" smooth="yes"/>
      <point x="1050" y="797"/>
      <point x="1067" y="706"/>
      <point x="1067" y="604" type="curve" smooth="yes"/>
    </contour>
    <contour>
      <point x="844" y="490"/>
      <point x="846" y="524"/>
      <point x="847" y="557" type="curve" smooth="yes"/>
      <point x="847" y="603" type="line" smooth="yes"/>
      <point x="847" y="894"/>
      <point x="762" y="1039"/>
      <point x="592" y="1039" type="curve" smooth="yes"/>
      <point x="487" y="1039"/>
      <point x="412" y="966"/>
      <point x="376" y="863" type="curve" smooth="yes"/>
      <point x="358" y="811"/>
      <point x="349" y="758"/>
      <point x="349" y="704" type="curve" smooth="yes"/>
      <point x="349" y="461"/>
      <point x="442" y="354"/>
      <point x="583" y="354" type="curve" smooth="yes"/>
      <point x="696" y="354"/>
      <point x="795" y="403"/>
      <point x="839" y="455" type="curve"/>
    </contour>
  </outline>
</glyph>
<glyph name="colon" format="1">
  <advance width="621"/>
  <unicode hex="003A"/>
  <note>
	colon
  </note>
  <outline>
    <contour>
      <point x="176" y="898"/>
      <point x="206" y="943"/>
      <point x="251" y="968" type="curve" smooth="yes"/>
      <point x="273" y="980"/>
      <point x="296" y="986"/>
      <point x="321" y="986" type="curve" smooth="yes"/>
      <point x="402" y="986"/>
      <point x="446" y="934"/>
      <point x="446" y="866" type="curve" smooth="yes"/>
      <point x="446" y="811"/>
      <point x="417" y="767"/>
      <point x="372" y="744" type="curve" smooth="yes"/>
      <point x="349" y="732"/>
      <point x="325" y="726"/>
      <point x="299" y="726" type="curve" smooth="yes"/>
      <point x="255" y="726"/>
      <point x="216" y="747"/>
      <point x="193" y="784" type="curve" smooth="yes"/>
      <point x="182" y="802"/>
      <point x="176" y="823"/>
      <point x="176" y="846" type="curve" smooth="yes"/>
    </contour>
    <contour>
      <point x="176" y="154"/>
      <point x="206" y="199"/>
      <point x="251" y="224" type="curve" smooth="yes"/>
      <point x="273" y="236"/>
      <point x="296" y="242"/>
      <point x="321" y="242" type="curve" smooth="yes"/>
      <point x="402" y="242"/>
      <point x="446" y="190"/>
      <point x="446" y="122" type="curve" smooth="yes"/>
      <point x="446" y="67"/>
      <point x="417" y="23"/>
      <point x="372" y="0" type="curve" smooth="yes"/>
      <point x="349" y="-12"/>
      <point x="325" y="-18"/>
      <point x="299" y="-18" type="curve" smooth="yes"/>
      <point x="255" y="-18"/>
      <point x="216" y="3"/>
      <point x="193" y="40" type="curve" smooth="yes"/>
      <point x="182" y="58"/>
      <point x="176" y="79"/>
      <point x="176" y="102" type="curve" smooth="yes"/>
    </contour>
  </outline>
</glyph>
<glyph name="semicolon" format="1">
  <advance width="621"/>
  <unicode hex="003B"/>
  <note>
	semicolon
  </note>
  <outline>
    <contour>
      <point x="314" y="268" type="line" smooth="yes"/>
      <point x="402" y="268"/>
      <point x="459" y="183"/>
      <point x="459" y="44" type="curve" smooth="yes"/>
      <point x="459" y="-88"/>
      <point x="410" y="-216"/>
      <point x="342" y="-304" type="curve" smooth="yes"/>
      <point x="308" y="-348"/>
      <point x="274" y="-379"/>
      <point x="240" y="-397" type="curve"/>
      <point x="239" y="-397" type="line"/>
      <point x="180" y="-348" type="line"/>
      <point x="180" y="-327" type="line"/>
      <point x="240" y="-279"/>
      <point x="291" y="-202"/>
      <point x="291" y="-86" type="curve" smooth="yes"/>
      <point x="291" y="-29"/>
      <point x="274" y="-4"/>
      <point x="238" y="35" type="curve" smooth="yes"/>
      <point x="205" y="71"/>
      <point x="188" y="96"/>
      <point x="188" y="148" type="curve" smooth="yes"/>
      <point x="188" y="195"/>
      <point x="210" y="233"/>
      <point x="246" y="253" type="curve" smooth="yes"/>
      <point x="264" y="263"/>
      <point x="283" y="268"/>
      <point x="304" y="268" type="curve" smooth="yes"/>
    </contour>
    <contour>
      <point x="177" y="898"/>
      <point x="207" y="943"/>
      <point x="252" y="968" type="curve" smooth="yes"/>
      <point x="274" y="980"/>
      <point x="297" y="986"/>
      <point x="322" y="986" type="curve" smooth="yes"/>
      <point x="403" y="986"/>
      <point x="447" y="934"/>
      <point x="447" y="866" type="curve" smooth="yes"/>
      <point x="447" y="811"/>
      <point x="418" y="767"/>
      <point x="373" y="744" type="curve" smooth="yes"/>
      <point x="350" y="732"/>
      <point x="326" y="726"/>
      <point x="300" y="726" type="curve" smooth="yes"/>
      <point x="256" y="726"/>
      <point x="217" y="747"/>
      <point x="194" y="784" type="curve" smooth="yes"/>
      <point x="183" y="802"/>
      <point x="177" y="823"/>
      <point x="177" y="846" type="curve" smooth="yes"/>
    </contour>
  </outline>
</glyph>
<glyph name="less" format="1">
  <advance width="1205"/>
  <unicode hex="003C"/>
  <note>
	less
  </note>
  <outline>
    <contour>
      <point x="1000" y="1037" type="line"/>
      <point x="1000" y="865" type="line"/>
      <point x="333" y="542" type="line"/>
      <point x="1000" y="218" type="line"/>
      <point x="1000" y="48" type="line"/>
      <point x="148" y="487" type="line"/>
      <point x="148" y="598" type="line"/>
    </contour>
  </outline>
</glyph>
<glyph name="equal" format="1">
  <advance width="1176"/>
  <unicode hex="003D"/>
  <note>
	equal
  </note>
  <outline>
    <contour>
      <point x="994" y="854" type="line"/>
      <point x="994" y="714" type="line"/>
      <point x="183" y="714" type="line"/>
      <point x="183" y="854" type="line"/>
    </contour>
    <contour>
      <point x="994" y="370" type="line"/>
      <point x="994" y="230" type="line"/>
      <point x="183" y="230" type="line"/>
      <point x="183" y="370" type="line"/>
    </contour>
  </outline>
</glyph>
<glyph name="question" format="1">
  <advance width="874"/>
  <unicode hex="003F"/>
  <note>
	question
  </note>
  <outline>
    <contour>
      <point x="310" y="226"/>
      <point x="319" y="227"/>
      <point x="327" y="227" type="curve" smooth="yes"/>
      <point x="353" y="227"/>
      <point x="375" y="219"/>
      <point x="393" y="205" type="curve" smooth="yes"/>
      <point x="411" y="190"/>
      <point x="423" y="170"/>
      <point x="430" y="146" type="curve"/>
      <point x="432" y="137"/>
      <point x="433" y="128"/>
      <point x="433" y="120" type="curve" smooth="yes"/>
      <point x="433" y="92"/>
      <point x="423" y="68"/>
      <point x="404" y="47" type="curve" smooth="yes"/>
      <point x="384" y="27"/>
      <point x="360" y="15"/>
      <point x="329" y="10" type="curve"/>
      <point x="323" y="8"/>
      <point x="314" y="7"/>
      <point x="303" y="7" type="curve" smooth="yes"/>
      <point x="279" y="7"/>
      <point x="258" y="15"/>
      <point x="239" y="29" type="curve" smooth="yes"/>
      <point x="220" y="44"/>
      <point x="207" y="64"/>
      <point x="200" y="89" type="curve"/>
      <point x="198" y="107" type="line"/>
      <point x="198" y="135"/>
      <point x="208" y="160"/>
      <point x="228" y="182" type="curve" smooth="yes"/>
      <point x="248" y="204"/>
      <point x="272" y="218"/>
      <point x="300" y="224" type="curve" smooth="yes"/>
    </contour>
    <contour>
      <point x="248" y="943"/>
      <point x="627" y="968"/>
      <point x="627" y="1250" type="curve" smooth="yes"/>
      <point x="627" y="1400"/>
      <point x="533" y="1497"/>
      <point x="342" y="1497" type="curve" smooth="yes"/>
      <point x="258" y="1497"/>
      <point x="159" y="1472"/>
      <point x="83" y="1421" type="curve"/>
      <point x="55" y="1500" type="line"/>
      <point x="116" y="1553"/>
      <point x="243" y="1629"/>
      <point x="403" y="1629" type="curve" smooth="yes"/>
      <point x="675" y="1629"/>
      <point x="827" y="1500"/>
      <point x="827" y="1273" type="curve" smooth="yes"/>
      <point x="827" y="938"/>
      <point x="352" y="874"/>
      <point x="352" y="572" type="curve" smooth="yes"/>
      <point x="352" y="536"/>
      <point x="360" y="503"/>
      <point x="365" y="462" type="curve"/>
      <point x="266" y="462" type="line"/>
      <point x="255" y="508"/>
      <point x="248" y="549"/>
      <point x="248" y="589" type="curve" smooth="yes"/>
    </contour>
  </outline>
</glyph>
<glyph name="at" format="1">
  <advance width="1938"/>
  <unicode hex="0040"/>
  <note>
	at
  </note>
  <outline>
    <contour>
      <point x="1362" y="1358"/>
      <point x="1557" y="1258"/>
      <point x="1663" y="1061" type="curve" smooth="yes"/>
      <point x="1716" y="962"/>
      <point x="1742" y="841"/>
      <point x="1742" y="698" type="curve" smooth="yes"/>
      <point x="1742" y="401"/>
      <point x="1607" y="174"/>
      <point x="1448" y="59" type="curve" smooth="yes"/>
      <point x="1369" y="1"/>
      <point x="1300" y="-28"/>
      <point x="1243" y="-28" type="curve" smooth="yes"/>
      <point x="1179" y="-28"/>
      <point x="1127" y="32"/>
      <point x="1119" y="129" type="curve" smooth="yes"/>
      <point x="1118" y="142"/>
      <point x="1118" y="154"/>
      <point x="1118" y="163" type="curve" smooth="yes"/>
      <point x="1118" y="213"/>
      <point x="1126" y="287"/>
      <point x="1142" y="385" type="curve"/>
      <point x="1087" y="237"/>
      <point x="1012" y="104"/>
      <point x="924" y="25" type="curve" smooth="yes"/>
      <point x="880" y="-14"/>
      <point x="835" y="-34"/>
      <point x="790" y="-34" type="curve" smooth="yes"/>
      <point x="709" y="-34"/>
      <point x="625" y="28"/>
      <point x="577" y="137" type="curve" smooth="yes"/>
      <point x="552" y="192"/>
      <point x="540" y="255"/>
      <point x="540" y="328" type="curve" smooth="yes"/>
      <point x="540" y="504"/>
      <point x="621" y="707"/>
      <point x="763" y="830" type="curve" smooth="yes"/>
      <point x="834" y="891"/>
      <point x="914" y="922"/>
      <point x="1005" y="922" type="curve" smooth="yes"/>
      <point x="1072" y="922"/>
      <point x="1150" y="906"/>
      <point x="1210" y="874" type="curve"/>
      <point x="1221" y="905"/>
      <point x="1230" y="921"/>
      <point x="1250" y="917" type="curve"/>
      <point x="1268" y="911"/>
      <point x="1284" y="905"/>
      <point x="1299" y="900" type="curve"/>
      <point x="1328" y="889"/>
      <point x="1348" y="882"/>
      <point x="1360" y="879" type="curve"/>
      <point x="1327" y="730"/>
      <point x="1283" y="468"/>
      <point x="1270" y="311" type="curve"/>
      <point x="1267" y="287"/>
      <point x="1266" y="263"/>
      <point x="1266" y="239" type="curve" smooth="yes"/>
      <point x="1266" y="200"/>
      <point x="1269" y="170"/>
      <point x="1276" y="148" type="curve" smooth="yes"/>
      <point x="1283" y="126"/>
      <point x="1291" y="115"/>
      <point x="1301" y="115" type="curve" smooth="yes"/>
      <point x="1389" y="115"/>
      <point x="1497" y="212"/>
      <point x="1563" y="377" type="curve" smooth="yes"/>
      <point x="1596" y="459"/>
      <point x="1612" y="551"/>
      <point x="1612" y="653" type="curve" smooth="yes"/>
      <point x="1612" y="921"/>
      <point x="1498" y="1095"/>
      <point x="1326" y="1174" type="curve" smooth="yes"/>
      <point x="1240" y="1213"/>
      <point x="1146" y="1233"/>
      <point x="1043" y="1233" type="curve" smooth="yes"/>
      <point x="782" y="1233"/>
      <point x="544" y="1085"/>
      <point x="409" y="819" type="curve" smooth="yes"/>
      <point x="341" y="686"/>
      <point x="307" y="531"/>
      <point x="307" y="356" type="curve" smooth="yes"/>
      <point x="307" y="63"/>
      <point x="414" y="-145"/>
      <point x="585" y="-248" type="curve" smooth="yes"/>
      <point x="670" y="-299"/>
      <point x="766" y="-325"/>
      <point x="872" y="-325" type="curve" smooth="yes"/>
      <point x="1000" y="-325"/>
      <point x="1165" y="-288"/>
      <point x="1232" y="-243" type="curve"/>
      <point x="1267" y="-322" type="line"/>
      <point x="1175" y="-399"/>
      <point x="1009" y="-451"/>
      <point x="840" y="-451" type="curve" smooth="yes"/>
      <point x="556" y="-451"/>
      <point x="350" y="-323"/>
      <point x="244" y="-91" type="curve" smooth="yes"/>
      <point x="191" y="24"/>
      <point x="164" y="161"/>
      <point x="164" y="318" type="curve" smooth="yes"/>
      <point x="164" y="721"/>
      <point x="355" y="1051"/>
      <point x="645" y="1227" type="curve" smooth="yes"/>
      <point x="790" y="1314"/>
      <point x="945" y="1358"/>
      <point x="1111" y="1358" type="curve" smooth="yes"/>
    </contour>
    <contour>
      <point x="885" y="135"/>
      <point x="960" y="219"/>
      <point x="1026" y="343" type="curve" smooth="yes"/>
      <point x="1092" y="466"/>
      <point x="1144" y="621"/>
      <point x="1160" y="726" type="curve"/>
      <point x="1127" y="761"/>
      <point x="1020" y="791"/>
      <point x="960" y="791" type="curve" smooth="yes"/>
      <point x="860" y="791"/>
      <point x="784" y="704"/>
      <point x="745" y="576" type="curve" smooth="yes"/>
      <point x="725" y="512"/>
      <point x="715" y="444"/>
      <point x="715" y="373" type="curve" smooth="yes"/>
      <point x="715" y="252"/>
      <point x="748" y="135"/>
      <point x="832" y="135" type="curve" smooth="yes"/>
    </contour>
  </outline>
</glyph>
<glyph name="B" format="1">
  <advance width="1232"/>
  <unicode hex="0042"/>
  <note>
	B
  </note>
  <outline>
    <contour>
      <point x="232" y="117" type="line"/>
      <point x="232" y="1220" type="line"/>
      <point x="87" y="1242" type="line"/>
      <point x="87" y="1339" type="line"/>
      <point x="326" y="1339" type="line" smooth="yes"/>
      <point x="366" y="1339"/>
      <point x="417" y="1341"/>
      <point x="480" y="1346" type="curve" smooth="yes"/>
      <point x="528" y="1351"/>
      <point x="569" y="1353"/>
      <point x="604" y="1353" type="curve" smooth="yes"/>
      <point x="933" y="1353"/>
      <point x="1074" y="1249"/>
      <point x="1074" y="1049" type="curve" smooth="yes"/>
      <point x="1074" y="937"/>
      <point x="1029" y="842"/>
      <point x="949" y="781" type="curve" smooth="yes"/>
      <point x="908" y="750"/>
      <point x="860" y="729"/>
      <point x="804" y="718" type="curve"/>
      <point x="951" y="722"/>
      <point x="1064" y="667"/>
      <point x="1124" y="570" type="curve" smooth="yes"/>
      <point x="1154" y="521"/>
      <point x="1169" y="465"/>
      <point x="1169" y="400" type="curve" smooth="yes"/>
      <point x="1169" y="157"/>
      <point x="1012" y="-11"/>
      <point x="617" y="-11" type="curve" smooth="yes"/>
      <point x="573" y="-11"/>
      <point x="517" y="-7"/>
      <point x="497" y="-6" type="curve" smooth="yes"/>
      <point x="426" y="-2"/>
      <point x="370" y="0"/>
      <point x="328" y="0" type="curve" smooth="yes"/>
      <point x="84" y="0" type="line"/>
      <point x="84" y="96" type="line"/>
    </contour>
    <contour>
      <point x="438" y="758" type="line"/>
      <point x="468" y="755"/>
      <point x="528" y="754"/>
      <point x="619" y="754" type="curve" smooth="yes"/>
      <point x="785" y="754"/>
      <point x="868" y="840"/>
      <point x="868" y="1012" type="curve" smooth="yes"/>
      <point x="868" y="1123"/>
      <point x="835" y="1190"/>
      <point x="755" y="1225" type="curve" smooth="yes"/>
      <point x="715" y="1242"/>
      <point x="661" y="1251"/>
      <point x="593" y="1251" type="curve" smooth="yes"/>
      <point x="551" y="1251"/>
      <point x="516" y="1250"/>
      <point x="488" y="1247" type="curve" smooth="yes"/>
      <point x="459" y="1244"/>
      <point x="443" y="1242"/>
      <point x="438" y="1241" type="curve"/>
    </contour>
    <contour>
      <point x="437" y="108" type="line"/>
      <point x="465" y="96"/>
      <point x="529" y="92"/>
      <point x="612" y="92" type="curve" smooth="yes"/>
      <point x="847" y="92"/>
      <point x="945" y="190"/>
      <point x="945" y="370" type="curve" smooth="yes"/>
      <point x="945" y="501"/>
      <point x="906" y="579"/>
      <point x="818" y="616" type="curve" smooth="yes"/>
      <point x="773" y="634"/>
      <point x="715" y="643"/>
      <point x="642" y="643" type="curve" smooth="yes"/>
      <point x="557" y="643" type="line" smooth="yes"/>
      <point x="496" y="643"/>
      <point x="456" y="643"/>
      <point x="437" y="642" type="curve"/>
    </contour>
  </outline>
</glyph>
<glyph name="E" format="1">
  <advance width="1178"/>
  <unicode hex="0045"/>
  <note>
	E
  </note>
  <outline>
    <contour>
      <point x="232" y="117" type="line"/>
      <point x="232" y="1220" type="line"/>
      <point x="87" y="1242" type="line"/>
      <point x="87" y="1339" type="line"/>
      <point x="1004" y="1339" type="line"/>
      <point x="1029" y="1060" type="line"/>
      <point x="915" y="1060" type="line"/>
      <point x="861" y="1228" type="line"/>
      <point x="439" y="1239" type="line"/>
      <point x="439" y="742" type="line"/>
      <point x="725" y="747" type="line"/>
      <point x="752" y="893" type="line"/>
      <point x="865" y="893" type="line"/>
      <point x="865" y="476" type="line"/>
      <point x="752" y="476" type="line"/>
      <point x="726" y="631" type="line"/>
      <point x="439" y="635" type="line"/>
      <point x="439" y="109" type="line"/>
      <point x="923" y="128" type="line"/>
      <point x="1023" y="349" type="line"/>
      <point x="1135" y="316" type="line"/>
      <point x="1083" y="0" type="line"/>
      <point x="84" y="0" type="line"/>
      <point x="84" y="96" type="line"/>
    </contour>
  </outline>
</glyph>
<glyph name="F" format="1">
  <advance width="1117"/>
  <unicode hex="0046"/>
  <note>
	F
  </note>
  <outline>
    <contour>
      <point x="232" y="117" type="line"/>
      <point x="232" y="1220" type="line"/>
      <point x="84" y="1242" type="line"/>
      <point x="84" y="1339" type="line"/>
      <point x="1045" y="1339" type="line"/>
      <point x="1064" y="1031" type="line"/>
      <point x="936" y="1031" type="line"/>
      <point x="878" y="1227" type="line"/>
      <point x="439" y="1239" type="line"/>
      <point x="439" y="726" type="line"/>
      <point x="745" y="730" type="line"/>
      <point x="781" y="877" type="line"/>
      <point x="889" y="877" type="line"/>
      <point x="889" y="458" type="line"/>
      <point x="781" y="458" type="line"/>
      <point x="745" y="608" type="line"/>
      <point x="439" y="616" type="line"/>
      <point x="439" y="117" type="line"/>
      <point x="707" y="96" type="line"/>
      <point x="707" y="0" type="line"/>
      <point x="87" y="0" type="line"/>
      <point x="87" y="96" type="line"/>
    </contour>
  </outline>
</glyph>
<glyph name="H" format="1">
  <advance width="1496"/>
  <unicode hex="0048"/>
  <note>
	H
  </note>
  <outline>
    <contour>
      <point x="233" y="117" type="line"/>
      <point x="233" y="1219" type="line"/>
      <point x="93" y="1242" type="line"/>
      <point x="93" y="1339" type="line"/>
      <point x="591" y="1339" type="line"/>
      <point x="591" y="1242" type="line"/>
      <point x="440" y="1220" type="line"/>
      <point x="440" y="744" type="line"/>
      <point x="1056" y="744" type="line"/>
      <point x="1056" y="1220" type="line"/>
      <point x="912" y="1242" type="line"/>
      <point x="912" y="1339" type="line"/>
      <point x="1404" y="1339" type="line"/>
      <point x="1404" y="1242" type="line"/>
      <point x="1263" y="1220" type="line"/>
      <point x="1263" y="116" type="line"/>
      <point x="1404" y="96" type="line"/>
      <point x="1404" y="0" type="line"/>
      <point x="913" y="0" type="line"/>
      <point x="913" y="96" type="line"/>
      <point x="1056" y="116" type="line"/>
      <point x="1056" y="628" type="line"/>
      <point x="440" y="628" type="line"/>
      <point x="440" y="117" type="line"/>
      <point x="591" y="96" type="line"/>
      <point x="591" y="0" type="line"/>
      <point x="88" y="0" type="line"/>
      <point x="88" y="96" type="line"/>
    </contour>
  </outline>
</glyph>
<glyph name="J" format="1">
  <advance width="686"/>
  <unicode hex="004A"/>
  <note>
	J
  </note>
  <outline>
    <contour>
      <point x="-11" y="-243" type="line"/>
      <point x="48" y="-227"/>
      <point x="111" y="-182"/>
      <point x="161" y="-114" type="curve" smooth="yes"/>
      <point x="211" y="-47"/>
      <point x="235" y="38"/>
      <point x="246" y="157" type="curve" smooth="yes"/>
      <point x="251" y="216"/>
      <point x="254" y="306"/>
      <point x="254" y="427" type="curve" smooth="yes"/>
      <point x="254" y="1219" type="line"/>
      <point x="89" y="1242" type="line"/>
      <point x="89" y="1339" type="line"/>
      <point x="619" y="1339" type="line"/>
      <point x="619" y="1242" type="line"/>
      <point x="459" y="1219" type="line"/>
      <point x="459" y="497" type="line"/>
      <point x="459" y="396" type="line" smooth="yes"/>
      <point x="459" y="221"/>
      <point x="455" y="120"/>
      <point x="438" y="40" type="curve" smooth="yes"/>
      <point x="409" y="-96"/>
      <point x="321" y="-198"/>
      <point x="211" y="-259" type="curve" smooth="yes"/>
      <point x="156" y="-290"/>
      <point x="99" y="-311"/>
      <point x="40" y="-324" type="curve"/>
    </contour>
  </outline>
</glyph>
<glyph name="K" format="1">
  <advance width="1310"/>
  <unicode hex="004B"/>
  <note>
	K
  </note>
  <outline>
    <contour>
      <point x="1041" y="0" type="line" smooth="yes"/>
      <point x="1020" y="0"/>
      <point x="993" y="25"/>
      <point x="961" y="75" type="curve" smooth="yes"/>
      <point x="929" y="125"/>
      <point x="885" y="201"/>
      <point x="830" y="304" type="curve" smooth="yes"/>
      <point x="735" y="480"/>
      <point x="676" y="585"/>
      <point x="616" y="652" type="curve"/>
      <point x="441" y="451" type="line"/>
      <point x="441" y="116" type="line"/>
      <point x="606" y="95" type="line"/>
      <point x="606" y="0" type="line"/>
      <point x="85" y="0" type="line"/>
      <point x="85" y="96" type="line"/>
      <point x="234" y="117" type="line"/>
      <point x="234" y="1220" type="line"/>
      <point x="89" y="1242" type="line"/>
      <point x="89" y="1339" type="line"/>
      <point x="583" y="1339" type="line"/>
      <point x="583" y="1242" type="line"/>
      <point x="441" y="1219" type="line"/>
      <point x="441" y="603" type="line"/>
      <point x="950" y="1220" type="line"/>
      <point x="804" y="1242" type="line"/>
      <point x="803" y="1339" type="line"/>
      <point x="1252" y="1339" type="line"/>
      <point x="1252" y="1243" type="line"/>
      <point x="1115" y="1220" type="line"/>
      <point x="737" y="792" type="line"/>
      <point x="817" y="721"/>
      <point x="909" y="586"/>
      <point x="1038" y="379" type="curve" smooth="yes"/>
      <point x="1093" y="290"/>
      <point x="1136" y="225"/>
      <point x="1165" y="184" type="curve" smooth="yes"/>
      <point x="1194" y="142"/>
      <point x="1217" y="120"/>
      <point x="1232" y="117" type="curve"/>
      <point x="1311" y="95" type="line"/>
      <point x="1311" y="0" type="line"/>
    </contour>
  </outline>
</glyph>
<glyph name="L" format="1">
  <advance width="1144"/>
  <unicode hex="004C"/>
  <note>
	L
  </note>
  <outline>
    <contour>
      <point x="234" y="117" type="line"/>
      <point x="234" y="1220" type="line"/>
      <point x="89" y="1242" type="line"/>
      <point x="89" y="1339" type="line"/>
      <point x="612" y="1339" type="line"/>
      <point x="612" y="1242" type="line"/>
      <point x="443" y="1219" type="line"/>
      <point x="443" y="116" type="line"/>
      <point x="887" y="134" type="line"/>
      <point x="994" y="428" type="line"/>
      <point x="1112" y="407" type="line"/>
      <point x="1052" y="0" type="line"/>
      <point x="86" y="0" type="line"/>
      <point x="86" y="96" type="line"/>
    </contour>
  </outline>
</glyph>
<glyph name="M" format="1">
  <advance width="1800"/>
  <unicode hex="004D"/>
  <note>
	M
  </note>
  <outline>
    <contour>
      <point x="158" y="116" type="line"/>
      <point x="290" y="1220" type="line"/>
      <point x="101" y="1242" type="line"/>
      <point x="101" y="1339" type="line"/>
      <point x="582" y="1339" type="line"/>
      <point x="858" y="532" type="line"/>
      <point x="904" y="330" type="line"/>
      <point x="943" y="532" type="line"/>
      <point x="1187" y="1339" type="line"/>
      <point x="1668" y="1339" type="line"/>
      <point x="1668" y="1242" type="line"/>
      <point x="1472" y="1219" type="line"/>
      <point x="1643" y="117" type="line"/>
      <point x="1800" y="96" type="line"/>
      <point x="1800" y="0" type="line"/>
      <point x="1278" y="0" type="line"/>
      <point x="1278" y="96" type="line"/>
      <point x="1434" y="116" type="line"/>
      <point x="1323" y="915" type="line"/>
      <point x="1284" y="1266" type="line"/>
      <point x="1223" y="1025" type="line"/>
      <point x="936" y="60" type="line"/>
      <point x="823" y="60" type="line"/>
      <point x="505" y="927" type="line"/>
      <point x="407" y="1265" type="line"/>
      <point x="379" y="916" type="line"/>
      <point x="308" y="117" type="line"/>
      <point x="481" y="96" type="line"/>
      <point x="481" y="0" type="line"/>
      <point x="1" y="0" type="line"/>
      <point x="1" y="96" type="line"/>
    </contour>
  </outline>
</glyph>
<glyph name="N" format="1">
  <advance width="1441"/>
  <unicode hex="004E"/>
  <note>
	N
  </note>
  <outline>
    <contour>
      <point x="231" y="116" type="line"/>
      <point x="231" y="1219" type="line"/>
      <point x="86" y="1242" type="line"/>
      <point x="86" y="1339" type="line"/>
      <point x="434" y="1339" type="line"/>
      <point x="1026" y="474" type="line"/>
      <point x="1119" y="300" type="line"/>
      <point x="1119" y="1220" type="line"/>
      <point x="962" y="1242" type="line"/>
      <point x="962" y="1339" type="line"/>
      <point x="1398" y="1339" type="line"/>
      <point x="1398" y="1242" type="line"/>
      <point x="1252" y="1219" type="line"/>
      <point x="1252" y="0" type="line"/>
      <point x="1108" y="0" type="line"/>
      <point x="502" y="883" type="line"/>
      <point x="364" y="1122" type="line"/>
      <point x="364" y="117" type="line"/>
      <point x="532" y="96" type="line"/>
      <point x="532" y="0" type="line"/>
      <point x="86" y="0" type="line"/>
      <point x="86" y="96" type="line"/>
    </contour>
  </outline>
</glyph>
<glyph name="Q" format="1">
  <advance width="1321"/>
  <unicode hex="0051"/>
  <note>
	Q
  </note>
  <outline>
    <contour>
      <point x="67" y="937"/>
      <point x="179" y="1155"/>
      <point x="364" y="1269" type="curve" smooth="yes"/>
      <point x="456" y="1326"/>
      <point x="560" y="1354"/>
      <point x="676" y="1354" type="curve" smooth="yes"/>
      <point x="927" y="1354"/>
      <point x="1102" y="1240"/>
      <point x="1188" y="1040" type="curve" smooth="yes"/>
      <point x="1231" y="939"/>
      <point x="1252" y="821"/>
      <point x="1252" y="684" type="curve" smooth="yes"/>
      <point x="1252" y="481"/>
      <point x="1193" y="308"/>
      <point x="1089" y="185" type="curve" smooth="yes"/>
      <point x="1036" y="123"/>
      <point x="975" y="75"/>
      <point x="905" y="40" type="curve"/>
      <point x="977" y="37"/>
      <point x="1058" y="7"/>
      <point x="1127" y="-28" type="curve" smooth="yes"/>
      <point x="1162" y="-45"/>
      <point x="1206" y="-69"/>
      <point x="1261" y="-99" type="curve" smooth="yes"/>
      <point x="1402" y="-180"/>
      <point x="1486" y="-221"/>
      <point x="1566" y="-221" type="curve" smooth="yes"/>
      <point x="1568" y="-221" type="line" smooth="yes"/>
      <point x="1593" y="-221"/>
      <point x="1609" y="-221"/>
      <point x="1617" y="-220" type="curve"/>
      <point x="1646" y="-317" type="line"/>
      <point x="1607" y="-346"/>
      <point x="1556" y="-374"/>
      <point x="1459" y="-374" type="curve" smooth="yes"/>
      <point x="1449" y="-374" type="line" smooth="yes"/>
      <point x="1341" y="-374"/>
      <point x="1246" y="-332"/>
      <point x="1173" y="-278" type="curve" smooth="yes"/>
      <point x="1136" y="-251"/>
      <point x="1093" y="-216"/>
      <point x="1043" y="-172" type="curve" smooth="yes"/>
      <point x="963" y="-104"/>
      <point x="920" y="-68"/>
      <point x="858" y="-37" type="curve" smooth="yes"/>
      <point x="827" y="-22"/>
      <point x="795" y="-12"/>
      <point x="763" y="-8" type="curve"/>
      <point x="721" y="-16"/>
      <point x="679" y="-20"/>
      <point x="636" y="-20" type="curve" smooth="yes"/>
      <point x="392" y="-20"/>
      <point x="219" y="99"/>
      <point x="132" y="304" type="curve" smooth="yes"/>
      <point x="89" y="406"/>
      <point x="67" y="525"/>
      <point x="67" y="660" type="curve" smooth="yes"/>
    </contour>
    <contour>
      <point x="296" y="426"/>
      <point x="355" y="247"/>
      <point x="464" y="154" type="curve" smooth="yes"/>
      <point x="519" y="107"/>
      <point x="584" y="84"/>
      <point x="660" y="84" type="curve" smooth="yes"/>
      <point x="809" y="84"/>
      <point x="920" y="172"/>
      <point x="980" y="352" type="curve" smooth="yes"/>
      <point x="1009" y="441"/>
      <point x="1024" y="552"/>
      <point x="1024" y="683" type="curve" smooth="yes"/>
      <point x="1024" y="918"/>
      <point x="966" y="1092"/>
      <point x="857" y="1183" type="curve" smooth="yes"/>
      <point x="802" y="1228"/>
      <point x="737" y="1251"/>
      <point x="661" y="1251" type="curve" smooth="yes"/>
      <point x="510" y="1251"/>
      <point x="400" y="1166"/>
      <point x="341" y="990" type="curve" smooth="yes"/>
      <point x="311" y="902"/>
      <point x="296" y="792"/>
      <point x="296" y="661" type="curve" smooth="yes"/>
    </contour>
  </outline>
</glyph>
<glyph name="R" format="1">
  <advance width="1267"/>
  <unicode hex="0052"/>
  <note>
	R
  </note>
  <outline>
    <contour>
      <point x="232" y="115" type="line"/>
      <point x="232" y="1221" type="line"/>
      <point x="93" y="1243" type="line"/>
      <point x="93" y="1339" type="line"/>
      <point x="335" y="1339" type="line" smooth="yes"/>
      <point x="387" y="1339"/>
      <point x="454" y="1345"/>
      <point x="471" y="1346" type="curve" smooth="yes"/>
      <point x="531" y="1351"/>
      <point x="578" y="1353"/>
      <point x="612" y="1353" type="curve" smooth="yes"/>
      <point x="849" y="1353"/>
      <point x="989" y="1301"/>
      <point x="1053" y="1198" type="curve" smooth="yes"/>
      <point x="1085" y="1146"/>
      <point x="1101" y="1080"/>
      <point x="1101" y="999" type="curve" smooth="yes"/>
      <point x="1101" y="890"/>
      <point x="1058" y="782"/>
      <point x="979" y="706" type="curve" smooth="yes"/>
      <point x="940" y="667"/>
      <point x="893" y="639"/>
      <point x="838" y="622" type="curve"/>
      <point x="889" y="593"/>
      <point x="940" y="526"/>
      <point x="981" y="456" type="curve" smooth="yes"/>
      <point x="1001" y="421"/>
      <point x="1026" y="375"/>
      <point x="1056" y="320" type="curve" smooth="yes"/>
      <point x="1091" y="254"/>
      <point x="1120" y="205"/>
      <point x="1141" y="172" type="curve" smooth="yes"/>
      <point x="1162" y="139"/>
      <point x="1182" y="121"/>
      <point x="1201" y="116" type="curve"/>
      <point x="1270" y="95" type="line"/>
      <point x="1270" y="0" type="line"/>
      <point x="1009" y="0" type="line" smooth="yes"/>
      <point x="989" y="0"/>
      <point x="967" y="21"/>
      <point x="944" y="63" type="curve" smooth="yes"/>
      <point x="920" y="104"/>
      <point x="888" y="169"/>
      <point x="848" y="257" type="curve" smooth="yes"/>
      <point x="807" y="350"/>
      <point x="771" y="424"/>
      <point x="741" y="478" type="curve" smooth="yes"/>
      <point x="711" y="532"/>
      <point x="681" y="568"/>
      <point x="651" y="586" type="curve"/>
      <point x="534" y="586"/>
      <point x="463" y="587"/>
      <point x="438" y="589" type="curve"/>
      <point x="438" y="115" type="line"/>
      <point x="612" y="96" type="line"/>
      <point x="612" y="0" type="line"/>
      <point x="84" y="0" type="line"/>
      <point x="84" y="96" type="line"/>
    </contour>
    <contour>
      <point x="637" y="690" type="line" smooth="yes"/>
      <point x="789" y="690"/>
      <point x="876" y="789"/>
      <point x="876" y="985" type="curve" smooth="yes"/>
      <point x="876" y="1153"/>
      <point x="799" y="1250"/>
      <point x="590" y="1250" type="curve" smooth="yes"/>
      <point x="545" y="1250"/>
      <point x="504" y="1247"/>
      <point x="466" y="1242" type="curve" smooth="yes"/>
      <point x="438" y="1239" type="line"/>
      <point x="438" y="692" type="line"/>
      <point x="457" y="690"/>
      <point x="486" y="689"/>
      <point x="527" y="689" type="curve" smooth="yes"/>
    </contour>
  </outline>
</glyph>
<glyph name="V" format="1">
  <advance width="1202"/>
  <unicode hex="0056"/>
  <note>
	V
  </note>
  <outline>
    <contour>
      <point x="-30" y="1242" type="line"/>
      <point x="-30" y="1339" type="line"/>
      <point x="464" y="1339" type="line"/>
      <point x="464" y="1242" type="line"/>
      <point x="302" y="1220" type="line"/>
      <point x="591" y="381" type="line"/>
      <point x="651" y="176" type="line"/>
      <point x="703" y="384" type="line"/>
      <point x="970" y="1219" type="line"/>
      <point x="832" y="1242" type="line"/>
      <point x="832" y="1339" type="line"/>
      <point x="1239" y="1339" type="line"/>
      <point x="1239" y="1242" type="line"/>
      <point x="1123" y="1219" type="line"/>
      <point x="699" y="-13" type="line"/>
      <point x="533" y="-13" type="line"/>
      <point x="82" y="1219" type="line"/>
    </contour>
  </outline>
</glyph>
<glyph name="X" format="1">
  <advance width="1286"/>
  <unicode hex="0058"/>
  <note>
	X
  </note>
  <outline>
    <contour>
      <point x="165" y="116" type="line"/>
      <point x="538" y="669" type="line"/>
      <point x="169" y="1219" type="line"/>
      <point x="37" y="1242" type="line"/>
      <point x="37" y="1339" type="line"/>
      <point x="576" y="1339" type="line"/>
      <point x="576" y="1242" type="line"/>
      <point x="417" y="1219" type="line"/>
      <point x="689" y="779" type="line"/>
      <point x="958" y="1219" type="line"/>
      <point x="806" y="1242" type="line"/>
      <point x="806" y="1339" type="line"/>
      <point x="1253" y="1339" type="line"/>
      <point x="1253" y="1242" type="line"/>
      <point x="1112" y="1219" type="line"/>
      <point x="752" y="704" type="line"/>
      <point x="1150" y="116" type="line"/>
      <point x="1287" y="96" type="line"/>
      <point x="1287" y="0" type="line"/>
      <point x="748" y="0" type="line"/>
      <point x="748" y="96" type="line"/>
      <point x="901" y="117" type="line"/>
      <point x="603" y="592" type="line"/>
      <point x="324" y="116" type="line"/>
      <point x="496" y="96" type="line"/>
      <point x="496" y="0" type="line"/>
      <point x="11" y="0" type="line"/>
      <point x="11" y="96" type="line"/>
    </contour>
  </outline>
</glyph>
<glyph name="Y" format="1">
  <advance width="1158"/>
  <unicode hex="0059"/>
  <note>
	Y
  </note>
  <outline>
    <contour>
      <point x="486" y="117" type="line"/>
      <point x="486" y="521" type="line"/>
      <point x="88" y="1218" type="line"/>
      <point x="-25" y="1242" type="line"/>
      <point x="-25" y="1339" type="line"/>
      <point x="458" y="1339" type="line"/>
      <point x="458" y="1242" type="line"/>
      <point x="321" y="1219" type="line"/>
      <point x="569" y="741" type="line"/>
      <point x="620" y="613" type="line"/>
      <point x="677" y="739" type="line"/>
      <point x="913" y="1220" type="line"/>
      <point x="770" y="1242" type="line"/>
      <point x="770" y="1339" type="line"/>
      <point x="1186" y="1339" type="line"/>
      <point x="1186" y="1242" type="line"/>
      <point x="1069" y="1220" type="line"/>
      <point x="700" y="525" type="line"/>
      <point x="700" y="116" type="line"/>
      <point x="897" y="96" type="line"/>
      <point x="897" y="0" type="line"/>
      <point x="293" y="0" type="line"/>
      <point x="293" y="96" type="line"/>
    </contour>
  </outline>
</glyph>
<glyph name="Z" format="1">
  <advance width="1184"/>
  <unicode hex="005A"/>
  <note>
	Z
  </note>
  <outline>
    <contour>
      <point x="755" y="1125" type="line"/>
      <point x="854" y="1244" type="line"/>
      <point x="349" y="1225" type="line"/>
      <point x="251" y="992" type="line"/>
      <point x="141" y="1007" type="line"/>
      <point x="180" y="1345" type="line"/>
      <point x="1053" y="1345" type="line"/>
      <point x="1098" y="1260" type="line"/>
      <point x="412" y="224" type="line"/>
      <point x="299" y="103" type="line"/>
      <point x="891" y="137" type="line"/>
      <point x="991" y="410" type="line"/>
      <point x="1105" y="387" type="line"/>
      <point x="1063" y="0" type="line"/>
      <point x="109" y="0" type="line"/>
      <point x="57" y="86" type="line"/>
    </contour>
  </outline>
</glyph>
<glyph name="bracketleft" format="1">
  <advance width="768"/>
  <unicode hex="005B"/>
  <note>
	bracketleft
  </note>
  <outline>
    <contour>
      <point x="168" y="1258" type="line" smooth="yes"/>
      <point x="168" y="1365"/>
      <point x="192" y="1415"/>
      <point x="244" y="1435" type="curve" smooth="yes"/>
      <point x="269" y="1444"/>
      <point x="306" y="1449"/>
      <point x="353" y="1449" type="curve" smooth="yes"/>
      <point x="438" y="1449"/>
      <point x="503" y="1437"/>
      <point x="607" y="1413" type="curve"/>
      <point x="607" y="1331" type="line"/>
      <point x="346" y="1331" type="line"/>
      <point x="346" y="-127" type="line"/>
      <point x="607" y="-127" type="line"/>
      <point x="607" y="-210" type="line"/>
      <point x="520" y="-234"/>
      <point x="441" y="-247"/>
      <point x="353" y="-247" type="curve" smooth="yes"/>
      <point x="260" y="-247"/>
      <point x="211" y="-232"/>
      <point x="187" y="-177" type="curve"/>
      <point x="174" y="-150"/>
      <point x="168" y="-109"/>
      <point x="168" y="-55" type="curve" smooth="yes"/>
    </contour>
  </outline>
</glyph>
<glyph name="backslash" format="1">
  <advance width="776"/>
  <unicode hex="005C"/>
  <note>
	backslash
  </note>
  <outline>
    <contour>
      <point x="705" y="-319" type="line"/>
      <point x="536" y="-319" type="line"/>
      <point x="52" y="1407" type="line"/>
      <point x="221" y="1407" type="line"/>
    </contour>
  </outline>
</glyph>
<glyph name="bracketright" format="1">
  <advance width="768"/>
  <unicode hex="005D"/>
  <note>
	bracketright
  </note>
  <outline>
    <contour>
      <point x="600" y="-55" type="line" smooth="yes"/>
      <point x="600" y="-163"/>
      <point x="576" y="-213"/>
      <point x="524" y="-232" type="curve" smooth="yes"/>
      <point x="498" y="-242"/>
      <point x="462" y="-247"/>
      <point x="415" y="-247" type="curve" smooth="yes"/>
      <point x="327" y="-247"/>
      <point x="248" y="-234"/>
      <point x="161" y="-210" type="curve"/>
      <point x="161" y="-127" type="line"/>
      <point x="422" y="-127" type="line"/>
      <point x="422" y="1331" type="line"/>
      <point x="161" y="1331" type="line"/>
      <point x="161" y="1413" type="line"/>
      <point x="265" y="1437"/>
      <point x="330" y="1449"/>
      <point x="415" y="1449" type="curve" smooth="yes"/>
      <point x="510" y="1449"/>
      <point x="557" y="1434"/>
      <point x="582" y="1379" type="curve" smooth="yes"/>
      <point x="594" y="1352"/>
      <point x="600" y="1311"/>
      <point x="600" y="1258" type="curve" smooth="yes"/>
    </contour>
  </outline>
</glyph>
<glyph name="asciicircum" format="1">
  <advance width="1199"/>
  <unicode hex="005E"/>
  <note>
	asciicircum
  </note>
  <outline>
    <contour>
      <point x="686" y="1347" type="line"/>
      <point x="1041" y="239" type="line"/>
      <point x="856" y="239" type="line"/>
      <point x="598" y="1151" type="line"/>
      <point x="341" y="239" type="line"/>
      <point x="158" y="239" type="line"/>
      <point x="510" y="1347" type="line"/>
    </contour>
  </outline>
</glyph>
<glyph name="grave" format="1">
  <advance width="599"/>
  <unicode hex="0060"/>
  <note>
	grave
  </note>
  <outline>
    <contour>
      <point x="128" y="1596" type="line"/>
      <point x="128" y="1596" type="line"/>
      <point x="419" y="1239" type="line"/>
      <point x="347" y="1174" type="line"/>
      <point x="346" y="1174" type="line"/>
      <point x="294" y="1193"/>
      <point x="177" y="1280"/>
      <point x="82" y="1368" type="curve" smooth="yes"/>
      <point x="35" y="1412"/>
      <point x="3" y="1447"/>
      <point x="-12" y="1474" type="curve"/>
    </contour>
  </outline>
</glyph>
<glyph name="f" format="1">
  <advance width="728"/>
  <unicode hex="0066"/>
  <note>
	f
  </note>
  <outline>
    <contour>
      <point x="227" y="112" type="line"/>
      <point x="227" y="872" type="line"/>
      <point x="59" y="872" type="line"/>
      <point x="59" y="959" type="line"/>
      <point x="227" y="999" type="line"/>
      <point x="227" y="1082" type="line" smooth="yes"/>
      <point x="227" y="1231"/>
      <point x="316" y="1364"/>
      <point x="446" y="1437" type="curve" smooth="yes"/>
      <point x="511" y="1474"/>
      <point x="578" y="1492"/>
      <point x="647" y="1492" type="curve" smooth="yes"/>
      <point x="699" y="1492"/>
      <point x="723" y="1487"/>
      <point x="752" y="1478" type="curve"/>
      <point x="752" y="1281" type="line"/>
      <point x="728" y="1302"/>
      <point x="658" y="1327"/>
      <point x="582" y="1327" type="curve" smooth="yes"/>
      <point x="503" y="1327"/>
      <point x="462" y="1310"/>
      <point x="443" y="1259" type="curve" smooth="yes"/>
      <point x="433" y="1234"/>
      <point x="428" y="1198"/>
      <point x="428" y="1151" type="curve" smooth="yes"/>
      <point x="429" y="999" type="line"/>
      <point x="671" y="999" type="line"/>
      <point x="671" y="872" type="line"/>
      <point x="429" y="872" type="line"/>
      <point x="429" y="111" type="line"/>
      <point x="620" y="95" type="line"/>
      <point x="620" y="0" type="line"/>
      <point x="78" y="0" type="line"/>
      <point x="78" y="95" type="line"/>
    </contour>
  </outline>
</glyph>
<glyph name="h" format="1">
  <advance width="1193"/>
  <unicode hex="0068"/>
  <note>
	h
  </note>
  <outline>
    <contour>
      <point x="184" y="110" type="line"/>
      <point x="184" y="1338" type="line"/>
      <point x="39" y="1356" type="line"/>
      <point x="39" y="1440" type="line"/>
      <point x="337" y="1478" type="line"/>
      <point x="341" y="1478" type="line"/>
      <point x="384" y="1448" type="line"/>
      <point x="385" y="1039" type="line"/>
      <point x="377" y="882" type="line"/>
      <point x="456" y="953"/>
      <point x="596" y="1023"/>
      <point x="732" y="1023" type="curve" smooth="yes"/>
      <point x="883" y="1023"/>
      <point x="963" y="967"/>
      <point x="996" y="848" type="curve" smooth="yes"/>
      <point x="1013" y="789"/>
      <point x="1021" y="709"/>
      <point x="1021" y="608" type="curve" smooth="yes"/>
      <point x="1021" y="111" type="line"/>
      <point x="1148" y="96" type="line"/>
      <point x="1148" y="0" type="line"/>
      <point x="705" y="0" type="line"/>
      <point x="705" y="95" type="line"/>
      <point x="820" y="110" type="line"/>
      <point x="820" y="609" type="line" smooth="yes"/>
      <point x="820" y="745"/>
      <point x="806" y="818"/>
      <point x="754" y="858" type="curve" smooth="yes"/>
      <point x="728" y="877"/>
      <point x="690" y="887"/>
      <point x="641" y="887" type="curve" smooth="yes"/>
      <point x="556" y="887"/>
      <point x="456" y="848"/>
      <point x="385" y="796" type="curve"/>
      <point x="385" y="111" type="line"/>
      <point x="510" y="96" type="line"/>
      <point x="510" y="0" type="line"/>
      <point x="78" y="0" type="line"/>
      <point x="78" y="96" type="line"/>
    </contour>
  </outline>
</glyph>
<glyph name="k" format="1">
  <advance width="1092"/>
  <unicode hex="006B"/>
  <note>
	k
  </note>
  <outline>
    <contour>
      <point x="183" y="111" type="line"/>
      <point x="183" y="1338" type="line"/>
      <point x="46" y="1356" type="line"/>
      <point x="46" y="1440" type="line"/>
      <point x="339" y="1478" type="line"/>
      <point x="341" y="1478" type="line"/>
      <point x="384" y="1448" type="line"/>
      <point x="384" y="576" type="line"/>
      <point x="380" y="476" type="line"/>
      <point x="773" y="885" type="line"/>
      <point x="631" y="911" type="line"/>
      <point x="631" y="1001" type="line"/>
      <point x="1079" y="1001" type="line"/>
      <point x="1079" y="911" type="line"/>
      <point x="941" y="881" type="line"/>
      <point x="685" y="631" type="line"/>
      <point x="1030" y="111" type="line"/>
      <point x="1135" y="96" type="line"/>
      <point x="1135" y="0" type="line"/>
      <point x="694" y="0" type="line"/>
      <point x="694" y="95" type="line"/>
      <point x="800" y="112" type="line"/>
      <point x="552" y="514" type="line"/>
      <point x="379" y="343" type="line"/>
      <point x="384" y="250" type="line"/>
      <point x="384" y="111" type="line"/>
      <point x="510" y="95" type="line"/>
      <point x="510" y="0" type="line"/>
      <point x="68" y="0" type="line"/>
      <point x="68" y="96" type="line"/>
    </contour>
  </outline>
</glyph>
<glyph name="l" format="1">
  <advance width="605"/>
  <unicode hex="006C"/>
  <note>
	l
  </note>
  <outline>
    <contour>
      <point x="207" y="111" type="line"/>
      <point x="207" y="1338" type="line"/>
      <point x="62" y="1356" type="line"/>
      <point x="62" y="1440" type="line"/>
      <point x="363" y="1478" type="line"/>
      <point x="364" y="1478" type="line"/>
      <point x="407" y="1448" type="line"/>
      <point x="407" y="111" type="line"/>
      <point x="557" y="96" type="line"/>
      <point x="557" y="0" type="line"/>
      <point x="64" y="0" type="line"/>
      <point x="64" y="96" type="line"/>
    </contour>
  </outline>
</glyph>
<glyph name="m" format="1">
  <advance width="1807"/>
  <unicode hex="006D"/>
  <note>
	m
  </note>
  <outline>
    <contour>
      <point x="205" y="110" type="line"/>
      <point x="205" y="848" type="line"/>
      <point x="79" y="884" type="line"/>
      <point x="79" y="989" type="line"/>
      <point x="339" y="1024" type="line"/>
      <point x="343" y="1024" type="line"/>
      <point x="385" y="990" type="line"/>
      <point x="385" y="919" type="line"/>
      <point x="384" y="878" type="line"/>
      <point x="436" y="926"/>
      <point x="526" y="974"/>
      <point x="619" y="1002" type="curve" smooth="yes"/>
      <point x="666" y="1016"/>
      <point x="708" y="1023"/>
      <point x="746" y="1023" type="curve" smooth="yes"/>
      <point x="875" y="1023"/>
      <point x="951" y="981"/>
      <point x="992" y="890" type="curve"/>
      <point x="1037" y="930"/>
      <point x="1124" y="975"/>
      <point x="1216" y="1003" type="curve" smooth="yes"/>
      <point x="1261" y="1016"/>
      <point x="1304" y="1023"/>
      <point x="1343" y="1023" type="curve" smooth="yes"/>
      <point x="1495" y="1023"/>
      <point x="1576" y="968"/>
      <point x="1610" y="850" type="curve" smooth="yes"/>
      <point x="1627" y="791"/>
      <point x="1635" y="711"/>
      <point x="1635" y="611" type="curve" smooth="yes"/>
      <point x="1635" y="110" type="line"/>
      <point x="1761" y="95" type="line"/>
      <point x="1761" y="0" type="line"/>
      <point x="1330" y="0" type="line"/>
      <point x="1330" y="95" type="line"/>
      <point x="1434" y="111" type="line"/>
      <point x="1434" y="605" type="line" smooth="yes"/>
      <point x="1434" y="742"/>
      <point x="1418" y="817"/>
      <point x="1363" y="858" type="curve" smooth="yes"/>
      <point x="1335" y="878"/>
      <point x="1295" y="888"/>
      <point x="1243" y="888" type="curve" smooth="yes"/>
      <point x="1172" y="888"/>
      <point x="1078" y="850"/>
      <point x="1017" y="806" type="curve"/>
      <point x="1028" y="755"/>
      <point x="1033" y="689"/>
      <point x="1033" y="608" type="curve" smooth="yes"/>
      <point x="1033" y="111" type="line"/>
      <point x="1162" y="95" type="line"/>
      <point x="1162" y="0" type="line"/>
      <point x="715" y="0" type="line"/>
      <point x="715" y="95" type="line"/>
      <point x="832" y="111" type="line"/>
      <point x="832" y="609" type="line" smooth="yes"/>
      <point x="832" y="746"/>
      <point x="818" y="818"/>
      <point x="767" y="858" type="curve" smooth="yes"/>
      <point x="742" y="877"/>
      <point x="704" y="887"/>
      <point x="655" y="887" type="curve" smooth="yes"/>
      <point x="572" y="887"/>
      <point x="475" y="847"/>
      <point x="407" y="796" type="curve"/>
      <point x="407" y="111" type="line"/>
      <point x="524" y="95" type="line"/>
      <point x="524" y="0" type="line"/>
      <point x="95" y="0" type="line"/>
      <point x="95" y="95" type="line"/>
    </contour>
  </outline>
</glyph>
<glyph name="q" format="1">
  <advance width="1097"/>
  <unicode hex="0071"/>
  <note>
	q
  </note>
  <outline>
    <contour>
      <point x="75" y="685"/>
      <point x="161" y="860"/>
      <point x="318" y="956" type="curve" smooth="yes"/>
      <point x="397" y="1004"/>
      <point x="489" y="1028"/>
      <point x="594" y="1028" type="curve" smooth="yes"/>
      <point x="667" y="1028"/>
      <point x="749" y="1013"/>
      <point x="816" y="996" type="curve"/>
      <point x="913" y="1024" type="line"/>
      <point x="915" y="1024" type="line"/>
      <point x="953" y="990" type="line"/>
      <point x="953" y="-324" type="line"/>
      <point x="1075" y="-344" type="line"/>
      <point x="1075" y="-436" type="line"/>
      <point x="563" y="-436" type="line"/>
      <point x="563" y="-344" type="line"/>
      <point x="753" y="-324" type="line"/>
      <point x="753" y="-42" type="line"/>
      <point x="759" y="106" type="line"/>
      <point x="690" y="33"/>
      <point x="588" y="-20"/>
      <point x="468" y="-20" type="curve" smooth="yes"/>
      <point x="327" y="-20"/>
      <point x="201" y="52"/>
      <point x="129" y="202" type="curve" smooth="yes"/>
      <point x="93" y="277"/>
      <point x="75" y="369"/>
      <point x="75" y="480" type="curve" smooth="yes"/>
    </contour>
    <contour>
      <point x="753" y="873" type="line"/>
      <point x="740" y="901"/>
      <point x="662" y="928"/>
      <point x="582" y="928" type="curve" smooth="yes"/>
      <point x="407" y="928"/>
      <point x="290" y="794"/>
      <point x="290" y="498" type="curve" smooth="yes"/>
      <point x="290" y="327"/>
      <point x="339" y="210"/>
      <point x="417" y="154" type="curve" smooth="yes"/>
      <point x="456" y="126"/>
      <point x="500" y="112"/>
      <point x="549" y="112" type="curve" smooth="yes"/>
      <point x="633" y="112"/>
      <point x="709" y="154"/>
      <point x="753" y="202" type="curve"/>
    </contour>
  </outline>
</glyph>
<glyph name="r" format="1">
  <advance width="829"/>
  <unicode hex="0072"/>
  <note>
	r
  </note>
  <outline>
    <contour>
      <point x="220" y="109" type="line"/>
      <point x="220" y="848" type="line"/>
      <point x="95" y="884" type="line"/>
      <point x="95" y="989" type="line"/>
      <point x="347" y="1024" type="line"/>
      <point x="351" y="1024" type="line"/>
      <point x="393" y="990" type="line"/>
      <point x="393" y="935" type="line"/>
      <point x="392" y="820" type="line"/>
      <point x="393" y="820" type="line"/>
      <point x="414" y="859"/>
      <point x="476" y="934"/>
      <point x="572" y="988" type="curve" smooth="yes"/>
      <point x="619" y="1015"/>
      <point x="671" y="1028"/>
      <point x="728" y="1028" type="curve" smooth="yes"/>
      <point x="751" y="1028"/>
      <point x="770" y="1025"/>
      <point x="786" y="1018" type="curve"/>
      <point x="786" y="802" type="line"/>
      <point x="763" y="814"/>
      <point x="725" y="825"/>
      <point x="682" y="825" type="curve" smooth="yes"/>
      <point x="563" y="825"/>
      <point x="478" y="792"/>
      <point x="421" y="749" type="curve"/>
      <point x="421" y="110" type="line"/>
      <point x="652" y="94" type="line"/>
      <point x="652" y="0" type="line"/>
      <point x="82" y="0" type="line"/>
      <point x="82" y="95" type="line"/>
    </contour>
  </outline>
</glyph>
<glyph name="v" format="1">
  <advance width="1028"/>
  <unicode hex="0076"/>
  <note>
	v
  </note>
  <outline>
    <contour>
      <point x="-3" y="907" type="line"/>
      <point x="-3" y="1001" type="line"/>
      <point x="437" y="1001" type="line"/>
      <point x="437" y="907" type="line"/>
      <point x="305" y="884" type="line"/>
      <point x="478" y="387" type="line"/>
      <point x="555" y="150" type="line"/>
      <point x="620" y="378" type="line"/>
      <point x="787" y="884" type="line"/>
      <point x="665" y="907" type="line"/>
      <point x="665" y="1001" type="line"/>
      <point x="1038" y="1001" type="line"/>
      <point x="1038" y="907" type="line"/>
      <point x="946" y="884" type="line"/>
      <point x="606" y="-14" type="line"/>
      <point x="441" y="-14" type="line"/>
      <point x="80" y="884" type="line"/>
    </contour>
  </outline>
</glyph>
<glyph name="w" format="1">
  <advance width="1547"/>
  <unicode hex="0077"/>
  <note>
	w
  </note>
  <outline>
    <contour>
      <point x="-12" y="907" type="line"/>
      <point x="-12" y="1001" type="line"/>
      <point x="429" y="1001" type="line"/>
      <point x="429" y="907" type="line"/>
      <point x="290" y="884" type="line"/>
      <point x="435" y="366" type="line"/>
      <point x="485" y="142" type="line"/>
      <point x="532" y="366" type="line"/>
      <point x="709" y="1001" type="line"/>
      <point x="897" y="1001" type="line"/>
      <point x="1078" y="367" type="line"/>
      <point x="1126" y="143" type="line"/>
      <point x="1179" y="364" type="line"/>
      <point x="1320" y="884" type="line"/>
      <point x="1184" y="907" type="line"/>
      <point x="1184" y="1001" type="line"/>
      <point x="1565" y="1001" type="line"/>
      <point x="1565" y="907" type="line"/>
      <point x="1464" y="884" type="line"/>
      <point x="1189" y="-14" type="line"/>
      <point x="1005" y="-14" type="line"/>
      <point x="815" y="624" type="line"/>
      <point x="770" y="836" type="line"/>
      <point x="736" y="624" type="line"/>
      <point x="553" y="-14" type="line"/>
      <point x="373" y="-14" type="line"/>
      <point x="84" y="884" type="line"/>
    </contour>
  </outline>
</glyph>
<glyph name="z" format="1">
  <advance width="1001"/>
  <unicode hex="007A"/>
  <note>
	z
  </note>
  <outline>
    <contour>
      <point x="693" y="893" type="line"/>
      <point x="283" y="880" type="line"/>
      <point x="249" y="713" type="line"/>
      <point x="128" y="713" type="line"/>
      <point x="128" y="1001" type="line"/>
      <point x="888" y="1001" type="line"/>
      <point x="925" y="920" type="line"/>
      <point x="410" y="219" type="line"/>
      <point x="295" y="106" type="line"/>
      <point x="749" y="126" type="line"/>
      <point x="816" y="317" type="line"/>
      <point x="930" y="304" type="line"/>
      <point x="904" y="0" type="line"/>
      <point x="94" y="0" type="line"/>
      <point x="55" y="83" type="line"/>
      <point x="577" y="777" type="line"/>
    </contour>
  </outline>
</glyph>
<glyph name="braceleft" format="1">
  <advance width="910"/>
  <unicode hex="007B"/>
  <note>
	braceleft
  </note>
  <outline>
    <contour>
      <point x="379" y="468"/>
      <point x="369" y="503"/>
      <point x="305" y="525" type="curve" smooth="yes"/>
      <point x="272" y="536"/>
      <point x="223" y="541"/>
      <point x="156" y="541" type="curve"/>
      <point x="156" y="683" type="line"/>
      <point x="224" y="683"/>
      <point x="274" y="687"/>
      <point x="306" y="695" type="curve" smooth="yes"/>
      <point x="369" y="711"/>
      <point x="379" y="740"/>
      <point x="379" y="803" type="curve" smooth="yes"/>
      <point x="379" y="863"/>
      <point x="361" y="908"/>
      <point x="324" y="995" type="curve" smooth="yes"/>
      <point x="281" y="1090"/>
      <point x="260" y="1149"/>
      <point x="260" y="1226" type="curve" smooth="yes"/>
      <point x="260" y="1375"/>
      <point x="336" y="1451"/>
      <point x="539" y="1451" type="curve" smooth="yes"/>
      <point x="613" y="1451"/>
      <point x="691" y="1440"/>
      <point x="773" y="1419" type="curve"/>
      <point x="773" y="1331" type="line"/>
      <point x="740" y="1332"/>
      <point x="655" y="1333"/>
      <point x="622" y="1333" type="curve" smooth="yes"/>
      <point x="546" y="1333"/>
      <point x="501" y="1320"/>
      <point x="476" y="1280" type="curve" smooth="yes"/>
      <point x="463" y="1260"/>
      <point x="457" y="1231"/>
      <point x="457" y="1192" type="curve" smooth="yes"/>
      <point x="457" y="1147"/>
      <point x="470" y="1098"/>
      <point x="498" y="1011" type="curve" smooth="yes"/>
      <point x="529" y="918"/>
      <point x="546" y="857"/>
      <point x="546" y="797" type="curve" smooth="yes"/>
      <point x="546" y="686"/>
      <point x="462" y="626"/>
      <point x="327" y="605" type="curve"/>
      <point x="473" y="584"/>
      <point x="546" y="518"/>
      <point x="546" y="407" type="curve" smooth="yes"/>
      <point x="546" y="348"/>
      <point x="529" y="287"/>
      <point x="498" y="194" type="curve" smooth="yes"/>
      <point x="471" y="109"/>
      <point x="457" y="60"/>
      <point x="457" y="13" type="curve" smooth="yes"/>
      <point x="457" y="-63"/>
      <point x="483" y="-102"/>
      <point x="530" y="-117" type="curve" smooth="yes"/>
      <point x="553" y="-124"/>
      <point x="584" y="-128"/>
      <point x="622" y="-128" type="curve" smooth="yes"/>
      <point x="657" y="-128"/>
      <point x="740" y="-126"/>
      <point x="773" y="-125" type="curve"/>
      <point x="773" y="-215" type="line"/>
      <point x="691" y="-236"/>
      <point x="613" y="-246"/>
      <point x="539" y="-246" type="curve" smooth="yes"/>
      <point x="335" y="-246"/>
      <point x="260" y="-169"/>
      <point x="260" y="-21" type="curve" smooth="yes"/>
      <point x="260" y="56"/>
      <point x="281" y="113"/>
      <point x="324" y="209" type="curve" smooth="yes"/>
      <point x="361" y="293"/>
      <point x="379" y="341"/>
      <point x="379" y="400" type="curve" smooth="yes"/>
    </contour>
  </outline>
</glyph>
<glyph name="bar" format="1">
  <advance width="761"/>
  <unicode hex="007C"/>
  <note>
	bar
  </note>
  <outline>
    <contour>
      <point x="461" y="1566" type="line"/>
      <point x="461" y="-164" type="line"/>
      <point x="300" y="-164" type="line"/>
      <point x="300" y="1566" type="line"/>
    </contour>
  </outline>
</glyph>
<glyph name="braceright" format="1">
  <advance width="910"/>
  <unicode hex="007D"/>
  <note>
	braceright
  </note>
  <outline>
    <contour>
      <point x="650" y="-169"/>
      <point x="575" y="-246"/>
      <point x="372" y="-246" type="curve" smooth="yes"/>
      <point x="297" y="-246"/>
      <point x="219" y="-236"/>
      <point x="138" y="-215" type="curve"/>
      <point x="138" y="-125" type="line"/>
      <point x="171" y="-126"/>
      <point x="254" y="-128"/>
      <point x="289" y="-128" type="curve" smooth="yes"/>
      <point x="365" y="-128"/>
      <point x="410" y="-116"/>
      <point x="435" y="-75" type="curve" smooth="yes"/>
      <point x="448" y="-54"/>
      <point x="454" y="-25"/>
      <point x="454" y="13" type="curve" smooth="yes"/>
      <point x="454" y="60"/>
      <point x="440" y="109"/>
      <point x="413" y="194" type="curve" smooth="yes"/>
      <point x="382" y="287"/>
      <point x="365" y="348"/>
      <point x="365" y="407" type="curve" smooth="yes"/>
      <point x="365" y="518"/>
      <point x="438" y="584"/>
      <point x="583" y="605" type="curve"/>
      <point x="450" y="626"/>
      <point x="365" y="686"/>
      <point x="365" y="797" type="curve" smooth="yes"/>
      <point x="365" y="857"/>
      <point x="382" y="918"/>
      <point x="413" y="1011" type="curve" smooth="yes"/>
      <point x="441" y="1098"/>
      <point x="454" y="1147"/>
      <point x="454" y="1192" type="curve" smooth="yes"/>
      <point x="454" y="1269"/>
      <point x="428" y="1306"/>
      <point x="381" y="1322" type="curve" smooth="yes"/>
      <point x="358" y="1329"/>
      <point x="327" y="1333"/>
      <point x="289" y="1333" type="curve" smooth="yes"/>
      <point x="256" y="1333"/>
      <point x="171" y="1332"/>
      <point x="138" y="1331" type="curve"/>
      <point x="138" y="1419" type="line"/>
      <point x="219" y="1440"/>
      <point x="297" y="1451"/>
      <point x="372" y="1451" type="curve" smooth="yes"/>
      <point x="575" y="1451"/>
      <point x="650" y="1375"/>
      <point x="650" y="1226" type="curve" smooth="yes"/>
      <point x="650" y="1149"/>
      <point x="630" y="1090"/>
      <point x="587" y="995" type="curve" smooth="yes"/>
      <point x="550" y="908"/>
      <point x="532" y="863"/>
      <point x="532" y="803" type="curve" smooth="yes"/>
      <point x="532" y="740"/>
      <point x="542" y="711"/>
      <point x="606" y="695" type="curve" smooth="yes"/>
      <point x="637" y="687"/>
      <point x="687" y="683"/>
      <point x="755" y="683" type="curve"/>
      <point x="755" y="541" type="line"/>
      <point x="688" y="541"/>
      <point x="639" y="536"/>
      <point x="607" y="525" type="curve" smooth="yes"/>
      <point x="542" y="503"/>
      <point x="532" y="468"/>
      <point x="532" y="400" type="curve" smooth="yes"/>
      <point x="532" y="341"/>
      <point x="550" y="293"/>
      <point x="587" y="209" type="curve" smooth="yes"/>
      <point x="630" y="113"/>
      <point x="650" y="56"/>
      <point x="650" y="-21" type="curve" smooth="yes"/>
    </contour>
  </outline>
</glyph>
<glyph name="asciitilde" format="1">
  <advance width="1246"/>
  <unicode hex="007E"/>
  <note>
	asciitilde
  </note>
  <outline>
    <contour>
      <point x="189" y="521" type="line"/>
      <point x="221" y="576"/>
      <point x="278" y="630"/>
      <point x="353" y="662" type="curve" smooth="yes"/>
      <point x="390" y="678"/>
      <point x="429" y="686"/>
      <point x="470" y="686" type="curve" smooth="yes"/>
      <point x="523" y="686"/>
      <point x="570" y="669"/>
      <point x="606" y="647" type="curve" smooth="yes"/>
      <point x="623" y="636"/>
      <point x="644" y="621"/>
      <point x="668" y="603" type="curve" smooth="yes"/>
      <point x="727" y="559"/>
      <point x="755" y="541"/>
      <point x="798" y="541" type="curve" smooth="yes"/>
      <point x="875" y="541"/>
      <point x="932" y="579"/>
      <point x="981" y="638" type="curve"/>
      <point x="1055" y="554" type="line"/>
      <point x="1022" y="495"/>
      <point x="963" y="443"/>
      <point x="890" y="412" type="curve" smooth="yes"/>
      <point x="853" y="396"/>
      <point x="815" y="388"/>
      <point x="774" y="388" type="curve" smooth="yes"/>
      <point x="723" y="388"/>
      <point x="678" y="406"/>
      <point x="645" y="427" type="curve" smooth="yes"/>
      <point x="628" y="438"/>
      <point x="608" y="452"/>
      <point x="585" y="469" type="curve" smooth="yes"/>
      <point x="528" y="513"/>
      <point x="496" y="534"/>
      <point x="448" y="534" type="curve" smooth="yes"/>
      <point x="373" y="534"/>
      <point x="316" y="494"/>
      <point x="263" y="437" type="curve"/>
    </contour>
  </outline>
</glyph>
<glyph name="exclamdown" format="1">
  <advance width="639"/>
  <unicode hex="00A1"/>
  <note>
	exclamdown
  </note>
  <outline>
    <contour>
      <point x="227" y="1005"/>
      <point x="185" y="1056"/>
      <point x="185" y="1125" type="curve" smooth="yes"/>
      <point x="185" y="1181"/>
      <point x="213" y="1223"/>
      <point x="258" y="1247" type="curve" smooth="yes"/>
      <point x="280" y="1258"/>
      <point x="305" y="1264"/>
      <point x="332" y="1264" type="curve" smooth="yes"/>
      <point x="375" y="1264"/>
      <point x="416" y="1244"/>
      <point x="439" y="1208" type="curve"/>
      <point x="450" y="1189"/>
      <point x="456" y="1168"/>
      <point x="456" y="1144" type="curve" smooth="yes"/>
      <point x="456" y="1092"/>
      <point x="425" y="1047"/>
      <point x="381" y="1023" type="curve" smooth="yes"/>
      <point x="358" y="1011"/>
      <point x="335" y="1005"/>
      <point x="310" y="1005" type="curve" smooth="yes"/>
    </contour>
    <contour>
      <point x="215" y="-324" type="line"/>
      <point x="268" y="798" type="line"/>
      <point x="390" y="798" type="line"/>
      <point x="446" y="-324" type="line"/>
    </contour>
  </outline>
</glyph>
<glyph name="cent" format="1">
  <advance width="1044"/>
  <unicode hex="00A2"/>
  <note>
	cent
  </note>
  <outline>
    <contour>
      <point x="546" y="1210" type="line"/>
      <point x="671" y="1210" type="line"/>
      <point x="662" y="1026" type="line"/>
      <point x="730" y="1021"/>
      <point x="804" y="1003"/>
      <point x="884" y="973" type="curve"/>
      <point x="876" y="702" type="line"/>
      <point x="753" y="702" type="line"/>
      <point x="713" y="867" type="line"/>
      <point x="696" y="906"/>
      <point x="644" y="924"/>
      <point x="576" y="924" type="curve" smooth="yes"/>
      <point x="473" y="924"/>
      <point x="396" y="867"/>
      <point x="353" y="754" type="curve" smooth="yes"/>
      <point x="332" y="697"/>
      <point x="321" y="627"/>
      <point x="321" y="544" type="curve" smooth="yes"/>
      <point x="321" y="351"/>
      <point x="375" y="222"/>
      <point x="462" y="161" type="curve" smooth="yes"/>
      <point x="505" y="130"/>
      <point x="554" y="115"/>
      <point x="609" y="115" type="curve" smooth="yes"/>
      <point x="712" y="115"/>
      <point x="800" y="149"/>
      <point x="861" y="193" type="curve"/>
      <point x="898" y="112" type="line"/>
      <point x="838" y="48"/>
      <point x="710" y="-12"/>
      <point x="589" y="-19" type="curve"/>
      <point x="579" y="-214" type="line"/>
      <point x="453" y="-214" type="line"/>
      <point x="464" y="-11" type="line"/>
      <point x="308" y="17"/>
      <point x="201" y="114"/>
      <point x="147" y="254" type="curve" smooth="yes"/>
      <point x="120" y="324"/>
      <point x="106" y="402"/>
      <point x="106" y="488" type="curve" smooth="yes"/>
      <point x="106" y="672"/>
      <point x="173" y="831"/>
      <point x="302" y="931" type="curve" smooth="yes"/>
      <point x="366" y="981"/>
      <point x="444" y="1012"/>
      <point x="535" y="1023" type="curve"/>
    </contour>
  </outline>
</glyph>
<glyph name="sterling" format="1">
  <advance width="1327"/>
  <unicode hex="00A3"/>
  <note>
	sterling
  </note>
  <outline>
    <contour>
      <point x="348" y="767" type="line"/>
      <point x="348" y="899" type="line" smooth="yes"/>
      <point x="348" y="1075"/>
      <point x="436" y="1220"/>
      <point x="574" y="1297" type="curve" smooth="yes"/>
      <point x="643" y="1335"/>
      <point x="717" y="1354"/>
      <point x="798" y="1354" type="curve" smooth="yes"/>
      <point x="915" y="1354"/>
      <point x="1017" y="1323"/>
      <point x="1084" y="1266" type="curve"/>
      <point x="983" y="1119" type="line"/>
      <point x="970" y="1146"/>
      <point x="923" y="1186"/>
      <point x="855" y="1214" type="curve" smooth="yes"/>
      <point x="821" y="1227"/>
      <point x="785" y="1234"/>
      <point x="746" y="1234" type="curve" smooth="yes"/>
      <point x="637" y="1234"/>
      <point x="558" y="1173"/>
      <point x="558" y="946" type="curve" smooth="yes"/>
      <point x="558" y="767" type="line"/>
      <point x="828" y="767" type="line"/>
      <point x="828" y="664" type="line"/>
      <point x="558" y="664" type="line"/>
      <point x="558" y="510" type="line" smooth="yes"/>
      <point x="558" y="374"/>
      <point x="512" y="276"/>
      <point x="443" y="197" type="curve"/>
      <point x="490" y="193"/>
      <point x="530" y="184"/>
      <point x="614" y="164" type="curve" smooth="yes"/>
      <point x="729" y="136"/>
      <point x="793" y="124"/>
      <point x="864" y="124" type="curve" smooth="yes"/>
      <point x="957" y="124"/>
      <point x="1004" y="147"/>
      <point x="1024" y="195" type="curve" smooth="yes"/>
      <point x="1033" y="218"/>
      <point x="1038" y="249"/>
      <point x="1038" y="288" type="curve" smooth="yes"/>
      <point x="1038" y="353"/>
      <point x="1014" y="428"/>
      <point x="990" y="451" type="curve"/>
      <point x="1202" y="451" type="line"/>
      <point x="1222" y="430"/>
      <point x="1238" y="378"/>
      <point x="1238" y="310" type="curve" smooth="yes"/>
      <point x="1238" y="201"/>
      <point x="1175" y="93"/>
      <point x="1067" y="33" type="curve" smooth="yes"/>
      <point x="1012" y="2"/>
      <point x="951" y="-13"/>
      <point x="882" y="-13" type="curve" smooth="yes"/>
      <point x="777" y="-13"/>
      <point x="697" y="10"/>
      <point x="576" y="55" type="curve" smooth="yes"/>
      <point x="483" y="90"/>
      <point x="429" y="106"/>
      <point x="366" y="107" type="curve"/>
      <point x="309" y="40"/>
      <point x="249" y="-1"/>
      <point x="185" y="-1" type="curve" smooth="yes"/>
      <point x="136" y="-1"/>
      <point x="91" y="24"/>
      <point x="91" y="79" type="curve" smooth="yes"/>
      <point x="91" y="128"/>
      <point x="134" y="176"/>
      <point x="202" y="202" type="curve" smooth="yes"/>
      <point x="236" y="215"/>
      <point x="272" y="220"/>
      <point x="311" y="218" type="curve"/>
      <point x="331" y="257"/>
      <point x="348" y="377"/>
      <point x="348" y="466" type="curve" smooth="yes"/>
      <point x="348" y="664" type="line"/>
      <point x="174" y="664" type="line"/>
      <point x="174" y="767" type="line"/>
    </contour>
  </outline>
</glyph>
<glyph name="currency" format="1">
  <advance width="1361"/>
  <unicode hex="00A4"/>
  <note>
	currency
  </note>
  <outline>
    <contour>
      <point x="363" y="449" type="line"/>
      <point x="320" y="510"/>
      <point x="297" y="588"/>
      <point x="297" y="671" type="curve" smooth="yes"/>
      <point x="297" y="758"/>
      <point x="322" y="838"/>
      <point x="366" y="906" type="curve"/>
      <point x="173" y="1097" type="line"/>
      <point x="280" y="1206" type="line"/>
      <point x="473" y="1012" type="line"/>
      <point x="534" y="1053"/>
      <point x="603" y="1074"/>
      <point x="678" y="1074" type="curve" smooth="yes"/>
      <point x="755" y="1074"/>
      <point x="824" y="1055"/>
      <point x="887" y="1016" type="curve"/>
      <point x="1080" y="1207" type="line"/>
      <point x="1187" y="1100" type="line"/>
      <point x="997" y="912" type="line"/>
      <point x="1041" y="849"/>
      <point x="1067" y="773"/>
      <point x="1067" y="689" type="curve" smooth="yes"/>
      <point x="1067" y="604"/>
      <point x="1041" y="521"/>
      <point x="994" y="454" type="curve"/>
      <point x="1184" y="264" type="line"/>
      <point x="1076" y="157" type="line"/>
      <point x="884" y="348" type="line"/>
      <point x="823" y="307"/>
      <point x="754" y="287"/>
      <point x="678" y="287" type="curve" smooth="yes"/>
      <point x="602" y="287"/>
      <point x="533" y="306"/>
      <point x="472" y="343" type="curve"/>
      <point x="281" y="153" type="line"/>
      <point x="173" y="260" type="line"/>
    </contour>
    <contour>
      <point x="904" y="765"/>
      <point x="859" y="847"/>
      <point x="789" y="893" type="curve" smooth="yes"/>
      <point x="754" y="916"/>
      <point x="715" y="927"/>
      <point x="673" y="927" type="curve" smooth="yes"/>
      <point x="577" y="927"/>
      <point x="510" y="876"/>
      <point x="478" y="800" type="curve" smooth="yes"/>
      <point x="461" y="762"/>
      <point x="453" y="720"/>
      <point x="453" y="675" type="curve" smooth="yes"/>
      <point x="453" y="587"/>
      <point x="496" y="510"/>
      <point x="565" y="467" type="curve" smooth="yes"/>
      <point x="600" y="445"/>
      <point x="638" y="434"/>
      <point x="679" y="434" type="curve" smooth="yes"/>
      <point x="830" y="434"/>
      <point x="904" y="532"/>
      <point x="904" y="676" type="curve" smooth="yes"/>
    </contour>
  </outline>
</glyph>
<glyph name="yen" format="1">
  <advance width="1403"/>
  <unicode hex="00A5"/>
  <note>
	yen
  </note>
  <outline>
    <contour>
      <point x="561" y="738" type="line"/>
      <point x="238" y="1228" type="line"/>
      <point x="121" y="1252" type="line"/>
      <point x="121" y="1339" type="line"/>
      <point x="607" y="1339" type="line"/>
      <point x="607" y="1252" type="line"/>
      <point x="468" y="1229" type="line"/>
      <point x="693" y="847" type="line"/>
      <point x="745" y="746" type="line"/>
      <point x="809" y="849" type="line"/>
      <point x="1021" y="1229" type="line"/>
      <point x="876" y="1252" type="line"/>
      <point x="876" y="1339" type="line"/>
      <point x="1296" y="1339" type="line"/>
      <point x="1296" y="1252" type="line"/>
      <point x="1169" y="1228" type="line"/>
      <point x="866" y="738" type="line"/>
      <point x="1209" y="738" type="line"/>
      <point x="1209" y="635" type="line"/>
      <point x="807" y="635" type="line"/>
      <point x="807" y="416" type="line"/>
      <point x="1209" y="416" type="line"/>
      <point x="1209" y="312" type="line"/>
      <point x="807" y="312" type="line"/>
      <point x="807" y="109" type="line"/>
      <point x="1015" y="87" type="line"/>
      <point x="1015" y="0" type="line"/>
      <point x="429" y="0" type="line"/>
      <point x="429" y="87" type="line"/>
      <point x="631" y="110" type="line"/>
      <point x="631" y="312" type="line"/>
      <point x="228" y="312" type="line"/>
      <point x="228" y="416" type="line"/>
      <point x="631" y="416" type="line"/>
      <point x="631" y="632" type="line"/>
      <point x="628" y="635" type="line"/>
      <point x="228" y="635" type="line"/>
      <point x="228" y="738" type="line"/>
    </contour>
  </outline>
</glyph>
<glyph name="brokenbar" format="1">
  <advance width="761"/>
  <unicode hex="00A6"/>
  <note>
	brokenbar
  </note>
  <outline>
    <contour>
      <point x="461" y="1566" type="line"/>
      <point x="461" y="836" type="line"/>
      <point x="300" y="836" type="line"/>
      <point x="300" y="1566" type="line"/>
    </contour>
    <contour>
      <point x="461" y="564" type="line"/>
      <point x="461" y="-164" type="line"/>
      <point x="300" y="-164" type="line"/>
      <point x="300" y="564" type="line"/>
    </contour>
  </outline>
</glyph>
<glyph name="section" format="1">
  <advance width="1209"/>
  <unicode hex="00A7"/>
  <note>
	section
  </note>
  <outline>
    <contour>
      <point x="312" y="213" type="line"/>
      <point x="345" y="6" type="line"/>
      <point x="384" y="-37"/>
      <point x="488" y="-73"/>
      <point x="591" y="-73" type="curve" smooth="yes"/>
      <point x="762" y="-73"/>
      <point x="849" y="-12"/>
      <point x="849" y="81" type="curve" smooth="yes"/>
      <point x="849" y="161"/>
      <point x="795" y="213"/>
      <point x="716" y="252" type="curve" smooth="yes"/>
      <point x="677" y="271"/>
      <point x="620" y="295"/>
      <point x="546" y="324" type="curve" smooth="yes"/>
      <point x="394" y="385"/>
      <point x="286" y="449"/>
      <point x="215" y="554" type="curve" smooth="yes"/>
      <point x="180" y="606"/>
      <point x="162" y="668"/>
      <point x="162" y="739" type="curve" smooth="yes"/>
      <point x="162" y="838"/>
      <point x="207" y="913"/>
      <point x="290" y="974" type="curve"/>
      <point x="231" y="1035"/>
      <point x="202" y="1107"/>
      <point x="202" y="1188" type="curve" smooth="yes"/>
      <point x="202" y="1303"/>
      <point x="272" y="1395"/>
      <point x="401" y="1444" type="curve" smooth="yes"/>
      <point x="465" y="1469"/>
      <point x="540" y="1481"/>
      <point x="627" y="1481" type="curve" smooth="yes"/>
      <point x="732" y="1481"/>
      <point x="814" y="1462"/>
      <point x="914" y="1433" type="curve"/>
      <point x="938" y="1425"/>
      <point x="958" y="1420"/>
      <point x="974" y="1417" type="curve"/>
      <point x="963" y="1133" type="line"/>
      <point x="848" y="1133" type="line"/>
      <point x="801" y="1324" type="line"/>
      <point x="790" y="1337"/>
      <point x="755" y="1355"/>
      <point x="703" y="1366" type="curve" smooth="yes"/>
      <point x="677" y="1371"/>
      <point x="649" y="1374"/>
      <point x="618" y="1374" type="curve" smooth="yes"/>
      <point x="463" y="1374"/>
      <point x="383" y="1320"/>
      <point x="383" y="1227" type="curve" smooth="yes"/>
      <point x="383" y="1146"/>
      <point x="426" y="1095"/>
      <point x="488" y="1060" type="curve" smooth="yes"/>
      <point x="519" y="1042"/>
      <point x="564" y="1020"/>
      <point x="625" y="994" type="curve" smooth="yes"/>
      <point x="661" y="978" type="line" smooth="yes"/>
      <point x="806" y="914"/>
      <point x="907" y="866"/>
      <point x="992" y="766" type="curve" smooth="yes"/>
      <point x="1034" y="715"/>
      <point x="1055" y="656"/>
      <point x="1055" y="589" type="curve" smooth="yes"/>
      <point x="1055" y="492"/>
      <point x="1014" y="407"/>
      <point x="932" y="334" type="curve"/>
      <point x="999" y="275"/>
      <point x="1032" y="207"/>
      <point x="1032" y="130" type="curve" smooth="yes"/>
      <point x="1032" y="25"/>
      <point x="969" y="-76"/>
      <point x="833" y="-135" type="curve" smooth="yes"/>
      <point x="764" y="-164"/>
      <point x="680" y="-179"/>
      <point x="581" y="-179" type="curve" smooth="yes"/>
      <point x="457" y="-179"/>
      <point x="360" y="-153"/>
      <point x="247" y="-117" type="curve" smooth="yes"/>
      <point x="209" y="-104"/>
      <point x="183" y="-97"/>
      <point x="169" y="-96" type="curve"/>
      <point x="187" y="213" type="line"/>
    </contour>
    <contour>
      <point x="864" y="440"/>
      <point x="879" y="483"/>
      <point x="879" y="532" type="curve" smooth="yes"/>
      <point x="879" y="620"/>
      <point x="827" y="681"/>
      <point x="741" y="730" type="curve" smooth="yes"/>
      <point x="698" y="754"/>
      <point x="640" y="781"/>
      <point x="569" y="810" type="curve" smooth="yes"/>
      <point x="482" y="847"/>
      <point x="430" y="870"/>
      <point x="375" y="906" type="curve"/>
      <point x="340" y="872"/>
      <point x="322" y="831"/>
      <point x="322" y="783" type="curve" smooth="yes"/>
      <point x="322" y="691"/>
      <point x="379" y="626"/>
      <point x="466" y="578" type="curve" smooth="yes"/>
      <point x="509" y="553"/>
      <point x="570" y="524"/>
      <point x="647" y="491" type="curve" smooth="yes"/>
      <point x="730" y="458"/>
      <point x="780" y="435"/>
      <point x="835" y="403" type="curve"/>
    </contour>
  </outline>
</glyph>
<glyph name="dieresis" format="1">
  <advance width="899"/>
  <unicode hex="00A8"/>
  <note>
	dieresis
  </note>
  <outline>
    <contour>
      <point x="122" y="1392"/>
      <point x="168" y="1454"/>
      <point x="252" y="1454" type="curve" smooth="yes"/>
      <point x="253" y="1454" type="line" smooth="yes"/>
      <point x="324" y="1454"/>
      <point x="369" y="1399"/>
      <point x="369" y="1332" type="curve" smooth="yes"/>
      <point x="369" y="1251"/>
      <point x="321" y="1192"/>
      <point x="234" y="1192" type="curve" smooth="yes"/>
      <point x="233" y="1192" type="line" smooth="yes"/>
      <point x="166" y="1192"/>
      <point x="122" y="1244"/>
      <point x="122" y="1313" type="curve" smooth="yes"/>
    </contour>
    <contour>
      <point x="534" y="1392"/>
      <point x="581" y="1454"/>
      <point x="664" y="1454" type="curve"/>
      <point x="664" y="1454" type="line"/>
      <point x="737" y="1454"/>
      <point x="781" y="1399"/>
      <point x="781" y="1332" type="curve" smooth="yes"/>
      <point x="781" y="1251"/>
      <point x="734" y="1192"/>
      <point x="645" y="1192" type="curve" smooth="yes"/>
      <point x="644" y="1192" type="line" smooth="yes"/>
      <point x="580" y="1192"/>
      <point x="534" y="1246"/>
      <point x="534" y="1313" type="curve" smooth="yes"/>
    </contour>
  </outline>
</glyph>
<glyph name="copyright" format="1">
  <advance width="1873"/>
  <unicode hex="00A9"/>
  <note>
	copyright
  </note>
  <outline>
    <contour>
      <point x="1217" y="1653"/>
      <point x="1464" y="1505"/>
      <point x="1600" y="1270" type="curve" smooth="yes"/>
      <point x="1668" y="1152"/>
      <point x="1702" y="1023"/>
      <point x="1702" y="883" type="curve" smooth="yes"/>
      <point x="1702" y="600"/>
      <point x="1557" y="352"/>
      <point x="1323" y="213" type="curve" smooth="yes"/>
      <point x="1206" y="144"/>
      <point x="1077" y="109"/>
      <point x="937" y="109" type="curve" smooth="yes"/>
      <point x="657" y="109"/>
      <point x="410" y="258"/>
      <point x="274" y="494" type="curve" smooth="yes"/>
      <point x="206" y="612"/>
      <point x="172" y="742"/>
      <point x="172" y="883" type="curve" smooth="yes"/>
      <point x="172" y="1163"/>
      <point x="318" y="1412"/>
      <point x="552" y="1550" type="curve" smooth="yes"/>
      <point x="669" y="1619"/>
      <point x="797" y="1653"/>
      <point x="937" y="1653" type="curve" smooth="yes"/>
    </contour>
    <contour>
      <point x="1177" y="214"/>
      <point x="1384" y="344"/>
      <point x="1497" y="549" type="curve" smooth="yes"/>
      <point x="1553" y="651"/>
      <point x="1581" y="762"/>
      <point x="1581" y="883" type="curve" smooth="yes"/>
      <point x="1581" y="1122"/>
      <point x="1461" y="1339"/>
      <point x="1265" y="1460" type="curve" smooth="yes"/>
      <point x="1166" y="1520"/>
      <point x="1057" y="1550"/>
      <point x="937" y="1550" type="curve" smooth="yes"/>
      <point x="698" y="1550"/>
      <point x="489" y="1419"/>
      <point x="376" y="1215" type="curve" smooth="yes"/>
      <point x="319" y="1113"/>
      <point x="291" y="1002"/>
      <point x="291" y="883" type="curve" smooth="yes"/>
      <point x="291" y="642"/>
      <point x="412" y="425"/>
      <point x="610" y="305" type="curve" smooth="yes"/>
      <point x="709" y="244"/>
      <point x="818" y="214"/>
      <point x="937" y="214" type="curve" smooth="yes"/>
    </contour>
    <contour>
      <point x="544" y="1039"/>
      <point x="627" y="1181"/>
      <point x="764" y="1260" type="curve" smooth="yes"/>
      <point x="832" y="1299"/>
      <point x="908" y="1319"/>
      <point x="993" y="1319" type="curve" smooth="yes"/>
      <point x="1078" y="1319"/>
      <point x="1185" y="1297"/>
      <point x="1218" y="1265" type="curve"/>
      <point x="1216" y="1064" type="line"/>
      <point x="1114" y="1064" type="line"/>
      <point x="1074" y="1180" type="line"/>
      <point x="1045" y="1201"/>
      <point x="1015" y="1211"/>
      <point x="931" y="1211" type="curve" smooth="yes"/>
      <point x="839" y="1211"/>
      <point x="773" y="1159"/>
      <point x="738" y="1068" type="curve" smooth="yes"/>
      <point x="721" y="1023"/>
      <point x="712" y="969"/>
      <point x="712" y="908" type="curve" smooth="yes"/>
      <point x="712" y="781"/>
      <point x="763" y="680"/>
      <point x="851" y="625" type="curve" smooth="yes"/>
      <point x="894" y="598"/>
      <point x="944" y="584"/>
      <point x="999" y="584" type="curve" smooth="yes"/>
      <point x="1070" y="584"/>
      <point x="1135" y="612"/>
      <point x="1184" y="657" type="curve"/>
      <point x="1227" y="587" type="line"/>
      <point x="1191" y="543"/>
      <point x="1131" y="499"/>
      <point x="1056" y="472" type="curve" smooth="yes"/>
      <point x="1019" y="459"/>
      <point x="980" y="452"/>
      <point x="940" y="452" type="curve" smooth="yes"/>
      <point x="769" y="452"/>
      <point x="649" y="528"/>
      <point x="589" y="656" type="curve" smooth="yes"/>
      <point x="559" y="719"/>
      <point x="544" y="793"/>
      <point x="544" y="876" type="curve" smooth="yes"/>
    </contour>
  </outline>
</glyph>
<glyph name="ordfeminine" format="1">
  <advance width="913"/>
  <unicode hex="00AA"/>
  <note>
	ordfeminine
  </note>
  <outline>
    <contour>
      <point x="101" y="989"/>
      <point x="276" y="1070"/>
      <point x="603" y="1081" type="curve"/>
      <point x="603" y="1103" type="line" smooth="yes"/>
      <point x="603" y="1202"/>
      <point x="584" y="1252"/>
      <point x="535" y="1273" type="curve" smooth="yes"/>
      <point x="510" y="1283"/>
      <point x="475" y="1288"/>
      <point x="429" y="1288" type="curve" smooth="yes"/>
      <point x="351" y="1288"/>
      <point x="266" y="1267"/>
      <point x="173" y="1225" type="curve"/>
      <point x="124" y="1319" type="line"/>
      <point x="169" y="1350"/>
      <point x="257" y="1383"/>
      <point x="347" y="1403" type="curve" smooth="yes"/>
      <point x="392" y="1413"/>
      <point x="432" y="1418"/>
      <point x="468" y="1418" type="curve" smooth="yes"/>
      <point x="609" y="1418"/>
      <point x="699" y="1383"/>
      <point x="746" y="1297" type="curve" smooth="yes"/>
      <point x="769" y="1254"/>
      <point x="781" y="1196"/>
      <point x="781" y="1125" type="curve" smooth="yes"/>
      <point x="781" y="692" type="line"/>
      <point x="877" y="692" type="line"/>
      <point x="877" y="614" type="line"/>
      <point x="812" y="598"/>
      <point x="757" y="590"/>
      <point x="713" y="590" type="curve" smooth="yes"/>
      <point x="664" y="590"/>
      <point x="639" y="593"/>
      <point x="624" y="613" type="curve"/>
      <point x="616" y="622"/>
      <point x="612" y="637"/>
      <point x="612" y="657" type="curve" smooth="yes"/>
      <point x="612" y="700" type="line"/>
      <point x="544" y="636"/>
      <point x="464" y="589"/>
      <point x="352" y="589" type="curve" smooth="yes"/>
      <point x="252" y="589"/>
      <point x="173" y="631"/>
      <point x="132" y="700" type="curve" smooth="yes"/>
      <point x="111" y="735"/>
      <point x="101" y="774"/>
      <point x="101" y="818" type="curve" smooth="yes"/>
    </contour>
    <contour>
      <point x="603" y="777" type="line"/>
      <point x="603" y="995" type="line"/>
      <point x="446" y="991"/>
      <point x="359" y="967"/>
      <point x="322" y="921" type="curve" smooth="yes"/>
      <point x="303" y="898"/>
      <point x="294" y="868"/>
      <point x="294" y="832" type="curve" smooth="yes"/>
      <point x="294" y="757"/>
      <point x="345" y="706"/>
      <point x="429" y="706" type="curve" smooth="yes"/>
      <point x="473" y="706"/>
      <point x="524" y="724"/>
      <point x="562" y="747" type="curve" smooth="yes"/>
      <point x="581" y="758"/>
      <point x="594" y="769"/>
      <point x="602" y="778" type="curve"/>
    </contour>
  </outline>
</glyph>
<glyph name="guillemotleft" format="1">
  <advance width="1686"/>
  <unicode hex="00AB"/>
  <note>
	guillemotleft
  </note>
  <outline>
    <contour>
      <point x="1442" y="992" type="line"/>
      <point x="1500" y="893" type="line"/>
      <point x="1092" y="540" type="line"/>
      <point x="1504" y="195" type="line"/>
      <point x="1442" y="95" type="line"/>
      <point x="862" y="469" type="line"/>
      <point x="862" y="606" type="line"/>
    </contour>
    <contour>
      <point x="787" y="992" type="line"/>
      <point x="845" y="893" type="line"/>
      <point x="437" y="540" type="line"/>
      <point x="849" y="195" type="line"/>
      <point x="787" y="95" type="line"/>
      <point x="207" y="469" type="line"/>
      <point x="207" y="606" type="line"/>
    </contour>
  </outline>
</glyph>
<glyph name="logicalnot" format="1">
  <advance width="1240"/>
  <unicode hex="00AC"/>
  <note>
	logicalnot
  </note>
  <outline>
    <contour>
      <point x="1056" y="615" type="line"/>
      <point x="1056" y="140" type="line"/>
      <point x="901" y="140" type="line"/>
      <point x="901" y="488" type="line"/>
      <point x="185" y="488" type="line"/>
      <point x="185" y="615" type="line"/>
    </contour>
  </outline>
</glyph>
<glyph name="registered" format="1">
  <advance width="1873"/>
  <unicode hex="00AE"/>
  <note>
	registered
  </note>
  <outline>
    <contour>
      <point x="1217" y="1653"/>
      <point x="1464" y="1505"/>
      <point x="1600" y="1270" type="curve" smooth="yes"/>
      <point x="1668" y="1152"/>
      <point x="1702" y="1023"/>
      <point x="1702" y="883" type="curve" smooth="yes"/>
      <point x="1702" y="600"/>
      <point x="1557" y="352"/>
      <point x="1323" y="213" type="curve" smooth="yes"/>
      <point x="1206" y="144"/>
      <point x="1077" y="109"/>
      <point x="937" y="109" type="curve" smooth="yes"/>
      <point x="657" y="109"/>
      <point x="410" y="258"/>
      <point x="274" y="494" type="curve" smooth="yes"/>
      <point x="206" y="612"/>
      <point x="172" y="742"/>
      <point x="172" y="883" type="curve" smooth="yes"/>
      <point x="172" y="1163"/>
      <point x="318" y="1412"/>
      <point x="552" y="1550" type="curve" smooth="yes"/>
      <point x="669" y="1619"/>
      <point x="797" y="1653"/>
      <point x="937" y="1653" type="curve" smooth="yes"/>
    </contour>
    <contour>
      <point x="1177" y="214"/>
      <point x="1384" y="344"/>
      <point x="1497" y="549" type="curve" smooth="yes"/>
      <point x="1553" y="651"/>
      <point x="1581" y="762"/>
      <point x="1581" y="883" type="curve" smooth="yes"/>
      <point x="1581" y="1122"/>
      <point x="1461" y="1339"/>
      <point x="1265" y="1460" type="curve" smooth="yes"/>
      <point x="1166" y="1520"/>
      <point x="1057" y="1550"/>
      <point x="937" y="1550" type="curve" smooth="yes"/>
      <point x="698" y="1550"/>
      <point x="489" y="1419"/>
      <point x="376" y="1215" type="curve" smooth="yes"/>
      <point x="319" y="1113"/>
      <point x="291" y="1002"/>
      <point x="291" y="883" type="curve" smooth="yes"/>
      <point x="291" y="642"/>
      <point x="412" y="425"/>
      <point x="610" y="305" type="curve" smooth="yes"/>
      <point x="709" y="244"/>
      <point x="818" y="214"/>
      <point x="937" y="214" type="curve" smooth="yes"/>
    </contour>
    <contour>
      <point x="665" y="557" type="line"/>
      <point x="665" y="1197" type="line"/>
      <point x="585" y="1217" type="line"/>
      <point x="585" y="1303" type="line"/>
      <point x="729" y="1303" type="line"/>
      <point x="763" y="1303" type="line" smooth="yes"/>
      <point x="778" y="1303"/>
      <point x="804" y="1304"/>
      <point x="843" y="1305" type="curve" smooth="yes"/>
      <point x="950" y="1308" type="line" smooth="yes"/>
      <point x="1087" y="1308"/>
      <point x="1188" y="1272"/>
      <point x="1239" y="1206" type="curve" smooth="yes"/>
      <point x="1264" y="1173"/>
      <point x="1277" y="1134"/>
      <point x="1277" y="1089" type="curve" smooth="yes"/>
      <point x="1277" y="954"/>
      <point x="1212" y="862"/>
      <point x="1104" y="833" type="curve"/>
      <point x="1169" y="800"/>
      <point x="1194" y="748"/>
      <point x="1221" y="665" type="curve" smooth="yes"/>
      <point x="1241" y="610"/>
      <point x="1252" y="585"/>
      <point x="1277" y="563" type="curve" smooth="yes"/>
      <point x="1290" y="552"/>
      <point x="1306" y="545"/>
      <point x="1327" y="542" type="curve"/>
      <point x="1327" y="457" type="line"/>
      <point x="1177" y="457" type="line" smooth="yes"/>
      <point x="1133" y="457"/>
      <point x="1108" y="485"/>
      <point x="1095" y="524" type="curve" smooth="yes"/>
      <point x="1088" y="543"/>
      <point x="1081" y="570"/>
      <point x="1074" y="604" type="curve"/>
      <point x="1057" y="673"/>
      <point x="1046" y="714"/>
      <point x="1017" y="754" type="curve" smooth="yes"/>
      <point x="1002" y="774"/>
      <point x="983" y="789"/>
      <point x="960" y="800" type="curve"/>
      <point x="817" y="802" type="line"/>
      <point x="817" y="552" type="line"/>
      <point x="904" y="533" type="line"/>
      <point x="904" y="457" type="line"/>
      <point x="585" y="457" type="line"/>
      <point x="585" y="533" type="line"/>
    </contour>
    <contour>
      <point x="1006" y="904"/>
      <point x="1057" y="934"/>
      <point x="1085" y="982" type="curve" smooth="yes"/>
      <point x="1098" y="1005"/>
      <point x="1105" y="1031"/>
      <point x="1105" y="1060" type="curve" smooth="yes"/>
      <point x="1105" y="1171"/>
      <point x="1050" y="1214"/>
      <point x="922" y="1214" type="curve" smooth="yes"/>
      <point x="873" y="1214"/>
      <point x="857" y="1214"/>
      <point x="817" y="1206" type="curve"/>
      <point x="817" y="911" type="line"/>
      <point x="844" y="904"/>
      <point x="883" y="904"/>
      <point x="946" y="904" type="curve" smooth="yes"/>
    </contour>
  </outline>
</glyph>
<glyph name="macron" format="1">
  <advance width="599"/>
  <unicode hex="00AF"/>
  <note>
	macron
  </note>
  <outline>
    <contour>
      <point x="545" y="1396" type="line"/>
      <point x="545" y="1257" type="line"/>
      <point x="54" y="1257" type="line"/>
      <point x="54" y="1396" type="line"/>
    </contour>
  </outline>
</glyph>
<glyph name="degree" format="1">
  <advance width="828"/>
  <unicode hex="00B0"/>
  <note>
	degree
  </note>
  <outline>
    <contour>
      <point x="106" y="1253"/>
      <point x="166" y="1351"/>
      <point x="260" y="1404" type="curve" smooth="yes"/>
      <point x="307" y="1431"/>
      <point x="358" y="1444"/>
      <point x="414" y="1444" type="curve" smooth="yes"/>
      <point x="531" y="1444"/>
      <point x="630" y="1384"/>
      <point x="683" y="1291" type="curve" smooth="yes"/>
      <point x="710" y="1244"/>
      <point x="723" y="1193"/>
      <point x="723" y="1138" type="curve" smooth="yes"/>
      <point x="723" y="1022"/>
      <point x="665" y="924"/>
      <point x="570" y="871" type="curve" smooth="yes"/>
      <point x="523" y="844"/>
      <point x="471" y="831"/>
      <point x="414" y="831" type="curve" smooth="yes"/>
      <point x="303" y="831"/>
      <point x="203" y="891"/>
      <point x="148" y="985" type="curve" smooth="yes"/>
      <point x="120" y="1032"/>
      <point x="106" y="1083"/>
      <point x="106" y="1138" type="curve" smooth="yes"/>
    </contour>
    <contour>
      <point x="588" y="1202"/>
      <point x="554" y="1261"/>
      <point x="501" y="1293" type="curve" smooth="yes"/>
      <point x="474" y="1309"/>
      <point x="445" y="1317"/>
      <point x="413" y="1317" type="curve" smooth="yes"/>
      <point x="346" y="1317"/>
      <point x="292" y="1285"/>
      <point x="262" y="1230" type="curve" smooth="yes"/>
      <point x="247" y="1203"/>
      <point x="239" y="1172"/>
      <point x="239" y="1138" type="curve" smooth="yes"/>
      <point x="239" y="1073"/>
      <point x="274" y="1016"/>
      <point x="328" y="983" type="curve" smooth="yes"/>
      <point x="355" y="966"/>
      <point x="384" y="958"/>
      <point x="415" y="958" type="curve" smooth="yes"/>
      <point x="483" y="958"/>
      <point x="538" y="990"/>
      <point x="567" y="1045" type="curve" smooth="yes"/>
      <point x="581" y="1072"/>
      <point x="588" y="1103"/>
      <point x="588" y="1138" type="curve" smooth="yes"/>
    </contour>
  </outline>
</glyph>
<glyph name="plusminus" format="1">
  <advance width="1190"/>
  <unicode hex="00B1"/>
  <note>
	plusminus
  </note>
  <outline>
    <contour>
      <point x="374" y="676" type="line"/>
      <point x="525" y="666" type="line"/>
      <point x="520" y="811" type="line"/>
      <point x="520" y="1012" type="line"/>
      <point x="671" y="1012" type="line"/>
      <point x="671" y="811" type="line"/>
      <point x="664" y="666" type="line"/>
      <point x="791" y="676" type="line"/>
      <point x="1001" y="676" type="line"/>
      <point x="1001" y="527" type="line"/>
      <point x="791" y="527" type="line"/>
      <point x="664" y="532" type="line"/>
      <point x="671" y="390" type="line"/>
      <point x="671" y="198" type="line"/>
      <point x="520" y="198" type="line"/>
      <point x="520" y="390" type="line"/>
      <point x="525" y="532" type="line"/>
      <point x="374" y="527" type="line"/>
      <point x="189" y="527" type="line"/>
      <point x="189" y="676" type="line"/>
    </contour>
    <contour>
      <point x="987" y="141" type="line"/>
      <point x="987" y="0" type="line"/>
      <point x="202" y="0" type="line"/>
      <point x="202" y="141" type="line"/>
    </contour>
  </outline>
</glyph>
<glyph name="acute" format="1">
  <advance width="599"/>
  <unicode hex="00B4"/>
  <note>
	acute
  </note>
  <outline>
    <contour>
      <point x="470" y="1596" type="line"/>
      <point x="471" y="1596" type="line"/>
      <point x="611" y="1474" type="line"/>
      <point x="580" y="1422"/>
      <point x="473" y="1323"/>
      <point x="370" y="1247" type="curve" smooth="yes"/>
      <point x="318" y="1209"/>
      <point x="279" y="1185"/>
      <point x="253" y="1174" type="curve"/>
      <point x="251" y="1174" type="line"/>
      <point x="180" y="1239" type="line"/>
    </contour>
  </outline>
</glyph>
<glyph name="paragraph" format="1">
  <advance width="1313"/>
  <unicode hex="00B6"/>
  <note>
	paragraph
  </note>
  <outline>
    <contour>
      <point x="467" y="113" type="line"/>
      <point x="467" y="697" type="line"/>
      <point x="214" y="697"/>
      <point x="85" y="846"/>
      <point x="85" y="1106" type="curve" smooth="yes"/>
      <point x="85" y="1259"/>
      <point x="163" y="1385"/>
      <point x="309" y="1454" type="curve" smooth="yes"/>
      <point x="382" y="1489"/>
      <point x="469" y="1506"/>
      <point x="571" y="1506" type="curve" smooth="yes"/>
      <point x="636" y="1506"/>
      <point x="705" y="1503"/>
      <point x="776" y="1498" type="curve" smooth="yes"/>
      <point x="875" y="1490"/>
      <point x="927" y="1488"/>
      <point x="1034" y="1488" type="curve" smooth="yes"/>
      <point x="1190" y="1488" type="line"/>
      <point x="1190" y="1391" type="line"/>
      <point x="1046" y="1372" type="line"/>
      <point x="1046" y="113" type="line"/>
      <point x="1169" y="92" type="line"/>
      <point x="1169" y="0" type="line"/>
      <point x="868" y="0" type="line"/>
      <point x="868" y="1364" type="line"/>
      <point x="800" y="1373"/>
      <point x="737" y="1377"/>
      <point x="679" y="1377" type="curve" smooth="yes"/>
      <point x="664" y="1377"/>
      <point x="653" y="1376"/>
      <point x="646" y="1375" type="curve"/>
      <point x="646" y="0" type="line"/>
      <point x="290" y="0" type="line"/>
      <point x="290" y="92" type="line"/>
    </contour>
  </outline>
</glyph>
<glyph name="periodcentered" format="1">
  <advance width="622"/>
  <unicode hex="00B7"/>
  <note>
	periodcentered
  </note>
  <outline>
    <contour>
      <point x="179" y="653"/>
      <point x="209" y="698"/>
      <point x="254" y="723" type="curve" smooth="yes"/>
      <point x="276" y="735"/>
      <point x="299" y="741"/>
      <point x="324" y="741" type="curve" smooth="yes"/>
      <point x="405" y="741"/>
      <point x="449" y="689"/>
      <point x="449" y="621" type="curve" smooth="yes"/>
      <point x="449" y="566"/>
      <point x="420" y="522"/>
      <point x="375" y="499" type="curve" smooth="yes"/>
      <point x="352" y="487"/>
      <point x="328" y="481"/>
      <point x="302" y="481" type="curve" smooth="yes"/>
      <point x="258" y="481"/>
      <point x="219" y="502"/>
      <point x="196" y="539" type="curve" smooth="yes"/>
      <point x="185" y="557"/>
      <point x="179" y="578"/>
      <point x="179" y="601" type="curve" smooth="yes"/>
    </contour>
  </outline>
</glyph>
<glyph name="cedilla" format="1">
  <advance width="541"/>
  <unicode hex="00B8"/>
  <note>
	cedilla
  </note>
  <outline>
    <contour>
      <point x="256" y="3" type="line"/>
      <point x="287" y="-25"/>
      <point x="329" y="-82"/>
      <point x="355" y="-153" type="curve" smooth="yes"/>
      <point x="381" y="-224"/>
      <point x="386" y="-340"/>
      <point x="310" y="-394" type="curve" smooth="yes"/>
      <point x="271" y="-421"/>
      <point x="214" y="-435"/>
      <point x="139" y="-435" type="curve" smooth="yes"/>
      <point x="138" y="-435" type="line" smooth="yes"/>
      <point x="97" y="-435"/>
      <point x="42" y="-426"/>
      <point x="11" y="-411" type="curve"/>
      <point x="12" y="-276" type="line"/>
      <point x="35" y="-284"/>
      <point x="71" y="-289"/>
      <point x="88" y="-289" type="curve" smooth="yes"/>
      <point x="89" y="-289" type="line" smooth="yes"/>
      <point x="150" y="-289"/>
      <point x="183" y="-281"/>
      <point x="201" y="-245" type="curve" smooth="yes"/>
      <point x="210" y="-227"/>
      <point x="214" y="-200"/>
      <point x="214" y="-165" type="curve" smooth="yes"/>
      <point x="214" y="-106"/>
      <point x="183" y="-34"/>
      <point x="159" y="3" type="curve"/>
      <point x="219" y="11" type="line"/>
    </contour>
  </outline>
</glyph>
<glyph name="ordmasculine" format="1">
  <advance width="924"/>
  <unicode hex="00BA"/>
  <note>
	ordmasculine
  </note>
  <outline>
    <contour>
      <point x="85" y="1191"/>
      <point x="172" y="1312"/>
      <point x="290" y="1371" type="curve" smooth="yes"/>
      <point x="349" y="1400"/>
      <point x="410" y="1415"/>
      <point x="473" y="1415" type="curve" smooth="yes"/>
      <point x="626" y="1415"/>
      <point x="739" y="1351"/>
      <point x="797" y="1231" type="curve" smooth="yes"/>
      <point x="826" y="1170"/>
      <point x="840" y="1097"/>
      <point x="840" y="1010" type="curve" smooth="yes"/>
      <point x="840" y="822"/>
      <point x="756" y="697"/>
      <point x="640" y="639" type="curve" smooth="yes"/>
      <point x="582" y="610"/>
      <point x="522" y="595"/>
      <point x="461" y="595" type="curve" smooth="yes"/>
      <point x="316" y="595"/>
      <point x="196" y="656"/>
      <point x="132" y="781" type="curve" smooth="yes"/>
      <point x="99" y="844"/>
      <point x="83" y="921"/>
      <point x="84" y="1012" type="curve" smooth="yes"/>
    </contour>
    <contour>
      <point x="644" y="1200"/>
      <point x="578" y="1322"/>
      <point x="466" y="1322" type="curve" smooth="yes"/>
      <point x="343" y="1322"/>
      <point x="281" y="1221"/>
      <point x="281" y="1019" type="curve" smooth="yes"/>
      <point x="281" y="884"/>
      <point x="315" y="780"/>
      <point x="370" y="727" type="curve" smooth="yes"/>
      <point x="397" y="700"/>
      <point x="427" y="687"/>
      <point x="459" y="687" type="curve" smooth="yes"/>
      <point x="546" y="687"/>
      <point x="596" y="714"/>
      <point x="624" y="803" type="curve" smooth="yes"/>
      <point x="637" y="847"/>
      <point x="644" y="910"/>
      <point x="644" y="993" type="curve" smooth="yes"/>
    </contour>
  </outline>
</glyph>
<glyph name="guillemotright" format="1">
  <advance width="1679"/>
  <unicode hex="00BB"/>
  <note>
	guillemotright
  </note>
  <outline>
    <contour>
      <point x="840" y="469" type="line"/>
      <point x="260" y="95" type="line"/>
      <point x="197" y="195" type="line"/>
      <point x="609" y="540" type="line"/>
      <point x="202" y="893" type="line"/>
      <point x="260" y="992" type="line"/>
      <point x="840" y="606" type="line"/>
    </contour>
    <contour>
      <point x="1474" y="469" type="line"/>
      <point x="894" y="95" type="line"/>
      <point x="832" y="195" type="line"/>
      <point x="1243" y="540" type="line"/>
      <point x="836" y="893" type="line"/>
      <point x="894" y="992" type="line"/>
      <point x="1474" y="606" type="line"/>
    </contour>
  </outline>
</glyph>
<glyph name="onequarter" format="1">
  <advance width="2090"/>
  <unicode hex="00BC"/>
  <note>
	onequarter
  </note>
  <outline>
    <contour>
      <point x="1256" y="1471" type="line"/>
      <point x="1390" y="1452" type="line"/>
      <point x="737" y="-142" type="line"/>
      <point x="602" y="-126" type="line"/>
    </contour>
    <contour>
      <point x="360" y="597" type="line"/>
      <point x="360" y="1196" type="line"/>
      <point x="303" y="1175"/>
      <point x="230" y="1156"/>
      <point x="140" y="1140" type="curve"/>
      <point x="114" y="1241" type="line"/>
      <point x="235" y="1277"/>
      <point x="333" y="1317"/>
      <point x="425" y="1388" type="curve"/>
      <point x="429" y="1388" type="line"/>
      <point x="529" y="1372" type="line"/>
      <point x="529" y="597" type="line"/>
      <point x="729" y="576" type="line"/>
      <point x="729" y="483" type="line"/>
      <point x="136" y="483" type="line"/>
      <point x="136" y="576" type="line"/>
    </contour>
    <contour>
      <point x="1335" y="473" type="line" smooth="yes"/>
      <point x="1492" y="758"/>
      <point x="1580" y="919"/>
      <point x="1599" y="956" type="curve"/>
      <point x="1761" y="956" type="line"/>
      <point x="1792" y="920" type="line"/>
      <point x="1450" y="363" type="line"/>
      <point x="1382" y="273" type="line"/>
      <point x="1709" y="289" type="line"/>
      <point x="1720" y="516" type="line"/>
      <point x="1870" y="527" type="line"/>
      <point x="1870" y="297" type="line"/>
      <point x="2024" y="304" type="line"/>
      <point x="2024" y="175" type="line"/>
      <point x="1870" y="175" type="line"/>
      <point x="1870" y="0" type="line"/>
      <point x="1709" y="0" type="line"/>
      <point x="1708" y="175" type="line"/>
      <point x="1279" y="175" type="line"/>
      <point x="1216" y="254" type="line"/>
    </contour>
  </outline>
</glyph>
<glyph name="onehalf" format="1">
  <advance width="2051"/>
  <unicode hex="00BD"/>
  <note>
	onehalf
  </note>
  <outline>
    <contour>
      <point x="360" y="597" type="line"/>
      <point x="360" y="1196" type="line"/>
      <point x="303" y="1175"/>
      <point x="230" y="1156"/>
      <point x="140" y="1140" type="curve"/>
      <point x="114" y="1241" type="line"/>
      <point x="235" y="1277"/>
      <point x="333" y="1317"/>
      <point x="425" y="1388" type="curve"/>
      <point x="429" y="1388" type="line"/>
      <point x="529" y="1372" type="line"/>
      <point x="529" y="597" type="line"/>
      <point x="729" y="576" type="line"/>
      <point x="729" y="483" type="line"/>
      <point x="136" y="483" type="line"/>
      <point x="136" y="576" type="line"/>
    </contour>
    <contour>
      <point x="1256" y="1471" type="line"/>
      <point x="1390" y="1452" type="line"/>
      <point x="738" y="-142" type="line"/>
      <point x="602" y="-126" type="line"/>
    </contour>
    <contour>
      <point x="1263" y="91" type="line"/>
      <point x="1386" y="164"/>
      <point x="1537" y="279"/>
      <point x="1642" y="417" type="curve" smooth="yes"/>
      <point x="1695" y="486"/>
      <point x="1721" y="553"/>
      <point x="1721" y="620" type="curve" smooth="yes"/>
      <point x="1721" y="716"/>
      <point x="1660" y="779"/>
      <point x="1555" y="779" type="curve" smooth="yes"/>
      <point x="1459" y="779"/>
      <point x="1368" y="736"/>
      <point x="1321" y="688" type="curve"/>
      <point x="1260" y="758" type="line"/>
      <point x="1293" y="801"/>
      <point x="1361" y="850"/>
      <point x="1452" y="882" type="curve" smooth="yes"/>
      <point x="1497" y="897"/>
      <point x="1545" y="905"/>
      <point x="1596" y="905" type="curve" smooth="yes"/>
      <point x="1724" y="905"/>
      <point x="1818" y="857"/>
      <point x="1866" y="782" type="curve" smooth="yes"/>
      <point x="1889" y="744"/>
      <point x="1901" y="702"/>
      <point x="1901" y="657" type="curve" smooth="yes"/>
      <point x="1901" y="538"/>
      <point x="1803" y="398"/>
      <point x="1662" y="274" type="curve" smooth="yes"/>
      <point x="1591" y="212"/>
      <point x="1515" y="156"/>
      <point x="1434" y="107" type="curve"/>
      <point x="1808" y="135" type="line"/>
      <point x="1879" y="264" type="line"/>
      <point x="1973" y="246" type="line"/>
      <point x="1927" y="0" type="line"/>
      <point x="1300" y="0" type="line"/>
    </contour>
  </outline>
</glyph>
<glyph name="threequarters" format="1">
  <advance width="2112"/>
  <unicode hex="00BE"/>
  <note>
	threequarters
  </note>
  <outline>
    <contour>
      <point x="1278" y="1471" type="line"/>
      <point x="1412" y="1452" type="line"/>
      <point x="759" y="-142" type="line"/>
      <point x="624" y="-126" type="line"/>
    </contour>
    <contour>
      <point x="116" y="618" type="line"/>
      <point x="179" y="594"/>
      <point x="262" y="576"/>
      <point x="327" y="576" type="curve" smooth="yes"/>
      <point x="508" y="576"/>
      <point x="598" y="634"/>
      <point x="598" y="751" type="curve" smooth="yes"/>
      <point x="598" y="803"/>
      <point x="565" y="850"/>
      <point x="503" y="875" type="curve" smooth="yes"/>
      <point x="472" y="888"/>
      <point x="436" y="893"/>
      <point x="395" y="891" type="curve"/>
      <point x="326" y="869" type="line" smooth="yes"/>
      <point x="305" y="862"/>
      <point x="292" y="858"/>
      <point x="288" y="856" type="curve"/>
      <point x="258" y="949" type="line"/>
      <point x="293" y="956"/>
      <point x="346" y="973"/>
      <point x="390" y="994" type="curve" smooth="yes"/>
      <point x="477" y="1035"/>
      <point x="520" y="1088"/>
      <point x="520" y="1155" type="curve" smooth="yes"/>
      <point x="520" y="1230"/>
      <point x="478" y="1269"/>
      <point x="370" y="1269" type="curve" smooth="yes"/>
      <point x="289" y="1269"/>
      <point x="203" y="1242"/>
      <point x="152" y="1201" type="curve"/>
      <point x="99" y="1285" type="line"/>
      <point x="158" y="1344"/>
      <point x="282" y="1388"/>
      <point x="414" y="1388" type="curve" smooth="yes"/>
      <point x="527" y="1388"/>
      <point x="618" y="1352"/>
      <point x="666" y="1291" type="curve" smooth="yes"/>
      <point x="689" y="1260"/>
      <point x="701" y="1226"/>
      <point x="701" y="1187" type="curve" smooth="yes"/>
      <point x="701" y="1078"/>
      <point x="634" y="998"/>
      <point x="499" y="946" type="curve"/>
      <point x="508" y="947"/>
      <point x="522" y="948"/>
      <point x="539" y="948" type="curve" smooth="yes"/>
      <point x="643" y="948"/>
      <point x="718" y="906"/>
      <point x="755" y="846" type="curve" smooth="yes"/>
      <point x="773" y="816"/>
      <point x="782" y="785"/>
      <point x="782" y="752" type="curve" smooth="yes"/>
      <point x="782" y="644"/>
      <point x="723" y="554"/>
      <point x="603" y="504" type="curve" smooth="yes"/>
      <point x="543" y="479"/>
      <point x="470" y="466"/>
      <point x="383" y="466" type="curve" smooth="yes"/>
      <point x="283" y="466"/>
      <point x="188" y="484"/>
      <point x="116" y="517" type="curve"/>
    </contour>
    <contour>
      <point x="1357" y="473" type="line" smooth="yes"/>
      <point x="1514" y="758"/>
      <point x="1602" y="919"/>
      <point x="1621" y="956" type="curve"/>
      <point x="1783" y="956" type="line"/>
      <point x="1814" y="920" type="line"/>
      <point x="1472" y="363" type="line"/>
      <point x="1404" y="273" type="line"/>
      <point x="1731" y="289" type="line"/>
      <point x="1742" y="516" type="line"/>
      <point x="1892" y="527" type="line"/>
      <point x="1892" y="297" type="line"/>
      <point x="2046" y="304" type="line"/>
      <point x="2046" y="175" type="line"/>
      <point x="1892" y="175" type="line"/>
      <point x="1892" y="0" type="line"/>
      <point x="1731" y="0" type="line"/>
      <point x="1730" y="175" type="line"/>
      <point x="1301" y="175" type="line"/>
      <point x="1238" y="254" type="line"/>
    </contour>
  </outline>
</glyph>
<glyph name="questiondown" format="1">
  <advance width="874"/>
  <unicode hex="00BF"/>
  <note>
	questiondown
  </note>
  <outline>
    <contour>
      <point x="558" y="1022"/>
      <point x="549" y="1021"/>
      <point x="541" y="1021" type="curve" smooth="yes"/>
      <point x="515" y="1021"/>
      <point x="493" y="1029"/>
      <point x="475" y="1043" type="curve" smooth="yes"/>
      <point x="457" y="1058"/>
      <point x="445" y="1078"/>
      <point x="438" y="1102" type="curve"/>
      <point x="436" y="1111"/>
      <point x="435" y="1120"/>
      <point x="435" y="1128" type="curve" smooth="yes"/>
      <point x="435" y="1156"/>
      <point x="445" y="1180"/>
      <point x="464" y="1201" type="curve" smooth="yes"/>
      <point x="484" y="1221"/>
      <point x="508" y="1233"/>
      <point x="539" y="1238" type="curve"/>
      <point x="545" y="1240"/>
      <point x="554" y="1241"/>
      <point x="565" y="1241" type="curve" smooth="yes"/>
      <point x="589" y="1241"/>
      <point x="610" y="1233"/>
      <point x="629" y="1219" type="curve" smooth="yes"/>
      <point x="648" y="1204"/>
      <point x="661" y="1184"/>
      <point x="668" y="1159" type="curve"/>
      <point x="670" y="1141" type="line"/>
      <point x="670" y="1113"/>
      <point x="660" y="1088"/>
      <point x="640" y="1066" type="curve" smooth="yes"/>
      <point x="620" y="1044"/>
      <point x="596" y="1030"/>
      <point x="568" y="1024" type="curve" smooth="yes"/>
    </contour>
    <contour>
      <point x="620" y="305"/>
      <point x="241" y="280"/>
      <point x="241" y="-2" type="curve" smooth="yes"/>
      <point x="241" y="-152"/>
      <point x="335" y="-249"/>
      <point x="526" y="-249" type="curve" smooth="yes"/>
      <point x="610" y="-249"/>
      <point x="709" y="-224"/>
      <point x="785" y="-173" type="curve"/>
      <point x="813" y="-252" type="line"/>
      <point x="752" y="-305"/>
      <point x="625" y="-381"/>
      <point x="465" y="-381" type="curve" smooth="yes"/>
      <point x="193" y="-381"/>
      <point x="41" y="-252"/>
      <point x="41" y="-25" type="curve" smooth="yes"/>
      <point x="41" y="310"/>
      <point x="516" y="374"/>
      <point x="516" y="676" type="curve" smooth="yes"/>
      <point x="516" y="712"/>
      <point x="508" y="745"/>
      <point x="503" y="786" type="curve"/>
      <point x="602" y="786" type="line"/>
      <point x="613" y="740"/>
      <point x="620" y="699"/>
      <point x="620" y="659" type="curve" smooth="yes"/>
    </contour>
  </outline>
</glyph>
<glyph name="Agrave" format="1">
  <advance width="1246"/>
  <unicode hex="00C0"/>
  <note>
	Agrave
  </note>
  <outline>
    <contour>
      <point x="82" y="117" type="line"/>
      <point x="516" y="1350" type="line"/>
      <point x="725" y="1350" type="line"/>
      <point x="1162" y="117" type="line"/>
      <point x="1274" y="96" type="line"/>
      <point x="1274" y="0" type="line"/>
      <point x="791" y="0" type="line"/>
      <point x="791" y="96" type="line"/>
      <point x="935" y="117" type="line"/>
      <point x="851" y="374" type="line"/>
      <point x="334" y="374" type="line"/>
      <point x="253" y="117" type="line"/>
      <point x="404" y="96" type="line"/>
      <point x="404" y="0" type="line"/>
      <point x="-29" y="0" type="line"/>
      <point x="-30" y="96" type="line"/>
    </contour>
    <contour>
      <point x="815" y="486" type="line"/>
      <point x="627" y="1064" type="line"/>
      <point x="588" y="1212" type="line"/>
      <point x="549" y="1062" type="line"/>
      <point x="369" y="486" type="line"/>
    </contour>
    <contour>
      <point x="481" y="1771" type="line"/>
      <point x="482" y="1771" type="line"/>
      <point x="774" y="1497" type="line"/>
      <point x="703" y="1437" type="line"/>
      <point x="702" y="1437" type="line"/>
      <point x="645" y="1456"/>
      <point x="532" y="1512"/>
      <point x="443" y="1573" type="curve" smooth="yes"/>
      <point x="398" y="1604"/>
      <point x="367" y="1632"/>
      <point x="348" y="1659" type="curve"/>
    </contour>
  </outline>
</glyph>
<glyph name="Aacute" format="1">
  <advance width="1246"/>
  <unicode hex="00C1"/>
  <note>
	Aacute
  </note>
  <outline>
    <contour>
      <point x="82" y="117" type="line"/>
      <point x="516" y="1350" type="line"/>
      <point x="725" y="1350" type="line"/>
      <point x="1162" y="117" type="line"/>
      <point x="1274" y="96" type="line"/>
      <point x="1274" y="0" type="line"/>
      <point x="791" y="0" type="line"/>
      <point x="791" y="96" type="line"/>
      <point x="935" y="117" type="line"/>
      <point x="851" y="374" type="line"/>
      <point x="334" y="374" type="line"/>
      <point x="253" y="117" type="line"/>
      <point x="404" y="96" type="line"/>
      <point x="404" y="0" type="line"/>
      <point x="-29" y="0" type="line"/>
      <point x="-30" y="96" type="line"/>
    </contour>
    <contour>
      <point x="815" y="486" type="line"/>
      <point x="627" y="1064" type="line"/>
      <point x="588" y="1212" type="line"/>
      <point x="549" y="1062" type="line"/>
      <point x="369" y="486" type="line"/>
    </contour>
    <contour>
      <point x="791" y="1771" type="line"/>
      <point x="792" y="1771" type="line"/>
      <point x="926" y="1659" type="line"/>
      <point x="885" y="1603"/>
      <point x="783" y="1538"/>
      <point x="686" y="1488" type="curve" smooth="yes"/>
      <point x="637" y="1463"/>
      <point x="599" y="1446"/>
      <point x="571" y="1437" type="curve"/>
      <point x="570" y="1437" type="line"/>
      <point x="500" y="1497" type="line"/>
    </contour>
  </outline>
</glyph>
<glyph name="Atilde" format="1">
  <advance width="1246"/>
  <unicode hex="00C3"/>
  <note>
	Atilde
  </note>
  <outline>
    <contour>
      <point x="82" y="117" type="line"/>
      <point x="516" y="1350" type="line"/>
      <point x="725" y="1350" type="line"/>
      <point x="1162" y="117" type="line"/>
      <point x="1274" y="96" type="line"/>
      <point x="1274" y="0" type="line"/>
      <point x="791" y="0" type="line"/>
      <point x="791" y="96" type="line"/>
      <point x="935" y="117" type="line"/>
      <point x="851" y="374" type="line"/>
      <point x="334" y="374" type="line"/>
      <point x="253" y="117" type="line"/>
      <point x="404" y="96" type="line"/>
      <point x="404" y="0" type="line"/>
      <point x="-29" y="0" type="line"/>
      <point x="-30" y="96" type="line"/>
    </contour>
    <contour>
      <point x="815" y="486" type="line"/>
      <point x="627" y="1064" type="line"/>
      <point x="588" y="1212" type="line"/>
      <point x="549" y="1062" type="line"/>
      <point x="369" y="486" type="line"/>
    </contour>
    <contour>
      <point x="410" y="1629"/>
      <point x="373" y="1583"/>
      <point x="354" y="1552" type="curve"/>
      <point x="344" y="1537"/>
      <point x="338" y="1527"/>
      <point x="336" y="1524" type="curve"/>
      <point x="251" y="1580" type="line"/>
      <point x="268" y="1636"/>
      <point x="316" y="1699"/>
      <point x="387" y="1738" type="curve" smooth="yes"/>
      <point x="422" y="1757"/>
      <point x="461" y="1767"/>
      <point x="504" y="1767" type="curve" smooth="yes"/>
      <point x="553" y="1767"/>
      <point x="594" y="1748"/>
      <point x="624" y="1727" type="curve" smooth="yes"/>
      <point x="639" y="1716"/>
      <point x="656" y="1702"/>
      <point x="676" y="1683" type="curve" smooth="yes"/>
      <point x="724" y="1640"/>
      <point x="750" y="1621"/>
      <point x="791" y="1621" type="curve" smooth="yes"/>
      <point x="852" y="1621"/>
      <point x="886" y="1664"/>
      <point x="903" y="1696" type="curve" smooth="yes"/>
      <point x="912" y="1712"/>
      <point x="917" y="1722"/>
      <point x="920" y="1727" type="curve"/>
      <point x="1006" y="1670" type="line"/>
      <point x="966" y="1562"/>
      <point x="887" y="1482"/>
      <point x="772" y="1482" type="curve" smooth="yes"/>
      <point x="703" y="1482"/>
      <point x="660" y="1511"/>
      <point x="600" y="1564" type="curve" smooth="yes"/>
      <point x="547" y="1608"/>
      <point x="517" y="1629"/>
      <point x="473" y="1629" type="curve" smooth="yes"/>
    </contour>
  </outline>
</glyph>
<glyph name="Adieresis" format="1">
  <advance width="1246"/>
  <unicode hex="00C4"/>
  <note>
	Adieresis
  </note>
  <outline>
    <contour>
      <point x="82" y="117" type="line"/>
      <point x="516" y="1350" type="line"/>
      <point x="725" y="1350" type="line"/>
      <point x="1162" y="117" type="line"/>
      <point x="1274" y="96" type="line"/>
      <point x="1274" y="0" type="line"/>
      <point x="791" y="0" type="line"/>
      <point x="791" y="96" type="line"/>
      <point x="935" y="117" type="line"/>
      <point x="851" y="374" type="line"/>
      <point x="334" y="374" type="line"/>
      <point x="253" y="117" type="line"/>
      <point x="404" y="96" type="line"/>
      <point x="404" y="0" type="line"/>
      <point x="-29" y="0" type="line"/>
      <point x="-30" y="96" type="line"/>
    </contour>
    <contour>
      <point x="815" y="486" type="line"/>
      <point x="627" y="1064" type="line"/>
      <point x="588" y="1212" type="line"/>
      <point x="549" y="1062" type="line"/>
      <point x="369" y="486" type="line"/>
    </contour>
    <contour>
      <point x="285" y="1684"/>
      <point x="331" y="1745"/>
      <point x="414" y="1745" type="curve" smooth="yes"/>
      <point x="415" y="1745" type="line" smooth="yes"/>
      <point x="463" y="1745"/>
      <point x="500" y="1720"/>
      <point x="518" y="1683" type="curve" smooth="yes"/>
      <point x="527" y="1664"/>
      <point x="531" y="1645"/>
      <point x="531" y="1624" type="curve" smooth="yes"/>
      <point x="531" y="1543"/>
      <point x="483" y="1485"/>
      <point x="395" y="1485" type="curve" smooth="yes"/>
      <point x="395" y="1485" type="line" smooth="yes"/>
      <point x="330" y="1485"/>
      <point x="285" y="1537"/>
      <point x="285" y="1604" type="curve" smooth="yes"/>
    </contour>
    <contour>
      <point x="725" y="1684"/>
      <point x="772" y="1745"/>
      <point x="853" y="1745" type="curve" smooth="yes"/>
      <point x="854" y="1745" type="line" smooth="yes"/>
      <point x="903" y="1745"/>
      <point x="940" y="1720"/>
      <point x="958" y="1683" type="curve" smooth="yes"/>
      <point x="967" y="1664"/>
      <point x="971" y="1645"/>
      <point x="971" y="1624" type="curve" smooth="yes"/>
      <point x="971" y="1543"/>
      <point x="924" y="1485"/>
      <point x="836" y="1485" type="curve" smooth="yes"/>
      <point x="835" y="1485" type="line" smooth="yes"/>
      <point x="770" y="1485"/>
      <point x="725" y="1537"/>
      <point x="725" y="1604" type="curve" smooth="yes"/>
    </contour>
  </outline>
</glyph>
<glyph name="Aring" format="1">
  <advance width="1246"/>
  <unicode hex="00C5"/>
  <note>
	Aring
  </note>
  <outline>
    <contour>
      <point x="1274" y="96" type="line"/>
      <point x="1274" y="0" type="line"/>
      <point x="791" y="0" type="line"/>
      <point x="791" y="96" type="line"/>
      <point x="935" y="117" type="line"/>
      <point x="851" y="374" type="line"/>
      <point x="334" y="374" type="line"/>
      <point x="253" y="117" type="line"/>
      <point x="404" y="96" type="line"/>
      <point x="404" y="0" type="line"/>
      <point x="-29" y="0" type="line"/>
      <point x="-30" y="96" type="line"/>
      <point x="82" y="117" type="line"/>
      <point x="511" y="1338" type="line"/>
      <point x="394" y="1367"/>
      <point x="335" y="1446"/>
      <point x="335" y="1547" type="curve" smooth="yes"/>
      <point x="335" y="1642"/>
      <point x="397" y="1711"/>
      <point x="489" y="1746" type="curve" smooth="yes"/>
      <point x="535" y="1763"/>
      <point x="585" y="1772"/>
      <point x="638" y="1772" type="curve" smooth="yes"/>
      <point x="639" y="1772" type="line" smooth="yes"/>
      <point x="760" y="1772"/>
      <point x="848" y="1732"/>
      <point x="890" y="1665" type="curve" smooth="yes"/>
      <point x="911" y="1631"/>
      <point x="921" y="1592"/>
      <point x="921" y="1548" type="curve" smooth="yes"/>
      <point x="921" y="1441"/>
      <point x="846" y="1365"/>
      <point x="730" y="1337" type="curve"/>
      <point x="1162" y="117" type="line"/>
    </contour>
    <contour>
      <point x="631" y="1684" type="line" smooth="yes"/>
      <point x="528" y="1684"/>
      <point x="477" y="1640"/>
      <point x="477" y="1551" type="curve" smooth="yes"/>
      <point x="477" y="1472"/>
      <point x="529" y="1412"/>
      <point x="630" y="1412" type="curve" smooth="yes"/>
      <point x="631" y="1412" type="line" smooth="yes"/>
      <point x="736" y="1412"/>
      <point x="781" y="1456"/>
      <point x="781" y="1540" type="curve" smooth="yes"/>
      <point x="781" y="1625"/>
      <point x="733" y="1684"/>
      <point x="632" y="1684" type="curve" smooth="yes"/>
    </contour>
    <contour>
      <point x="815" y="486" type="line"/>
      <point x="627" y="1064" type="line"/>
      <point x="588" y="1212" type="line"/>
      <point x="549" y="1062" type="line"/>
      <point x="369" y="486" type="line"/>
    </contour>
  </outline>
</glyph>
<glyph name="AE" format="1">
  <advance width="1660"/>
  <unicode hex="00C6"/>
  <note>
	AE
  </note>
  <outline>
    <contour>
      <point x="716" y="114" type="line"/>
      <point x="716" y="382" type="line"/>
      <point x="261" y="382" type="line"/>
      <point x="154" y="114" type="line"/>
      <point x="288" y="93" type="line"/>
      <point x="288" y="0" type="line"/>
      <point x="-155" y="0" type="line"/>
      <point x="-155" y="93" type="line"/>
      <point x="-25" y="116" type="line"/>
      <point x="463" y="1221" type="line"/>
      <point x="231" y="1243" type="line"/>
      <point x="231" y="1339" type="line"/>
      <point x="1486" y="1339" type="line"/>
      <point x="1514" y="1058" type="line"/>
      <point x="1402" y="1058" type="line"/>
      <point x="1344" y="1229" type="line"/>
      <point x="921" y="1240" type="line"/>
      <point x="921" y="740" type="line"/>
      <point x="1206" y="745" type="line"/>
      <point x="1233" y="891" type="line"/>
      <point x="1345" y="891" type="line"/>
      <point x="1345" y="479" type="line"/>
      <point x="1233" y="479" type="line"/>
      <point x="1206" y="629" type="line"/>
      <point x="921" y="634" type="line"/>
      <point x="921" y="108" type="line"/>
      <point x="1411" y="128" type="line"/>
      <point x="1522" y="350" type="line"/>
      <point x="1638" y="317" type="line"/>
      <point x="1572" y="0" type="line"/>
      <point x="567" y="0" type="line"/>
      <point x="567" y="94" type="line"/>
    </contour>
    <contour>
      <point x="716" y="496" type="line"/>
      <point x="716" y="1232" type="line"/>
      <point x="606" y="1232" type="line"/>
      <point x="512" y="1003" type="line"/>
      <point x="308" y="496" type="line"/>
    </contour>
  </outline>
</glyph>
<glyph name="Ccedilla" format="1">
  <advance width="1174"/>
  <unicode hex="00C7"/>
  <note>
	Ccedilla
  </note>
  <outline>
    <contour>
      <point x="1068" y="49" type="line"/>
      <point x="1037" y="48"/>
      <point x="1013" y="40"/>
      <point x="965" y="24" type="curve" smooth="yes"/>
      <point x="886" y="-4"/>
      <point x="823" y="-20"/>
      <point x="716" y="-20" type="curve" smooth="yes"/>
      <point x="707" y="-20" type="line"/>
      <point x="756" y="-79"/>
      <point x="801" y="-165"/>
      <point x="801" y="-246" type="curve" smooth="yes"/>
      <point x="801" y="-382"/>
      <point x="724" y="-435"/>
      <point x="568" y="-435" type="curve" smooth="yes"/>
      <point x="568" y="-435" type="line" smooth="yes"/>
      <point x="527" y="-435"/>
      <point x="472" y="-426"/>
      <point x="441" y="-411" type="curve"/>
      <point x="442" y="-276" type="line"/>
      <point x="463" y="-284"/>
      <point x="500" y="-289"/>
      <point x="517" y="-289" type="curve" smooth="yes"/>
      <point x="518" y="-289" type="line" smooth="yes"/>
      <point x="579" y="-289"/>
      <point x="612" y="-281"/>
      <point x="630" y="-245" type="curve" smooth="yes"/>
      <point x="639" y="-227"/>
      <point x="643" y="-200"/>
      <point x="643" y="-165" type="curve" smooth="yes"/>
      <point x="643" y="-116"/>
      <point x="621" y="-56"/>
      <point x="598" y="-13" type="curve"/>
      <point x="366" y="16"/>
      <point x="204" y="136"/>
      <point x="121" y="330" type="curve" smooth="yes"/>
      <point x="79" y="427"/>
      <point x="58" y="540"/>
      <point x="58" y="671" type="curve" smooth="yes"/>
      <point x="58" y="947"/>
      <point x="181" y="1161"/>
      <point x="379" y="1271" type="curve" smooth="yes"/>
      <point x="478" y="1326"/>
      <point x="588" y="1353"/>
      <point x="711" y="1353" type="curve" smooth="yes"/>
      <point x="824" y="1353"/>
      <point x="920" y="1336"/>
      <point x="1052" y="1309" type="curve" smooth="yes"/>
      <point x="1100" y="1299" type="line"/>
      <point x="1083" y="970" type="line"/>
      <point x="952" y="970" type="line"/>
      <point x="903" y="1194" type="line"/>
      <point x="890" y="1211"/>
      <point x="865" y="1224"/>
      <point x="828" y="1234" type="curve" smooth="yes"/>
      <point x="791" y="1243"/>
      <point x="741" y="1248"/>
      <point x="680" y="1248" type="curve" smooth="yes"/>
      <point x="531" y="1248"/>
      <point x="410" y="1161"/>
      <point x="346" y="994" type="curve" smooth="yes"/>
      <point x="313" y="911"/>
      <point x="297" y="810"/>
      <point x="297" y="692" type="curve" smooth="yes"/>
      <point x="297" y="473"/>
      <point x="354" y="281"/>
      <point x="475" y="169" type="curve" smooth="yes"/>
      <point x="536" y="112"/>
      <point x="611" y="84"/>
      <point x="702" y="84" type="curve" smooth="yes"/>
      <point x="797" y="84"/>
      <point x="865" y="106"/>
      <point x="906" y="150" type="curve"/>
      <point x="982" y="335" type="line"/>
      <point x="1107" y="319" type="line"/>
    </contour>
  </outline>
</glyph>
<glyph name="Egrave" format="1">
  <advance width="1178"/>
  <unicode hex="00C8"/>
  <note>
	Egrave
  </note>
  <outline>
    <contour>
      <point x="447" y="1771" type="line"/>
      <point x="448" y="1771" type="line"/>
      <point x="740" y="1497" type="line"/>
      <point x="669" y="1437" type="line"/>
      <point x="668" y="1437" type="line"/>
      <point x="611" y="1456"/>
      <point x="498" y="1512"/>
      <point x="409" y="1573" type="curve" smooth="yes"/>
      <point x="364" y="1604"/>
      <point x="333" y="1632"/>
      <point x="314" y="1659" type="curve"/>
    </contour>
    <contour>
      <point x="232" y="117" type="line"/>
      <point x="232" y="1220" type="line"/>
      <point x="87" y="1242" type="line"/>
      <point x="87" y="1339" type="line"/>
      <point x="1004" y="1339" type="line"/>
      <point x="1029" y="1060" type="line"/>
      <point x="915" y="1060" type="line"/>
      <point x="861" y="1228" type="line"/>
      <point x="439" y="1239" type="line"/>
      <point x="439" y="742" type="line"/>
      <point x="725" y="747" type="line"/>
      <point x="752" y="893" type="line"/>
      <point x="865" y="893" type="line"/>
      <point x="865" y="476" type="line"/>
      <point x="752" y="476" type="line"/>
      <point x="726" y="631" type="line"/>
      <point x="439" y="635" type="line"/>
      <point x="439" y="109" type="line"/>
      <point x="923" y="128" type="line"/>
      <point x="1023" y="349" type="line"/>
      <point x="1135" y="316" type="line"/>
      <point x="1083" y="0" type="line"/>
      <point x="84" y="0" type="line"/>
      <point x="84" y="96" type="line"/>
    </contour>
  </outline>
</glyph>
<glyph name="Ecircumflex" format="1">
  <advance width="1178"/>
  <unicode hex="00CA"/>
  <note>
	Ecircumflex
  </note>
  <outline>
    <contour>
      <point x="232" y="117" type="line"/>
      <point x="232" y="1220" type="line"/>
      <point x="87" y="1242" type="line"/>
      <point x="87" y="1339" type="line"/>
      <point x="1004" y="1339" type="line"/>
      <point x="1029" y="1060" type="line"/>
      <point x="915" y="1060" type="line"/>
      <point x="861" y="1228" type="line"/>
      <point x="439" y="1239" type="line"/>
      <point x="439" y="742" type="line"/>
      <point x="725" y="747" type="line"/>
      <point x="752" y="893" type="line"/>
      <point x="865" y="893" type="line"/>
      <point x="865" y="476" type="line"/>
      <point x="752" y="476" type="line"/>
      <point x="726" y="631" type="line"/>
      <point x="439" y="635" type="line"/>
      <point x="439" y="109" type="line"/>
      <point x="923" y="128" type="line"/>
      <point x="1023" y="349" type="line"/>
      <point x="1135" y="316" type="line"/>
      <point x="1083" y="0" type="line"/>
      <point x="84" y="0" type="line"/>
      <point x="84" y="96" type="line"/>
    </contour>
    <contour>
      <point x="532" y="1771" type="line"/>
      <point x="693" y="1771" type="line"/>
      <point x="935" y="1509" type="line"/>
      <point x="854" y="1456" type="line"/>
      <point x="613" y="1633" type="line"/>
      <point x="369" y="1456" type="line"/>
      <point x="294" y="1507" type="line"/>
    </contour>
  </outline>
</glyph>
<glyph name="Igrave" format="1">
  <advance width="727"/>
  <unicode hex="00CC"/>
  <note>
	Igrave
  </note>
  <outline>
    <contour>
      <point x="260" y="117" type="line"/>
      <point x="260" y="1219" type="line"/>
      <point x="99" y="1242" type="line"/>
      <point x="99" y="1339" type="line"/>
      <point x="628" y="1339" type="line"/>
      <point x="628" y="1242" type="line"/>
      <point x="467" y="1220" type="line"/>
      <point x="467" y="117" type="line"/>
      <point x="631" y="93" type="line"/>
      <point x="631" y="0" type="line"/>
      <point x="99" y="0" type="line"/>
      <point x="99" y="96" type="line"/>
    </contour>
    <contour>
      <point x="220" y="1771" type="line"/>
      <point x="221" y="1771" type="line"/>
      <point x="513" y="1497" type="line"/>
      <point x="442" y="1437" type="line"/>
      <point x="441" y="1437" type="line"/>
      <point x="384" y="1456"/>
      <point x="271" y="1512"/>
      <point x="182" y="1573" type="curve" smooth="yes"/>
      <point x="137" y="1604"/>
      <point x="106" y="1632"/>
      <point x="87" y="1659" type="curve"/>
    </contour>
  </outline>
</glyph>
<glyph name="Iacute" format="1">
  <advance width="727"/>
  <unicode hex="00CD"/>
  <note>
	Iacute
  </note>
  <outline>
    <contour>
      <point x="260" y="117" type="line"/>
      <point x="260" y="1219" type="line"/>
      <point x="99" y="1242" type="line"/>
      <point x="99" y="1339" type="line"/>
      <point x="628" y="1339" type="line"/>
      <point x="628" y="1242" type="line"/>
      <point x="467" y="1220" type="line"/>
      <point x="467" y="117" type="line"/>
      <point x="631" y="93" type="line"/>
      <point x="631" y="0" type="line"/>
      <point x="99" y="0" type="line"/>
      <point x="99" y="96" type="line"/>
    </contour>
    <contour>
      <point x="530" y="1771" type="line"/>
      <point x="531" y="1771" type="line"/>
      <point x="665" y="1659" type="line"/>
      <point x="624" y="1603"/>
      <point x="522" y="1538"/>
      <point x="425" y="1488" type="curve" smooth="yes"/>
      <point x="376" y="1463"/>
      <point x="338" y="1446"/>
      <point x="310" y="1437" type="curve"/>
      <point x="309" y="1437" type="line"/>
      <point x="239" y="1497" type="line"/>
    </contour>
  </outline>
</glyph>
<glyph name="Icircumflex" format="1">
  <advance width="727"/>
  <unicode hex="00CE"/>
  <note>
	Icircumflex
  </note>
  <outline>
    <contour>
      <point x="260" y="117" type="line"/>
      <point x="260" y="1219" type="line"/>
      <point x="99" y="1242" type="line"/>
      <point x="99" y="1339" type="line"/>
      <point x="628" y="1339" type="line"/>
      <point x="628" y="1242" type="line"/>
      <point x="467" y="1220" type="line"/>
      <point x="467" y="117" type="line"/>
      <point x="631" y="93" type="line"/>
      <point x="631" y="0" type="line"/>
      <point x="99" y="0" type="line"/>
      <point x="99" y="96" type="line"/>
    </contour>
    <contour>
      <point x="284" y="1771" type="line"/>
      <point x="445" y="1771" type="line"/>
      <point x="687" y="1509" type="line"/>
      <point x="606" y="1456" type="line"/>
      <point x="365" y="1633" type="line"/>
      <point x="121" y="1456" type="line"/>
      <point x="46" y="1507" type="line"/>
    </contour>
  </outline>
</glyph>
<glyph name="Idieresis" format="1">
  <advance width="727"/>
  <unicode hex="00CF"/>
  <note>
	Idieresis
  </note>
  <outline>
    <contour>
      <point x="260" y="117" type="line"/>
      <point x="260" y="1219" type="line"/>
      <point x="99" y="1242" type="line"/>
      <point x="99" y="1339" type="line"/>
      <point x="628" y="1339" type="line"/>
      <point x="628" y="1242" type="line"/>
      <point x="467" y="1220" type="line"/>
      <point x="467" y="117" type="line"/>
      <point x="631" y="93" type="line"/>
      <point x="631" y="0" type="line"/>
      <point x="99" y="0" type="line"/>
      <point x="99" y="96" type="line"/>
    </contour>
    <contour>
      <point x="23" y="1684"/>
      <point x="69" y="1745"/>
      <point x="152" y="1745" type="curve" smooth="yes"/>
      <point x="153" y="1745" type="line" smooth="yes"/>
      <point x="201" y="1745"/>
      <point x="238" y="1720"/>
      <point x="256" y="1683" type="curve" smooth="yes"/>
      <point x="265" y="1664"/>
      <point x="269" y="1645"/>
      <point x="269" y="1624" type="curve" smooth="yes"/>
      <point x="269" y="1543"/>
      <point x="221" y="1485"/>
      <point x="133" y="1485" type="curve" smooth="yes"/>
      <point x="133" y="1485" type="line" smooth="yes"/>
      <point x="68" y="1485"/>
      <point x="23" y="1537"/>
      <point x="23" y="1604" type="curve" smooth="yes"/>
    </contour>
    <contour>
      <point x="463" y="1684"/>
      <point x="510" y="1745"/>
      <point x="591" y="1745" type="curve" smooth="yes"/>
      <point x="592" y="1745" type="line" smooth="yes"/>
      <point x="641" y="1745"/>
      <point x="678" y="1720"/>
      <point x="696" y="1683" type="curve" smooth="yes"/>
      <point x="705" y="1664"/>
      <point x="709" y="1645"/>
      <point x="709" y="1624" type="curve" smooth="yes"/>
      <point x="709" y="1543"/>
      <point x="662" y="1485"/>
      <point x="574" y="1485" type="curve" smooth="yes"/>
      <point x="573" y="1485" type="line" smooth="yes"/>
      <point x="508" y="1485"/>
      <point x="463" y="1537"/>
      <point x="463" y="1604" type="curve" smooth="yes"/>
    </contour>
  </outline>
</glyph>
<glyph name="Ntilde" format="1">
  <advance width="1443"/>
  <unicode hex="00D1"/>
  <note>
	Ntilde
  </note>
  <outline>
    <contour>
      <point x="512" y="1629"/>
      <point x="475" y="1583"/>
      <point x="456" y="1552" type="curve"/>
      <point x="446" y="1537"/>
      <point x="440" y="1527"/>
      <point x="438" y="1524" type="curve"/>
      <point x="353" y="1580" type="line"/>
      <point x="370" y="1636"/>
      <point x="418" y="1699"/>
      <point x="489" y="1738" type="curve" smooth="yes"/>
      <point x="524" y="1757"/>
      <point x="563" y="1767"/>
      <point x="606" y="1767" type="curve" smooth="yes"/>
      <point x="655" y="1767"/>
      <point x="696" y="1748"/>
      <point x="726" y="1727" type="curve" smooth="yes"/>
      <point x="741" y="1716"/>
      <point x="758" y="1702"/>
      <point x="778" y="1683" type="curve" smooth="yes"/>
      <point x="826" y="1640"/>
      <point x="852" y="1621"/>
      <point x="893" y="1621" type="curve" smooth="yes"/>
      <point x="954" y="1621"/>
      <point x="988" y="1664"/>
      <point x="1005" y="1696" type="curve" smooth="yes"/>
      <point x="1014" y="1712"/>
      <point x="1019" y="1722"/>
      <point x="1022" y="1727" type="curve"/>
      <point x="1108" y="1670" type="line"/>
      <point x="1068" y="1562"/>
      <point x="989" y="1482"/>
      <point x="874" y="1482" type="curve" smooth="yes"/>
      <point x="805" y="1482"/>
      <point x="762" y="1511"/>
      <point x="702" y="1564" type="curve" smooth="yes"/>
      <point x="649" y="1608"/>
      <point x="619" y="1629"/>
      <point x="575" y="1629" type="curve" smooth="yes"/>
    </contour>
    <contour>
      <point x="231" y="116" type="line"/>
      <point x="231" y="1219" type="line"/>
      <point x="86" y="1242" type="line"/>
      <point x="86" y="1339" type="line"/>
      <point x="434" y="1339" type="line"/>
      <point x="1026" y="474" type="line"/>
      <point x="1119" y="300" type="line"/>
      <point x="1119" y="1220" type="line"/>
      <point x="962" y="1242" type="line"/>
      <point x="962" y="1339" type="line"/>
      <point x="1398" y="1339" type="line"/>
      <point x="1398" y="1242" type="line"/>
      <point x="1252" y="1219" type="line"/>
      <point x="1252" y="0" type="line"/>
      <point x="1108" y="0" type="line"/>
      <point x="502" y="883" type="line"/>
      <point x="364" y="1122" type="line"/>
      <point x="364" y="117" type="line"/>
      <point x="532" y="96" type="line"/>
      <point x="532" y="0" type="line"/>
      <point x="86" y="0" type="line"/>
      <point x="86" y="96" type="line"/>
    </contour>
  </outline>
</glyph>
<glyph name="Otilde" format="1">
  <advance width="1302"/>
  <unicode hex="00D5"/>
  <note>
	Otilde
  </note>
  <outline>
    <contour>
      <point x="438" y="1629"/>
      <point x="401" y="1583"/>
      <point x="382" y="1552" type="curve"/>
      <point x="372" y="1537"/>
      <point x="366" y="1527"/>
      <point x="364" y="1524" type="curve"/>
      <point x="279" y="1580" type="line"/>
      <point x="296" y="1636"/>
      <point x="344" y="1699"/>
      <point x="415" y="1738" type="curve" smooth="yes"/>
      <point x="450" y="1757"/>
      <point x="489" y="1767"/>
      <point x="532" y="1767" type="curve" smooth="yes"/>
      <point x="581" y="1767"/>
      <point x="622" y="1748"/>
      <point x="652" y="1727" type="curve" smooth="yes"/>
      <point x="667" y="1716"/>
      <point x="684" y="1702"/>
      <point x="704" y="1683" type="curve" smooth="yes"/>
      <point x="752" y="1640"/>
      <point x="778" y="1621"/>
      <point x="819" y="1621" type="curve" smooth="yes"/>
      <point x="880" y="1621"/>
      <point x="914" y="1664"/>
      <point x="931" y="1696" type="curve" smooth="yes"/>
      <point x="940" y="1712"/>
      <point x="945" y="1722"/>
      <point x="948" y="1727" type="curve"/>
      <point x="1034" y="1670" type="line"/>
      <point x="994" y="1562"/>
      <point x="915" y="1482"/>
      <point x="800" y="1482" type="curve" smooth="yes"/>
      <point x="731" y="1482"/>
      <point x="688" y="1511"/>
      <point x="628" y="1564" type="curve" smooth="yes"/>
      <point x="575" y="1608"/>
      <point x="545" y="1629"/>
      <point x="501" y="1629" type="curve" smooth="yes"/>
    </contour>
    <contour>
      <point x="58" y="937"/>
      <point x="170" y="1155"/>
      <point x="355" y="1269" type="curve" smooth="yes"/>
      <point x="448" y="1326"/>
      <point x="552" y="1354"/>
      <point x="667" y="1354" type="curve" smooth="yes"/>
      <point x="918" y="1354"/>
      <point x="1093" y="1240"/>
      <point x="1179" y="1040" type="curve" smooth="yes"/>
      <point x="1222" y="939"/>
      <point x="1243" y="821"/>
      <point x="1243" y="684" type="curve" smooth="yes"/>
      <point x="1243" y="403"/>
      <point x="1131" y="183"/>
      <point x="944" y="67" type="curve" smooth="yes"/>
      <point x="850" y="9"/>
      <point x="744" y="-20"/>
      <point x="627" y="-20" type="curve" smooth="yes"/>
      <point x="383" y="-20"/>
      <point x="210" y="99"/>
      <point x="123" y="304" type="curve" smooth="yes"/>
      <point x="80" y="406"/>
      <point x="58" y="525"/>
      <point x="58" y="660" type="curve" smooth="yes"/>
    </contour>
    <contour>
      <point x="287" y="426"/>
      <point x="346" y="247"/>
      <point x="455" y="154" type="curve" smooth="yes"/>
      <point x="510" y="107"/>
      <point x="575" y="84"/>
      <point x="651" y="84" type="curve" smooth="yes"/>
      <point x="800" y="84"/>
      <point x="911" y="172"/>
      <point x="971" y="352" type="curve" smooth="yes"/>
      <point x="1001" y="441"/>
      <point x="1016" y="552"/>
      <point x="1016" y="683" type="curve" smooth="yes"/>
      <point x="1016" y="918"/>
      <point x="957" y="1092"/>
      <point x="848" y="1183" type="curve" smooth="yes"/>
      <point x="793" y="1228"/>
      <point x="728" y="1251"/>
      <point x="652" y="1251" type="curve" smooth="yes"/>
      <point x="501" y="1251"/>
      <point x="391" y="1166"/>
      <point x="332" y="990" type="curve" smooth="yes"/>
      <point x="302" y="902"/>
      <point x="287" y="792"/>
      <point x="287" y="661" type="curve" smooth="yes"/>
    </contour>
  </outline>
</glyph>
<glyph name="Odieresis" format="1">
  <advance width="1302"/>
  <unicode hex="00D6"/>
  <note>
	Odieresis
  </note>
  <outline>
    <contour>
      <point x="313" y="1684"/>
      <point x="359" y="1745"/>
      <point x="442" y="1745" type="curve" smooth="yes"/>
      <point x="443" y="1745" type="line" smooth="yes"/>
      <point x="491" y="1745"/>
      <point x="528" y="1720"/>
      <point x="546" y="1683" type="curve" smooth="yes"/>
      <point x="555" y="1664"/>
      <point x="559" y="1645"/>
      <point x="559" y="1624" type="curve" smooth="yes"/>
      <point x="559" y="1543"/>
      <point x="511" y="1485"/>
      <point x="423" y="1485" type="curve" smooth="yes"/>
      <point x="423" y="1485" type="line" smooth="yes"/>
      <point x="358" y="1485"/>
      <point x="313" y="1537"/>
      <point x="313" y="1604" type="curve" smooth="yes"/>
    </contour>
    <contour>
      <point x="753" y="1684"/>
      <point x="800" y="1745"/>
      <point x="881" y="1745" type="curve" smooth="yes"/>
      <point x="882" y="1745" type="line" smooth="yes"/>
      <point x="931" y="1745"/>
      <point x="968" y="1720"/>
      <point x="986" y="1683" type="curve" smooth="yes"/>
      <point x="995" y="1664"/>
      <point x="999" y="1645"/>
      <point x="999" y="1624" type="curve" smooth="yes"/>
      <point x="999" y="1543"/>
      <point x="952" y="1485"/>
      <point x="864" y="1485" type="curve" smooth="yes"/>
      <point x="863" y="1485" type="line" smooth="yes"/>
      <point x="798" y="1485"/>
      <point x="753" y="1537"/>
      <point x="753" y="1604" type="curve" smooth="yes"/>
    </contour>
    <contour>
      <point x="58" y="937"/>
      <point x="170" y="1155"/>
      <point x="355" y="1269" type="curve" smooth="yes"/>
      <point x="448" y="1326"/>
      <point x="552" y="1354"/>
      <point x="667" y="1354" type="curve" smooth="yes"/>
      <point x="918" y="1354"/>
      <point x="1093" y="1240"/>
      <point x="1179" y="1040" type="curve" smooth="yes"/>
      <point x="1222" y="939"/>
      <point x="1243" y="821"/>
      <point x="1243" y="684" type="curve" smooth="yes"/>
      <point x="1243" y="403"/>
      <point x="1131" y="183"/>
      <point x="944" y="67" type="curve" smooth="yes"/>
      <point x="850" y="9"/>
      <point x="744" y="-20"/>
      <point x="627" y="-20" type="curve" smooth="yes"/>
      <point x="383" y="-20"/>
      <point x="210" y="99"/>
      <point x="123" y="304" type="curve" smooth="yes"/>
      <point x="80" y="406"/>
      <point x="58" y="525"/>
      <point x="58" y="660" type="curve" smooth="yes"/>
    </contour>
    <contour>
      <point x="287" y="426"/>
      <point x="346" y="247"/>
      <point x="455" y="154" type="curve" smooth="yes"/>
      <point x="510" y="107"/>
      <point x="575" y="84"/>
      <point x="651" y="84" type="curve" smooth="yes"/>
      <point x="800" y="84"/>
      <point x="911" y="172"/>
      <point x="971" y="352" type="curve" smooth="yes"/>
      <point x="1001" y="441"/>
      <point x="1016" y="552"/>
      <point x="1016" y="683" type="curve" smooth="yes"/>
      <point x="1016" y="918"/>
      <point x="957" y="1092"/>
      <point x="848" y="1183" type="curve" smooth="yes"/>
      <point x="793" y="1228"/>
      <point x="728" y="1251"/>
      <point x="652" y="1251" type="curve" smooth="yes"/>
      <point x="501" y="1251"/>
      <point x="391" y="1166"/>
      <point x="332" y="990" type="curve" smooth="yes"/>
      <point x="302" y="902"/>
      <point x="287" y="792"/>
      <point x="287" y="661" type="curve" smooth="yes"/>
    </contour>
  </outline>
</glyph>
<glyph name="multiply" format="1">
  <advance width="1091"/>
  <unicode hex="00D7"/>
  <note>
	multiply
  </note>
  <outline>
    <contour>
      <point x="448" y="542" type="line"/>
      <point x="143" y="831" type="line"/>
      <point x="260" y="951" type="line"/>
      <point x="546" y="639" type="line"/>
      <point x="832" y="950" type="line"/>
      <point x="948" y="831" type="line"/>
      <point x="643" y="542" type="line"/>
      <point x="948" y="254" type="line"/>
      <point x="832" y="134" type="line"/>
      <point x="546" y="445" type="line"/>
      <point x="260" y="134" type="line"/>
      <point x="143" y="254" type="line"/>
    </contour>
  </outline>
</glyph>
<glyph name="Oslash" format="1">
  <advance width="1302"/>
  <unicode hex="00D8"/>
  <note>
	Oslash
  </note>
  <outline>
    <contour>
      <point x="362" y="38" type="line"/>
      <point x="163" y="139"/>
      <point x="58" y="363"/>
      <point x="58" y="660" type="curve" smooth="yes"/>
      <point x="58" y="937"/>
      <point x="170" y="1155"/>
      <point x="355" y="1269" type="curve" smooth="yes"/>
      <point x="448" y="1326"/>
      <point x="552" y="1354"/>
      <point x="667" y="1354" type="curve" smooth="yes"/>
      <point x="733" y="1354"/>
      <point x="795" y="1346"/>
      <point x="854" y="1330" type="curve"/>
      <point x="924" y="1513" type="line"/>
      <point x="1017" y="1481" type="line"/>
      <point x="942" y="1295" type="line"/>
      <point x="1141" y="1196"/>
      <point x="1243" y="980"/>
      <point x="1243" y="684" type="curve" smooth="yes"/>
      <point x="1243" y="407"/>
      <point x="1134" y="187"/>
      <point x="951" y="70" type="curve" smooth="yes"/>
      <point x="767" y="-47"/>
      <point x="570" y="-29"/>
      <point x="453" y="2" type="curve"/>
      <point x="374" y="-190" type="line"/>
      <point x="279" y="-161" type="line"/>
    </contour>
    <contour>
      <point x="287" y="442"/>
      <point x="338" y="274"/>
      <point x="431" y="177" type="curve"/>
      <point x="808" y="1211" type="line"/>
      <point x="762" y="1238"/>
      <point x="710" y="1251"/>
      <point x="652" y="1251" type="curve" smooth="yes"/>
      <point x="501" y="1251"/>
      <point x="391" y="1166"/>
      <point x="332" y="990" type="curve" smooth="yes"/>
      <point x="302" y="902"/>
      <point x="287" y="792"/>
      <point x="287" y="661" type="curve" smooth="yes"/>
    </contour>
    <contour>
      <point x="500" y="122" type="line"/>
      <point x="545" y="97"/>
      <point x="595" y="84"/>
      <point x="651" y="84" type="curve" smooth="yes"/>
      <point x="800" y="84"/>
      <point x="911" y="172"/>
      <point x="971" y="352" type="curve" smooth="yes"/>
      <point x="1001" y="441"/>
      <point x="1016" y="552"/>
      <point x="1016" y="683" type="curve" smooth="yes"/>
      <point x="1016" y="895"/>
      <point x="967" y="1060"/>
      <point x="876" y="1155" type="curve"/>
    </contour>
  </outline>
</glyph>
<glyph name="Ugrave" format="1">
  <advance width="1327"/>
  <unicode hex="00D9"/>
  <note>
	Ugrave
  </note>
  <outline>
    <contour>
      <point x="553" y="1771" type="line"/>
      <point x="554" y="1771" type="line"/>
      <point x="846" y="1497" type="line"/>
      <point x="775" y="1437" type="line"/>
      <point x="774" y="1437" type="line"/>
      <point x="717" y="1456"/>
      <point x="604" y="1512"/>
      <point x="515" y="1573" type="curve" smooth="yes"/>
      <point x="470" y="1604"/>
      <point x="439" y="1632"/>
      <point x="420" y="1659" type="curve"/>
    </contour>
    <contour>
      <point x="162" y="1219" type="line"/>
      <point x="35" y="1242" type="line"/>
      <point x="35" y="1339" type="line"/>
      <point x="526" y="1339" type="line"/>
      <point x="526" y="1242" type="line"/>
      <point x="377" y="1219" type="line"/>
      <point x="377" y="546" type="line" smooth="yes"/>
      <point x="377" y="222"/>
      <point x="496" y="91"/>
      <point x="707" y="91" type="curve" smooth="yes"/>
      <point x="914" y="91"/>
      <point x="1023" y="251"/>
      <point x="1023" y="536" type="curve" smooth="yes"/>
      <point x="1023" y="1219" type="line"/>
      <point x="877" y="1242" type="line"/>
      <point x="877" y="1339" type="line"/>
      <point x="1299" y="1339" type="line"/>
      <point x="1299" y="1242" type="line"/>
      <point x="1169" y="1219" type="line"/>
      <point x="1169" y="545" type="line" smooth="yes"/>
      <point x="1169" y="294"/>
      <point x="1081" y="126"/>
      <point x="935" y="46" type="curve" smooth="yes"/>
      <point x="862" y="6"/>
      <point x="778" y="-14"/>
      <point x="683" y="-14" type="curve" smooth="yes"/>
      <point x="439" y="-14"/>
      <point x="289" y="66"/>
      <point x="217" y="236" type="curve" smooth="yes"/>
      <point x="180" y="321"/>
      <point x="162" y="431"/>
      <point x="162" y="566" type="curve" smooth="yes"/>
    </contour>
  </outline>
</glyph>
<glyph name="Uacute" format="1">
  <advance width="1327"/>
  <unicode hex="00DA"/>
  <note>
	Uacute
  </note>
  <outline>
    <contour>
      <point x="862" y="1771" type="line"/>
      <point x="863" y="1771" type="line"/>
      <point x="997" y="1659" type="line"/>
      <point x="956" y="1603"/>
      <point x="854" y="1538"/>
      <point x="757" y="1488" type="curve" smooth="yes"/>
      <point x="708" y="1463"/>
      <point x="670" y="1446"/>
      <point x="642" y="1437" type="curve"/>
      <point x="641" y="1437" type="line"/>
      <point x="571" y="1497" type="line"/>
    </contour>
    <contour>
      <point x="162" y="1219" type="line"/>
      <point x="35" y="1242" type="line"/>
      <point x="35" y="1339" type="line"/>
      <point x="526" y="1339" type="line"/>
      <point x="526" y="1242" type="line"/>
      <point x="377" y="1219" type="line"/>
      <point x="377" y="546" type="line" smooth="yes"/>
      <point x="377" y="222"/>
      <point x="496" y="91"/>
      <point x="707" y="91" type="curve" smooth="yes"/>
      <point x="914" y="91"/>
      <point x="1023" y="251"/>
      <point x="1023" y="536" type="curve" smooth="yes"/>
      <point x="1023" y="1219" type="line"/>
      <point x="877" y="1242" type="line"/>
      <point x="877" y="1339" type="line"/>
      <point x="1299" y="1339" type="line"/>
      <point x="1299" y="1242" type="line"/>
      <point x="1169" y="1219" type="line"/>
      <point x="1169" y="545" type="line" smooth="yes"/>
      <point x="1169" y="294"/>
      <point x="1081" y="126"/>
      <point x="935" y="46" type="curve" smooth="yes"/>
      <point x="862" y="6"/>
      <point x="778" y="-14"/>
      <point x="683" y="-14" type="curve" smooth="yes"/>
      <point x="439" y="-14"/>
      <point x="289" y="66"/>
      <point x="217" y="236" type="curve" smooth="yes"/>
      <point x="180" y="321"/>
      <point x="162" y="431"/>
      <point x="162" y="566" type="curve" smooth="yes"/>
    </contour>
  </outline>
</glyph>
